<?xml version="1.0" encoding="UTF-8"?>
<svg id="Layer_1" data-name="Layer 1" xmlns="http://www.w3.org/2000/svg" viewBox="0 0 240 240">
  <defs>
    <style>
      .cls-1 {
        fill: #fff;
      }
    </style>
  </defs>
  <path class="cls-1" d="M0,240V0h240v240H0ZM110.27,217.54c-2.03,2.3-4.17,4.41-6.33,6.59l-1.02,1.03c-.41.42-.34,1.38.08,1.69.64.47,1.22.36,1.84-.11.94-.72,1.69-1.46,2.48-2.31l3.72-4.01c.95-1.03,1.73-2.21,2.59-3.34l1.14-1.49,1.97-2.64,2.4-3.36c.7-.98,1.27-2.01,1.95-3.03l.87-1.3,1.65-2.92,1.26-2.39c.29-.55,1.19-1.92,1.99-1.96,3.68-.19,2.59.37,3.46,1.03,1.34,1.01,7.25,2.68,8.89,4.25.93.89,1.87,1.97,2.72,3.08.32.42.59,1.01.91,1.55.78,1.29,1.55.78,2.37,1.68l.45.13-.27-1.63c-.17-1,.24-.51.02-1.66l-.24-1.27c-.1-.55-.35-1.22-.6-1.75l-1.63-3.41c-1.19-2.5-1.52-3.22-3.65-3.88l-1.52-.47c-2.81-.86-4.16-3.51-5.63-2.79-2.58,1.26-2.02,2.13-4.01,2.72l-.58.17c-1.16.34,2.52-5.79,2.71-6.1.66-1.1,1.44-1.62,2.62-1.91,1-.24,1.84-.18,2.56.67.38.45,1.28,1.24,1.83,1.26l4.13.15c.52.02,1.29.32,1.9.47,1.27.31,2.4,1.45,3.52,1.9,4.67,1.83,2.13,3.45,6.33,6.23l.84-1.18c-.52-1.59-1.23-2.84-2.08-4.29-1.15-1.95-2-4.96-3.74-5.69-.43-.18-1-.32-1.43-.49l-1.92-.74-1.9-.77c-.56-.23-1.23-.55-1.71-.92l-2.05-1.59c-.28-.22-.8-.57-.98-.7l-1.55.61c-1.44.57-1.8,2.79-3.22,2.21.76-2.15,2.75-7.11,5.3-7.07,1.45,1.35.85,1.77,2.84,2.55,1.74.69,1.8-.38,3.56.72,1.08.67,2.18,1.11,3.4,1.46l1.04.3,1.52.4,1.72.45c.52.14,1.63.09,2.15-.04l1.82-.44c.26-.06,3.57-1.8,3.54-2.42l-3.6-.2c-.44-.02-1.35-.37-1.81-.51l-1.02-.32-2.24-.57c-3.45-.88-5.51-4.91-6.19-5.53-1.22-1.1-2.74.57-4.94,1.24l-1.21.37-.36-.15c-.09-.04-.04-.49,0-.58l1.17-2.86c.6-1.47.87-2.55,2.36-3.14,1.9-.74,1.34,1.86,3.19,1.11l1.83-.74c1.16-.47,4.31,1.26,6.14,1.94s5.9.23,7.57-.41c1.29-.5,2.51-1.19,3.77-1.83.1-.22.19-.42.06-.13-.93-.11-1.35-.14-1.97-.25l-1.27-.22c-1.31-.23-2.27-.48-3.4-1.29l-1.44-1.03c-1.28-.92-.85-.31-3.34-.87-3.68-.84-3.59-3.34-5.55-2.28l-1.56.84-2.21,1.27-.51-.24c1.81-3.32.82-3.58,2.75-6.56.23-.37,1.13-.91,1.49-.83l1.31,1.02c.54-.16,1.56-.63,2.14-.58l4.06.36c.89.08,1.74.29,2.7.34s3.75.96,4.59,1.66c1.06.86,2.7,3.06,2.95,2.41.21-.56.03-1.67-.23-2.2l-1.24-2.49c-.21-.41-.67-1.22-.97-1.53l-2.37-2.48c-.67-.7-1.79-1.47-2.75-1.62-1.68-.25-3.29-.22-4.87.1-.39.08-1.22.4-1.44.12l-.79-.99-1.79.76-.45-.32c.19-.46.37-.89.43-1.11l.36-1.28c.14-.51.39-1.73.88-1.93.52-.22,1.54-.15,2.01-.02,3.1,2.94,2.2,1.09,5.65,1.27,2.52.13,2.15.48,3.96.33l1.78-.43c1.38-.33,2.82-1.23,3.95-2.14,1.07-.87,1.66-2.16,2.42-3.31l1.39-2.09c.04-.06,0-.41,0-.49,0-.05-.07.03-.17.14-1,.59-1.9,1.09-2.89,1.53l-2.32,1.04c-2.54,1.14-3.95.99-6.89.9-.55-.02-1.53-.63-1.82-1.01l-.98-1.3c-.56,0-1.4.23-1.94.53l-3.36,1.88c-.43-.41,1.11-5.42,1.5-5.97.74-.54,2.29-.23,3.08.31l1.58-1.4c1.57-.48,4.91.36,4.68.34,1.9.17,4.09.21,6.11,0,.77-.08,3.29-1.2,4.31-1.99l-1.87-.43c-2.15-.49-2.24.81-5.13-1.38l-1.63-1.24c-.28-.21-1.08-.6-1.44-.61-3.32-.1-3.02-.04-5.64,1.14l-.87.39c-.74.33-1.25.53-2.17.87l.05-1.48c.02-.67,0-5.16,1.33-4.13,1.6,1.25,1.66-3.01,6.66-1.93,2.09.45,1.89.27,4.31.71.58.11,1.72.19,2.26.03l1.54-.46c.97-.29,1.94-1.17,2.79-1.87l2.17-1.8c.1-.08.25-.57.13-.58-1.6-.2-.43.44-2.46.32s-3.9.23-5.74-.08-3.58-.59-5.59-.35l-1.58.18c-1.06.12-2.04.88-2.89,1.49l-1.61,1.17-.24-.85c.22-.45.38-.82.44-1.07l.66-2.72.43-1.91c.25-1.09.07-1.85.61-2.15.09-.05.35.08.42.16l.61.68,1.74-1.08c1.76-1.1,4.76-.04,6.5.44.41-.16,1.12-.39,1.61-.45l2.47-.29c.39-.05,1.02-.27,1.44-.41l1.44-.5,1.51-.53c.04-.28.07-.46.04-.24l-1.8-.61c-.53-.18-1.17-.6-1.65-.96l-1.02-.74c-1.36-.99-2.46-1.2-4.03-1.61l-1.93-.51c-3.84-1.02-2.94.4-6.41,1.59-.07-.84-.03-6.51.97-5.73l.51.4c.31.24,1.02.58,1.37.5,1.77-1.84,2.22-.33,4.51-.02,4.44.61.8.38,3.99.16,3.02-.21,3.89-.71,6.41-2.3-.05-.46-.07-.72-.05-.52l-1.15-.09c-1.97.61-4.15-.34-5.9-1.36l-1.67-.98-1.66-.97c-1.24-.73-2.57-.82-3.81.04l-2.69,1.87c-.13-.47-.24-.86-.23-1.06l.18-3.98c.22-.1.54-.24.51-.23l1.39.54c.3.12.97.29,1.26.19.61-.22,1.05-1.51,1.53-1.31l.81.34c1.05.44,4.6.13,5.91-.32l1.66-.57c1.5-.52,1.98-1.47,3.76-1.85.27.43.22.31-.01-.19.26-.52.26-.58-.02-.27-.72-.2-1.15-.36-1.44-.38l-1.45-.1c-1.89-.13-3.53-.8-5.33-1.4-.93-.32-3.38-.9-4.34-.54-.65.25-1.42.84-2,1.27l-1.26.92c-.16.12-.63.2-.79.11-.11-.06-.19-.42-.18-.56l.13-2.42.12-2.18c.53-.51,1.83,1.57,2.96.73.42-.31,1.05-1.11,1.47-1.14l3.91-.32c1.64-.13,7.8-4.95,7.58-7.32-.01-.14-.53-.18-.67-.12-2.64,1.18-2.25,1.22-5.37,1.59-.84.1-3.78-.19-4.58-.64-.42.13-1.41.51-1.79.83l-1.46,1.21-2.07,1.73-.13-4.31c-.01-.35.72-.76,1.07-.66.67.2,1.17.04,1.56-.39l1.49-1.64c1.35-.27,2.44-.76,3.26-1.79l2.24-2.8c.44-.55.81-1.28,1.11-1.99.78-1.86-.2-1.71.69-3.42.11.02-.03,0-.52-.11-.98.56-1.4,1.55-2.19,2.02l-2.12,1.29c-3.57,2.17-3.6-.78-6.23,3.39-.25.69-.98-4.18-.75-4.18.77.12,1.72.39,2.08.11.63-.51.92-1.34,1.31-2,1.53-2.58,1.67-2.48,4.46-3.56l2.61-1.01c.51-.2.97-.52,1.27-.87l-.93-1.08-1.83-.08c-.5-.02-1.41-.16-1.83-.1-1.08.16-2.25.71-3.15,1.26-3.14,1.9-.95.3-3.79,1.46-.02-.06-.16-.71-.22-1.04l-.33-1.85c-.06-.01.25-.38.39-.47,1.82.15,1.59-1.93,2.56-2.23,1.88-.56,3.51-1.88,4.46-3.58l1.08-1.96c-.03-.27-.07-.52-.06-.47-.47.39-.75.65-.98.75l-1.74.75c-2.4,1.03-2.39-.4-4.62-.1l-1.23,1.17-.48-.06-.06-2.67c0-.28.87-.52,1.17-.46.61.13,1.09-.3,1.25-.89.65-2.48,1.32-1.66,2.8-3.8l1.74-2.53c.12-.18-.12-.93-.33-.89-2.32.37-4.62,1.24-6.07,3.07l-.74.94-.2.49c-.04.11-.39-.24-.42-.37l-.43-1.66-.5-1.93c-.06-.24-.02-.81.18-.9,1.14-.49,1.83.33,2.98-1.16l1.48-1.93c.47-.62,1.89-2.54,1.76-3.33l-.37-.11-1.83.76c-1.5.63-1.98-.78-4.48,1.53-.57-.37-1.09-1.76-.67-2.47.2-.34.97-.84,1.26-1.12.58-1.05,1.28-2.02,2.15-2.96.77-.83,1.7-3.87.84-3.4l-1.97,1.43-2.2,1.07-1.68,1.19c-.21-.84-.48-1.72-.07-2.18l1.03-1.17c.19-.21,1.47-4.28.9-4.59-1.13.35-2.01,1.4-2.51,2.14-.11.17-.73.31-.7.14.38-2.05,2.13-1.51,1.51-6.89l-1.14.76c-.97-2.78.4-2.22-1.11-4.83l-1.18,1.21c-1.22-2.63.03-3.32-1.25-4.41l-.54.08c-.4.06.2-1.09-1.09-3.09l-.28-.44c-.06-.09-.49.2-.56.13-.21-.18-.5-.69-.6-.98l-.77-2.35c-.3-.93-.56-1.6-1.44-2.26l-.41.3.39,2.68c.1.7.22,1.25.39,2.03.26,1.17-.69,1.06-.77,1.43-.09.43.26,1.23.66,1.61l2.07,1.97c-.54.71-.56,1.37-.15,1.9l1.31,1.66c.1.13.26.29.19.34l-.4.26-.75-.37-.15.66,1.65,2.84c.16.27.4.96.5,1.29l-.34,1.2c.32.5.81,1.27,1.19,1.6l1.88,1.64c-.26.24-.34.35-.42.32s-.4-.23-.48-.24l-2.67-.13c-1.32-.07.74,3.52,3.41,4.05.75.15,1.41.05,1.68,1.99.04.25-.72.47-1,.43-3.15-.44-1.94.73-5.29.64-.13-.5-.07.11-.05.47l2.15,1.77c1.13.93,3.93,1.24,5.7.85l.52,3.75-2.35-.18c-.2-.02-.55.12-.69.25l1.6.54,1.4.42-1.07,1.33-.43-.25c-.11-.31-.22-.64-.35-.59l-.4.14c-.09.03.05.23.22.71h-.42s-.56-.33-.56-.33c-.1-.06-.04-.29-.05-.55-.08-1.38-2.29-.54-2.41-.65l-.53-.53-.05-.61,2.09.21c.09,0,.4.01.4.02-.09-.27.37-.28-.42-.44l-2.56-.54c-.11-.02-.56-.04-.54.07l.04.32,1.1,1.87c.42.72,1.21,1.55,2.08,1.82,1.72.54,2.68-.05,4.32-.81.57.68.87,2.74.88,3.78l.58,1.51c.05.12-.11.66-.23.62-.79-.3-1.75-1.8-3.47-1.81-1.19,0-2.17-.15-3.23-.51l-1.98-.67-.36-.12c-.87-.29,1.09,2.08,1.13,2.13l1.48,1.71c.74.85,2,1.75,3.1,1.81,2.67.14,1.51.95,2.77.3.24-.12.75-.33.79-.15l.14.58.42,1.78c.11.46.05,1.44,0,1.9-.12.87-.45-.48-1.56-.5l-2.49-.06c-.56-.01-1.22-.1-1.71-.25l-1.94-.6-1.67-.52c-.73.38.78,2.54,1.02,2.84,1.37,1.68,5.43,3.95,7.59,2.6.07-.04.25.29.27.38l.45,2.42c.19,1.04.1,2.31.06,3.35-1.11-.58-1.83-1.02-2.75-1.18l-1.56-.28c-1.95-.34-4.5-2.04-6.01-3.43l-.73-.68s-.09.01-.33.05c.66,2.26,1.75,4.03,2.94,5.71l1,1.41c1.54,2.17,2.81,1.38,3.83,2.37l1.23-.02c1.96-.03,2.94-1.37,2.93-.23l-.05,6.06c-1.36-.64-2.25-.5-3.34-.03l-4.09,1.77c-.33.14-1.09.05-1.27-.22-1.88-2.79-.04-1.51-1.74-3.57l-1.1,2.4c-.13.29-.45.91-.58,1.12h-1.58c-.79-.02-1.4-.19-2.14-.48,1.44,2.65,3.62,2.32,4.91,4.4.74,1.2,1.46,2.54,2.59,3.35l2.4,1.71c.73.52,1.39,1.35,2.21,1.78s3.06-.58,3.76.44v4.84s-.43.3-.43.3c-.28-1.2-.63-2.17-1.48-2.61-2.12-1.1-2.8.09-5.37.08-1.09.64-2.12,1.17-3.29,1.56l-1.23-.02c.37.91.56,1.32.94,1.83l.87,1.18c.64.87,1.67,1.7,2.64,2.26l2.75,1.61c1.19.69,3.31.52,3.88,2.68.06.22.13.47.04.52l-.5.31c-.41.26-.94.26-1.55.21l-1.77.29c-.18.03-.66-.34-.59-.51l.25-.56-1.12-.07c-.14,0-.15-.48-.18-.76l-1.36.09c-.75.05-1.23-.78-1.19-.88l.2-.49-1.08-.32c-.1-.03.15-.56.06-.62s-.36-.22-.46-.32l-1.32-1.34c-.79-.8-1.57-3.91-1.51-4.22l.49-2.54.5.9c.13.27.27.56.11.23.2-.61.19-1.62-.24-1.59-1.48.1-.44,2.46-2.22,3.29l-2.18,1.02c-.09.04-.07.54.03.58l1.45.53,1.36.45c.29.09.82.22.99.45l2.27,3.09c.39.53.86,1.04,1.31,1.55.76.87,1.75,1.14,2.86,1.51.9.3,1.63,1.84,2.68,1.96l2.43.28c.15,3.17-.34,3.29-.48,6.11l-.31.4c-1.63-2.88-1.85-2.05-4.51-3.04-.48-.18-1.08-.59-1.53-.84l-1.88-1.06c-.37-.21-1.22-.57-1.65-.66l-1.82-.38c-.78-.16-1.95-.12-2.73.06l-1.65.39c-.81.19-1.58.45-2.48.75,0,.16.01.35.01.35l2.81.9c1.25.4,2.15,1.35,3.06,2.25l1.12.54c2.77,1.33,4.1,1.1,5.18,3.41.31.65,1.4,1.54,2.12,1.66.53.09,1.17.23,1.52.22l1.74-.05-.68,3.08-.19,2.24-.6,2.47c-.62-.48-.83-3.58-1.81-3.63l-1.99-.11-4.07-1.53c-.94-.35-.89.06-3.1-.47-2.85-.68-1.49.53-6.02-1.69-.92-.45-1.72-.76-2.63-.98.29,1.46,2.62,2.94,3.58,4.59,2.26,1.47,2.15.3,2.65,1.97l.45,1.49.7,2.34.43,1.44.52,1.68c1.26,4.1,3.72,4.11,5.07,5.19,1.18.95,2.25,1.59,3.99,1.4.21.58.07,1.4-.11,2.06l-.38,1.42-.44,1.8-.37,1.54c-.79.58-.08-1.54-.57-2.47-.2-.38-.93-1.06-1.34-1.21l-3.27-1.23c-1.22-.46-3.76-3.16-4.75-4.28-.31-.35-.74-1.24-.9-1.7l-.54-1.6-1.23-3.57-.66.19c-.77,2.52-.08.7-.69,3.28-.18.75.2,2.38.43,3.1,1.2,3.66,4.99,5,5.36,7.5.16,1.11.52,1.86,1.63,2.19l1.49.45c1.12.34,3.87,1.75,3.3,3.43l-.45,1.32-1.11,3.14-1.12-1.96c-.46-.8-2.2.03-2.89-.95l-1.52-2.17c-1.49-2.12-3.58-2.74-5.81-4.52-.52-.41-1.01-1.33-1.46-1.83l-.81-.88c.02-.64-.22-.42-.4.06l.94,3.96.44,2.06c.37,1.75.65,3.04,1.7,4.43,1.9,2.49,2.95,1.27,3.93,4.08.17.48.99,1.02,1.46,1.22,2.35.98,1.35.12,3.54,1.08.03.98-.23,1.85-.55,2.7l-1.01,2.7-.93,2.38c-.07.18-.38.53-.72.93-.79-1.52.13-.94-.48-3.85-.54-2.55-2.8-3.33-5.1-4.14l-2.88-1.02c-1.28-.45-3.53-2.18-4.36-3.25l-1.57-2.02c.04-.66-.2-.47-.43.08l.69,1.78c.6,1.55,1.17,3.05,1.89,4.57l.95,2.02c.16.35.58.85.87,1.18,2.2,2.52,3.05,2.05,5.68,4.15l1.37,1.09c1.53,1.22,2.89.48,2.11,2.07l-1.1,2.24-1.88,3.84c-.22.44-.38.74-.71,1.34-1.21-2.92-.16-2.53-1.46-5.07-.37-.72-.98-1.48-1.74-1.74-3.44-1.19-3.95-.98-7.57-2.72-2.31-1.11-3.99-2.55-5.78-4.44l.91,2.55.77,2.07c.73,1.96,1.8,3.81,3.55,5.01,2.47,1.69,2.69,1.03,4.74,3.01.37.36.97,1.18,1.4,1.39l2.22,1.12,2.36.18c-.72,2.03-1.63,3.6-2.59,5.36l-1.45,2.65c-.07-2.53-.56-4.42-2.42-5.93-.21-.17-.63-.63-.87-.69-4.03-.95-1.55-.14-5.55-.62-2.51-.3-6.25-1.18-8.29-3.21.08.39.36.94.64,1.3l1.1,1.39c1.06,1.35.75,1.51,2.06,3.47.32.48.81,1.23,1.19,1.55l1.51,1.26c2.59,2.15,6.58.08,8.11,2.39,1.1,1.66.42,2.74-.27,3.77-1.25,1.87-2.3,3.58-3.28,5.66-.09.2-.12.23-.56.35-.2-1.69.99-3.31-.16-4.6-1.52-1.7-3.64-2.99-5.89-3.5-.37-.08-1.12-.26-1.46-.24l-2.3.14c-.64.04-1.34.08-1.9.06l-2.44-.07c-1.86-.06-2.79-.73-2.99-.29l-.48,1.02c2.36,1.05,4.28,2.51,5.79,4.6.83,1.15,2.19,1.78,3.54,2.13,2.01.53,1.99.29,4.66.99,1.73.46,2.68,2.37,1.87,3.49-2.38,3.34-2.6,4.53-4.43,7.36l-2.55,3.95-.98,1.42-1,1.41c-.55.77-1.14,1.61-1.77,2.31l-2.26,2.56Z"/>
  <path d="M110.27,217.54l2.26-2.56c.62-.7,1.22-1.54,1.77-2.31l1-1.41.98-1.42,2.55-3.95c1.83-2.83,2.06-4.02,4.43-7.36.8-1.12-.14-3.04-1.87-3.49-2.67-.7-2.65-.46-4.66-.99-1.35-.36-2.71-.99-3.54-2.13-1.51-2.08-3.43-3.55-5.79-4.6l.48-1.02c.21-.44,1.13.23,2.99.29l2.44.07c.56.02,1.25-.02,1.9-.06l2.3-.14c.35-.02,1.09.16,1.46.24,2.25.51,4.37,1.8,5.89,3.5,1.15,1.29-.04,2.91.16,4.6.45-.11.47-.15.56-.35.98-2.09,2.03-3.79,3.28-5.66.69-1.03,1.37-2.12.27-3.77-1.54-2.31-5.53-.24-8.11-2.39l-1.51-1.26c-.38-.32-.87-1.07-1.19-1.55-1.31-1.96-.99-2.12-2.06-3.47l-1.1-1.39c-.28-.36-.56-.91-.64-1.3,2.04,2.03,5.77,2.91,8.29,3.21,4,.48,1.52-.32,5.55.62.25.06.66.52.87.69,1.86,1.51,2.35,3.4,2.42,5.93l1.45-2.65c.97-1.76,1.87-3.33,2.59-5.36l-2.36-.18-2.22-1.12c-.42-.21-1.02-1.03-1.4-1.39-2.04-1.99-2.27-1.32-4.74-3.01-1.75-1.2-2.83-3.05-3.55-5.01l-.77-2.07-.91-2.55c1.79,1.89,3.47,3.33,5.78,4.44,3.62,1.73,4.13,1.52,7.57,2.72.76.26,1.37,1.03,1.74,1.74,1.3,2.54.26,2.15,1.46,5.07.33-.6.49-.9.71-1.34l1.88-3.84,1.1-2.24c.78-1.59-.58-.85-2.11-2.07l-1.37-1.09c-2.63-2.1-3.48-1.63-5.68-4.15-.29-.33-.7-.84-.87-1.18l-.95-2.02c-.71-1.52-1.28-3.02-1.89-4.57l-.69-1.78c.22-.55.47-.74.43-.08l1.57,2.02c.83,1.07,3.09,2.8,4.36,3.25l2.88,1.02c2.3.81,4.56,1.59,5.1,4.14.62,2.91-.31,2.33.48,3.85.34-.4.65-.74.72-.93l.93-2.38,1.01-2.7c.32-.85.57-1.73.55-2.7-2.19-.97-1.19-.1-3.54-1.08-.46-.19-1.29-.74-1.46-1.22-.98-2.81-2.04-1.59-3.93-4.08-1.05-1.38-1.33-2.68-1.7-4.43l-.44-2.06-.94-3.96c.19-.48.43-.7.4-.06l.81.88c.45.49.95,1.41,1.46,1.83,2.22,1.78,4.32,2.4,5.81,4.52l1.52,2.17c.69.98,2.43.16,2.89.95l1.12,1.96,1.11-3.14.45-1.32c.57-1.68-2.18-3.09-3.3-3.43l-1.49-.45c-1.11-.34-1.47-1.09-1.63-2.19-.36-2.5-4.16-3.83-5.36-7.5-.23-.72-.61-2.35-.43-3.1.61-2.58-.08-.76.69-3.28l.66-.19,1.23,3.57.54,1.6c.15.46.59,1.34.9,1.7.98,1.12,3.53,3.82,4.75,4.28l3.27,1.23c.42.16,1.14.83,1.34,1.21.5.93-.21,3.05.57,2.47l.37-1.54.44-1.8.38-1.42c.18-.67.31-1.49.11-2.06-1.74.19-2.81-.45-3.99-1.4-1.34-1.09-3.81-1.09-5.07-5.19l-.52-1.68-.43-1.44-.7-2.34-.45-1.49c-.5-1.66-.39-.5-2.65-1.97-.96-1.65-3.3-3.14-3.58-4.59.91.22,1.71.52,2.63.98,4.53,2.21,3.17,1.01,6.02,1.69,2.21.53,2.16.11,3.1.47l4.07,1.53,1.99.11c.98.05,1.19,3.15,1.81,3.63l.6-2.47.19-2.24.68-3.08-1.74.05c-.35.01-.99-.13-1.52-.22-.72-.12-1.81-1.01-2.12-1.66-1.09-2.31-2.42-2.07-5.18-3.41l-1.12-.54c-.92-.9-1.81-1.85-3.06-2.25l-2.81-.9s0-.19-.01-.35c.9-.3,1.67-.56,2.48-.75l1.65-.39c.78-.18,1.94-.23,2.73-.06l1.82.38c.43.09,1.28.45,1.65.66l1.88,1.06c.46.26,1.06.67,1.53.84,2.66.99,2.88.16,4.51,3.04l.31-.4c.14-2.82.62-2.95.48-6.11l-2.43-.28c-1.05-.12-1.79-1.66-2.68-1.96-1.11-.37-2.09-.64-2.86-1.51-.45-.51-.92-1.02-1.31-1.55l-2.27-3.09c-.17-.23-.7-.35-.99-.45l-1.36-.45-1.45-.53c-.1-.04-.12-.53-.03-.58l2.18-1.02c1.78-.83.74-3.19,2.22-3.29.43-.03.44.98.24,1.59.16.32.02.03-.11-.23l-.5-.9-.49,2.54c-.06.31.72,3.42,1.51,4.22l1.32,1.34c.09.09.37.26.46.32s-.16.59-.06.62l1.08.32-.2.49c-.04.1.44.93,1.19.88l1.36-.09c.03.28.03.75.18.76l1.12.07-.25.56c-.08.17.4.55.59.51l1.77-.29c.61.06,1.14.05,1.55-.21l.5-.31c.09-.05.02-.31-.04-.52-.57-2.16-2.69-1.99-3.88-2.68l-2.75-1.61c-.97-.56-1.99-1.39-2.64-2.26l-.87-1.18c-.37-.5-.57-.91-.94-1.83l1.23.02c1.17-.39,2.2-.91,3.29-1.56,2.58,0,3.25-1.18,5.37-.08.85.44,1.2,1.41,1.48,2.61l.44-.3v-4.84c-.71-1.02-2.91.01-3.77-.44s-1.48-1.26-2.21-1.78l-2.4-1.71c-1.13-.81-1.84-2.15-2.59-3.35-1.28-2.08-3.47-1.75-4.91-4.4.74.29,1.35.46,2.14.47h1.58c.13-.2.44-.82.58-1.11l1.1-2.4c1.7,2.06-.14.79,1.74,3.57.18.27.95.36,1.27.22l4.09-1.77c1.09-.47,1.98-.61,3.34.03l.05-6.06c0-1.14-.96.21-2.93.23l-1.23.02c-1.02-.98-2.29-.2-3.83-2.37l-1-1.41c-1.19-1.68-2.28-3.45-2.94-5.71.24-.04.38-.06.33-.05l.73.68c1.51,1.39,4.05,3.09,6.01,3.43l1.56.28c.92.16,1.64.6,2.75,1.18.04-1.05.13-2.32-.06-3.35l-.45-2.42c-.02-.09-.2-.42-.27-.38-2.15,1.35-6.21-.91-7.59-2.6-.24-.3-1.75-2.46-1.02-2.84l1.67.52,1.94.6c.49.15,1.16.24,1.71.25l2.49.06c1.12.03,1.45,1.37,1.56.5.06-.46.12-1.45,0-1.9l-.42-1.78-.14-.58c-.04-.18-.55.03-.79.15-1.26.65-.1-.16-2.77-.3-1.09-.06-2.36-.96-3.1-1.81l-1.48-1.71s-2-2.42-1.13-2.13l.36.12,1.98.67c1.06.36,2.04.5,3.23.51,1.72,0,2.68,1.51,3.47,1.81.12.05.28-.49.23-.62l-.58-1.51c-.01-1.04-.32-3.1-.88-3.78-1.64.76-2.6,1.35-4.32.81-.86-.27-1.66-1.1-2.08-1.82l-1.1-1.87-.04-.32c-.02-.11.43-.09.54-.07l2.56.54c.79.16.32.18.42.44,0,0-.31-.01-.4-.02l-2.09-.21.05.61.53.53c.12.12,2.33-.72,2.41.65.02.26-.05.49.05.55l.56.34h.42c-.18-.49-.31-.69-.22-.72l.4-.14c.13-.04.23.28.35.59l.43.25,1.07-1.33-1.4-.42-1.6-.54c.14-.13.49-.27.69-.25l2.35.18-.52-3.75c-1.77.39-4.57.08-5.7-.85l-2.15-1.77c-.02-.37-.09-.97.05-.47,3.35.09,2.13-1.07,5.29-.64.28.04,1.03-.18,1-.43-.27-1.94-.93-1.84-1.68-1.99-2.66-.53-4.73-4.12-3.41-4.05l2.67.13c.09,0,.4.2.48.24s.16-.07.42-.32l-1.88-1.64c-.38-.33-.87-1.1-1.19-1.6l.34-1.2c-.1-.33-.34-1.03-.5-1.29l-1.65-2.84.15-.66.75.37.4-.26c.08-.05-.09-.22-.19-.34l-1.31-1.66c-.41-.53-.4-1.19.15-1.9l-2.07-1.97c-.4-.38-.75-1.18-.66-1.61.08-.37,1.03-.26.77-1.43-.17-.78-.29-1.33-.39-2.03l-.39-2.68.41-.3c.87.66,1.13,1.33,1.44,2.26l.77,2.35c.1.3.39.81.6.98.08.07.51-.22.56-.13l.28.44c1.29,2,.69,3.15,1.09,3.09l.54-.08c1.28,1.09.03,1.77,1.25,4.41l1.18-1.21c1.51,2.61.13,2.06,1.11,4.83l1.14-.76c.63,5.38-1.13,4.84-1.51,6.89-.03.17.58.03.7-.14.5-.73,1.38-1.79,2.51-2.14.57.3-.71,4.37-.9,4.59l-1.03,1.17c-.41.47-.14,1.34.07,2.18l1.68-1.19,2.2-1.07,1.97-1.43c.86-.47-.06,2.58-.84,3.4-.88.94-1.57,1.91-2.15,2.96-.29.28-1.06.79-1.26,1.12-.42.71.09,2.1.67,2.47,2.5-2.31,2.98-.9,4.48-1.53l1.83-.76.37.11c.13.79-1.28,2.71-1.76,3.33l-1.48,1.93c-1.15,1.49-1.84.67-2.98,1.16-.2.09-.25.66-.18.9l.5,1.93.43,1.66c.03.13.38.47.42.37l.2-.49.74-.94c1.45-1.83,3.75-2.69,6.07-3.07.2-.03.45.71.33.89l-1.74,2.53c-1.47,2.14-2.15,1.32-2.8,3.8-.16.59-.64,1.02-1.25.89-.3-.06-1.18.18-1.17.46l.06,2.67.48.06,1.23-1.17c2.23-.29,2.22,1.13,4.62.1l1.74-.75c.23-.1.5-.36.98-.75,0-.05.02.19.06.47l-1.08,1.96c-.95,1.71-2.58,3.02-4.46,3.58-.97.29-.74,2.38-2.56,2.23-.14.09-.45.46-.39.47l.33,1.85c.06.33.2.98.22,1.04,2.84-1.16.65.43,3.79-1.46.9-.54,2.07-1.09,3.15-1.26.42-.06,1.33.08,1.83.1l1.83.08.93,1.08c-.3.35-.75.68-1.27.87l-2.61,1.01c-2.79,1.08-2.93.98-4.46,3.56-.39.66-.67,1.48-1.31,2-.36.29-1.31.01-2.08-.11-.23,0,.5,4.87.75,4.18,2.62-4.17,2.65-1.22,6.23-3.39l2.12-1.29c.79-.48,1.21-1.46,2.19-2.02.49.11.63.14.52.11-.89,1.71.09,1.55-.69,3.42-.29.7-.67,1.44-1.11,1.99l-2.24,2.8c-.82,1.03-1.91,1.52-3.26,1.79l-1.49,1.64c-.39.43-.89.59-1.56.39-.35-.11-1.08.3-1.07.66l.13,4.31,2.07-1.73,1.46-1.21c.38-.32,1.37-.69,1.79-.83.81.44,3.75.74,4.58.64,3.12-.38,2.73-.41,5.37-1.59.14-.06.66-.03.67.12.22,2.37-5.94,7.19-7.58,7.32l-3.91.32c-.42.03-1.05.83-1.47,1.14-1.13.84-2.43-1.24-2.96-.73l-.12,2.18-.13,2.42c0,.13.08.49.18.56.16.1.63.01.79-.11l1.26-.92c.59-.43,1.36-1.02,2-1.27.96-.37,3.4.22,4.34.54,1.8.61,3.44,1.27,5.33,1.4l1.45.1c.29.02.72.19,1.44.38.28-.32.28-.25.02.27.24.5.28.62.01.19-1.78.38-2.26,1.33-3.76,1.85l-1.66.57c-1.31.45-4.86.77-5.91.32l-.81-.34c-.48-.2-.92,1.09-1.53,1.31-.28.1-.95-.07-1.26-.19l-1.39-.54s-.29.13-.51.23l-.18,3.98c0,.2.1.59.23,1.06l2.69-1.87c1.24-.86,2.56-.77,3.81-.04l1.66.97,1.67.98c1.75,1.02,3.93,1.97,5.9,1.36l1.15.09c-.02-.19,0,.06.05.52-2.52,1.59-3.39,2.09-6.41,2.3-3.19.22.45.45-3.99-.16-2.3-.31-2.74-1.82-4.51.02-.35.08-1.06-.25-1.37-.5l-.51-.4c-1-.77-1.04,4.89-.97,5.73,3.48-1.19,2.57-2.61,6.41-1.59l1.93.51c1.57.42,2.67.62,4.03,1.61l1.02.74c.49.35,1.12.78,1.65.96l1.8.61c.03-.22,0-.04-.04.24l-1.51.53-1.44.5c-.42.15-1.04.37-1.44.41l-2.47.29c-.49.06-1.2.29-1.61.45-1.73-.47-4.73-1.54-6.5-.44l-1.74,1.08-.61-.68c-.07-.08-.33-.21-.42-.16-.54.3-.36,1.06-.61,2.15l-.43,1.91-.66,2.72c-.06.26-.23.62-.44,1.07l.24.85,1.61-1.17c.84-.61,1.83-1.37,2.89-1.49l1.58-.18c2-.23,3.68.03,5.59.35s3.79-.04,5.74.08.85-.52,2.46-.32c.11.01-.04.5-.13.58l-2.17,1.8c-.85.7-1.81,1.58-2.79,1.87l-1.54.46c-.53.16-1.67.07-2.26-.03-2.43-.44-2.22-.26-4.31-.71-5-1.08-5.06,3.19-6.66,1.93-1.32-1.04-1.31,3.45-1.33,4.13l-.05,1.48c.91-.34,1.42-.54,2.17-.87l.87-.39c2.62-1.18,2.32-1.24,5.64-1.14.36.01,1.16.4,1.44.61l1.63,1.24c2.89,2.19,2.97.88,5.13,1.38l1.87.43c-1.02.79-3.54,1.91-4.31,1.99-2.02.21-4.2.17-6.11,0,.23.02-3.1-.82-4.68-.34l-1.58,1.4c-.79-.54-2.34-.85-3.08-.31-.38.55-1.93,5.56-1.5,5.97l3.36-1.88c.54-.3,1.38-.54,1.94-.53l.98,1.3c.29.39,1.27,1,1.82,1.01,2.93.09,4.35.24,6.89-.9l2.32-1.04c.99-.45,1.88-.94,2.89-1.53.1-.1.16-.19.17-.14,0,.07.05.42,0,.49l-1.39,2.09c-.76,1.14-1.36,2.44-2.42,3.31-1.13.91-2.57,1.81-3.95,2.14l-1.78.43c-1.81.15-1.45-.2-3.96-.33-3.46-.18-2.56,1.67-5.65-1.27-.47-.13-1.49-.2-2.01.02-.48.2-.73,1.42-.88,1.93l-.36,1.28c-.06.22-.25.65-.43,1.11l.45.32,1.79-.76.79.99c.23.28,1.05-.04,1.44-.12,1.58-.32,3.19-.36,4.87-.1.96.14,2.08.92,2.75,1.62l2.37,2.48c.3.32.77,1.12.97,1.53l1.24,2.49c.26.53.45,1.64.23,2.2-.25.65-1.89-1.55-2.95-2.41-.85-.69-3.67-1.6-4.59-1.66s-1.82-.27-2.7-.34l-4.06-.36c-.57-.05-1.6.41-2.14.58l-1.31-1.02c-.36-.08-1.25.47-1.49.83-1.92,2.99-.94,3.25-2.75,6.56l.51.24,2.21-1.27,1.56-.84c1.96-1.06,1.87,1.45,5.55,2.28,2.49.57,2.06-.04,3.34.87l1.44,1.03c1.13.81,2.09,1.06,3.4,1.29l1.27.22c.62.11,1.04.14,1.97.25.13-.29.04-.1-.06.13-1.26.64-2.48,1.33-3.77,1.83-1.67.65-5.71,1.09-7.57.41s-4.98-2.41-6.14-1.94l-1.83.74c-1.85.75-1.29-1.86-3.19-1.11-1.49.58-1.76,1.67-2.36,3.14l-1.17,2.86c-.04.1-.09.54,0,.58l.36.15,1.21-.37c2.19-.67,3.72-2.34,4.94-1.24.68.62,2.74,4.65,6.19,5.53l2.24.57,1.02.32c.46.14,1.37.49,1.81.51l3.6.2c.02.62-3.28,2.35-3.54,2.42l-1.82.44c-.52.13-1.63.18-2.15.04l-1.72-.45-1.52-.4-1.04-.3c-1.23-.35-2.32-.79-3.4-1.46-1.76-1.1-1.82-.03-3.56-.72-1.99-.79-1.39-1.21-2.84-2.55-2.55-.03-4.54,4.92-5.3,7.07,1.42.58,1.78-1.64,3.22-2.21l1.55-.61c.18.12.7.48.98.7l2.05,1.59c.48.37,1.15.69,1.71.92l1.9.77,1.92.74c.43.17.99.31,1.43.49,1.74.73,2.59,3.73,3.74,5.69.85,1.45,1.56,2.7,2.08,4.29l-.84,1.18c-4.19-2.77-1.66-4.4-6.33-6.23-1.13-.44-2.25-1.58-3.52-1.9-.61-.15-1.38-.45-1.9-.47l-4.13-.15c-.55-.02-1.45-.81-1.83-1.26-.72-.85-1.56-.91-2.56-.67-1.18.29-1.96.81-2.62,1.91-.19.31-3.87,6.45-2.71,6.1l.58-.17c1.99-.59,1.43-1.46,4.01-2.72,1.47-.72,2.82,1.93,5.63,2.79l1.52.47c2.13.66,2.46,1.38,3.65,3.88l1.63,3.41c.25.53.5,1.2.6,1.75l.24,1.27c.22,1.15-.19.66-.02,1.66l.27,1.63-.45-.13c-.82-.9-1.59-.39-2.37-1.68-.32-.53-.59-1.13-.91-1.55-.85-1.11-1.79-2.18-2.72-3.08-1.64-1.57-7.54-3.24-8.89-4.25-.87-.65.22-1.22-3.46-1.03-.8.04-1.7,1.41-1.99,1.96l-1.26,2.39-1.65,2.92-.87,1.3c-.68,1.01-1.25,2.05-1.95,3.03l-2.4,3.36-1.97,2.64-1.14,1.49c-.86,1.13-1.64,2.31-2.59,3.34l-3.72,4.01c-.79.85-1.54,1.59-2.48,2.31-.62.47-1.19.58-1.84.11-.42-.31-.49-1.27-.08-1.69l1.02-1.03c2.16-2.18,4.3-4.29,6.33-6.59ZM145.89,11.5c-.13-.49-.28-1.11-.45-1.55l-1.29-3.45c-.44.81-.35,1.31-.17,1.83l1.13,3.18c-.33.35-.04.31.78,0ZM145.87,14.13l.91-.75c.16-.13.51-.37.44-.52l-.21-.48-.46-1.09c-.09-.2-.63.13-.75.31l-.53.81-1.18-.94c-.07,0-.3.68-.15.82l1.92,1.84ZM147.78,18.42c1.06-1.07-1.04-2.54-1.52-2.91-.09-.07-.5.41-.42.48l.34.27,1.6,2.16ZM149.69,22.71l-.73-.04.65-.9c.34.05.71.15.72-.02l.02-.65c0-.13.06-.46.08-.59.02-.08.32.02.26.03l.09.69c.02.12.51-.26.5-.38l-.13-1.81-.09-1.28c-.91.36-1.33,1.07-1.5,1.82l-.4,1.75c-.19-.32-.59-.83-.94-1.08l-.98-.69c-.09-.07-.42-.15-.53-.18s-.06.45.01.58l1.72,2.91c.1.16,1.52,2.14,1.71,1.84.08-.13.19-.56.13-.7l-.6-1.29ZM151.45,25.32l1.31-2.19c.18-.31.22-.64.17-1.2-1.23.74-2.24,2.09-2.28,3.17,0,.21.69.41.8.22ZM153.8,29.96c.17-.66.15-1.05-.02-1.48-.07-.19-.15-.49-.05-.49.07,0,.12,0,.55.03.05-.2.06-.67,0-1.27l-1.78,1.71c-.24.23-.46.87-.46,1.16s.53.9.88.88c.54-.03.43-1.08.25-1.43l.62.89ZM151.16,29.51c.35-1.3-3.79-1.54-3.72-1.04.35,1.29,1.34,2.15,2.48,2.32l-.06-.81,1.3-.46ZM154.26,35.67c.03.51-.06.27-.26-.26l2.28-2.76c-1.26-.61-3.17,1.69-2.87,2.94.09.35.96,1,1.26.83.78-.3,1.87-2.28,1.25-2.14-1.08.24-.43.12-1.66,1.39ZM150.59,35.62c-.42.96.64,1.62,1.47,1.7l-.34-1.25c-.02-.08-.02-.3-.02-.38,0-.06.26.03.29.07l.92,1.48.38-.95c-.28-2.05-3.45-1.85-4.16-1.55l-1.93.81c.32.87,2.65,2.41,3.38,1.37l-1.07-.87c-.08-.07-.41-.18-.5-.21s.18-.18.3-.18l1.28-.04ZM156.6,42.86c.22.16.96.53,1.09.38.32-.36.95-1.2,1.23-1.61l.94-1.34c.23-.32.81-.99.87-1.39.02-.17-.66-.26-.83-.21-3.03.82-3.1.02-4.32,2.03l-.67,1.1c-.2.32.19,1.39.56,1.46.27.05.98-.36,1.12-.4ZM158.52,50.3c-.29.35-.83.61-1.28.58l1.38-1.49c.36-.39.8-1.08,1.15-1.39l1.33-1.14c.16-.14.46-.33.61-.43.11-.08-.06-.7-.19-.68-.47.07-1.53.46-1.87.85l-1.65,1.96c-.21.25-1.76,2.25-1.62,2.35l1.29,1c.11.09.43.19.55.14.08-.03.33-.28.36-.36l.73-1.57c.05-.11-.25-.46-.32-.36l-.45.54ZM152.3,51.77l.78-1.44c.12-.24.88-.06,1.1.12l1.05.87c.29-.18.16-1.16-.28-1.54-.75-.64-1.58-1.13-2.5-1.2l-2.04-.14c-1.26-.09-2.58-.96-2.25-.36.06.12.22.44.32.53l1.2,1.12,1.23-.42.91.63c0,.13-.03.49-.03.47-.56-.25-1.07-.5-1.4-.39-.22.07.07.89.3.88s.66-.11,1.08-.21l.52,1.07ZM158.61,58.21c.37.34.62.59.86.65s.85-.26.86-.38l-.7-.68c0-.08.42-.38.5-.29l.37.42c.22.25,1.24.14,1.36-.18.32-.81,1.19-1.49,2.01-1.59.6-.07,1.83-1.29,1.47-1.77l-1.84.88c-1.85.88-2.25-.79-4.36-.09-.5.17-.87.94-1.02,1.44-.57,1.83-.86.8-.39,2.12l.88-.54ZM156.07,59.52c-.19-1.09.74-.8.69-1.3-.02-.14-.2-.5-.32-.59-2.98-2.33-2.88-.22-6.03-1.25-.26-.08-.93-.07-1.11.13s-.31.67-.41,1.08c.66.42,1.07.72,1.59.99l2.09,1.11.89.02c.64.56,1.46.4,1.96-.19h.67ZM160.05,59.27s-.54-.14-.67-.12l-1.5.2c-.23.03-.3.59-.22.81.18.53,2.13-.06,2.39-.89ZM160.89,69.31l1.06-1.74c1.97-3.24,3.99-2.38,7.36-4.45-.8-1.11-.7-.3-2.99-.6-.69-.09-1.43.08-2,.41l-1.42.81c-.69.4-1.45.76-2.18,1.12-.59-.14-1.21.07-1.5.51l-1.23,1.88.8.37c-.22.57-.41,1.48-.18,1.87.56.93,1.8.59,2.27-.19ZM153.48,69.71l1.43-.13c.11-.18-.29-.9-.5-1.03l2.05-.77c-.29-1.39-1.39-1.82-2.51-2.01-4.01-.69-3.35-.89-6.51-2.67-.2-.12-.42.57-.3.77l1.45,2.48.93-.58c.08-.05.35.31.26.36l-.45.23c-.12.06-.43.35-.35.45l.29.34,1.24,1.5c.19.23.79.62,1.08.56l1.37-.27c.07.15.35.79.51.77ZM158.05,72.18c-.36-2.45.53-1.53-.06-3.3l-.16-.49c-.03-.1-.31.11-.42.12s.24.44.24.54l.02,3.91c0,.61.26,1.14.7,1.5l-.33-2.28ZM163.47,77.14c.46-.22,3.74-1.81,3.24-2.48l-2.37-.04.68-.56,1.34-.88-.69,1.08,1.56.16c.39-.47.88-1.04,1.24-1.56.82-1.19,1.62-4.95.43-2.73l-.33.61c-.48.9-1.31,1.92-1.27,2.03l.15.44c-.32.04-1.07-.34-.84-.53.44-.36.78-.83.57-1.19l-2.08.92c-1.16.51-3.09.28-4.4.84l-1.61,3.3c-.12.25-.04.93.05.98l1.04-.86c.18.5,3.04.58,3.29.46ZM150.87,85.47l.86.68,1.09-.91c.1.17.24.43.23.42l-1.17.66c2.34,3.21,2.89.84,5.3,1.54l-.21-1.19-1.2.44c-.09.03-.39-.31-.3-.34l.45-.16,1.14-.41c.29-.14.21-1.12-.02-1.4-.63-.78-2.61-.66-3.3-1.16-2.09-1.55-3.05-2.67-4.68-4.46-.6-.66-1.28-1.33-1.56-2.16l-.66-1.95c-1.3,1.96-.18,1.43-1.33,3.26-.88-.22-1.39-.29-2.43-.39-.08.97,1,1.14,1.69,1.18.09.28.45.83.77,1.06.76-.25-.35-1.39.78-1.88-.16.77-.33,1.46-.1,1.91.44.87.8,1.91,1.38,2.52l1.45,1.51c.2-.02.88-.73.66-.97-.35-.39-.82-.83-.78-1.31,1.89,1.65,1.03,1.49,2.97,3.02.11.08-.07.47-.11.45-.3-.31-.77-.88-1.02-.76s-.52.36-.43.43l.5.39ZM158.6,80.07l.02-3.1c0-.37-.45-.96-.9-.86l-.25,3.97c-.01.21.41.7.58.76s.54-.56.55-.77ZM154.67,81.27c.3.38.71.83.98.87.75.1,1.78-1.39,1.52-2.12-.16-.46-.2-.67-.07-1.12.16-.57.21-1.58-.05-2.11-.2-.39-1.33-.76-1.75-.65-2.53.65-3.15,1.65-6.07,2.45l.88,1.26c.32.46,1.32,1.25,1.78,1.57.21.15.91-.48.98-.59.1.29.54,1,.83.87l.96-.43ZM162.54,77.52l-2.25-.15c-.75-.05-1.64.86-1.31,1.63.15.36,1.05.74,1.43.69s.99-.45,1.24-.83l.89-1.34ZM157.81,90.31c.55-.68.74-.96.75-1.19l.05-2.77v-3.09c0-.72-.18-1.39-.46-2.26-.55.43-.65.91-.65,1.54v1.71c0,.4.25,1.1.41,1.52-.32.9-.49,1.98-.35,3.01l.24,1.52ZM157.3,82.2c-1.34.32-2.43.43-3.54,0-.12-.05-.65-.16-.61-.03.21.77.38.88,1.48,1.27l2.55.91.13-2.14ZM166.07,86.88c.17.09.81.39.99.31l2.42-1.19c.8-.39,3.59-2.4,3.24-2.79-.21-.23-.44-.39-.44-.54v-.69s-2.38.39-2.38.39c-5.44.88-4.24-3.08-10.14,3.19-.51.19-.84.69-.8,1.28.03.39.09.99.31,1.09l1.37.63c.59.27,1.13.19,1.63-.19,2.02-1.51,1.21-.12,2.08-1.39.02.02.62.46.85.34l.87-.46ZM145.7,109.96h-2.19c-.15.05.28.53.43.62l1.18.68c.78.45,2.21.32,3.2.22l1.91-.2.32.29c.06.05.02.16-.06.16h-.49s-2.49.09-2.49.09c.36.67,1.07,1.02,1.57.77l.57-.29c.1-.05.07.32,0,.4-.1.1-.42.39-.37.5l.64,1.32c.1.2.76.23.96.25l-.18.54c-.3.9,2.71.63,2.55.63l1.59-.03c-.14-.62.03-1.38.58-1.5l-.15,1.6.82.16.54-1.83.29-2.21c.31-2.34,1.01-4.67.68-6.99.11-.19.51-.77.51-1.02l.05-2.11.04-6.26c.01-1.94-.03-3.71-.16-5.79-.69,1.39-.21,2.54-.51,3.83-.32,1.38-.21,2.74-.14,4.14.05,1.02-.14,5.61-.35,6.74l-.23,1.2c-.22,1.15-.1,2.35-.26,3.47l-.32,2.24c-.11.75-.25,1.47-.44,2.26-.19.42-.46.59-.44.04l-.69-1.62c-.32-.74-.72-1.86-1.57-2.11l-1.69-.49c-1.03-.3-1.8-.81-2.71-1.33l-1.73-.98c-1.12-.64-2.96-.92-3.21-.54l-.52.8-1.2-.18.94-.3c.14-.05.02-.67-.12-.65l-1.97.19c-.54.05-1.27.2-1.64.3-.14.04-.3.64-.17.69l.61.22c.55.19,1.57.39,1.93.73l1.2,1.13,2.86-.15,2.35-.12c.51-.09.3.28-.04.45h-2.26ZM156.64,97.74c.28-.09.62-.25.58-.41s-.19-.61-.28-.53l-.54.37c-.08.05-.35-.18-.39-.27-.08-.17-.29-.66-.25-.56l1.1.45-.54-.9.55-.49c.3-.27-.71-.7-1.02-2.22s-1.53-1.66-2.73-1.67c-1.78-.01-3.11.37-4.58,1.32l-2.43.94c.4,1.06,1.1,1.62,2.03,1.93l.42.59,1.33-.13c-.03-.3-.06-.66-.05-.54.69.15,1.29.17,1.8.11,2.09,1.82,2.54.71,3.74,1.57.38.27.9.54,1.24.44ZM168.81,96.29c2.12-.7,2.18-.05,3.86-1.25l.51-.36c.11-.08-.28-.36-.41-.4l-1.23-.4-1.54-.5-4.31-1.42c-.63-.21-1.25-.25-1.9-.08-.47.12-1.25.28-1.54.52l-1.59,1.31c-.49.41-.95.76-1.5,1.15-.4.28-1,1.4-.44,1.71,1.06.59,2.3.65,3.37.58.53-.9,1.41-.98,2.31-.84,3.26.49,2.38.66,4.4,0ZM144.42,96.33l-.16-2.06-1.56.56c-.19.07-.61.5-.45.57l.56.24,1.61.69ZM156.74,98.55c-3.7.44-3.45-2.85-7.53-1.67.72,1.28,4.46,2.84,5.6,3.31.47.19.93.55,1.4.99l.63.02-.09-2.65ZM172.82,105.15c-.14-.36-.88-.33-1.25-.19l-.62-.66c-.16-.17-.71-.23-.89-.09-.19.15-.56.48-.69.38l-.38-.29.76-.61c-.77-.26-1.32.33-1.61.89-.32-.42-.69-.79-1.52-1.16-.39.94,1.58,1.66,1.14,2.21l-1.37-1.35-1.06-1.04.79.06c.52.04,1.01.11,1.54.36.11.15.56.05,1.06-.17-.07-.07-.54-.41-.75-.54l-1.48-.96c-.45-.29-1.25-1.13-1.77-1.16-2.64-.11-2.45.02-4.33,1.17l-1.06.65c-.39.24-.77.71-.81,1.14l-.11,1.13,2.2,1.18.39-.98.81.18c.18.04.47-.48.36-.61l-1.01-1.21c.9-.43,2.16-.27,2.3.93l-1.16-1.02c-.24.2-.56.46-.47.38l.81,1.23,2.21.96c1.07.47,2.3.52,3.48.25,3.03-.7.47.31,3.59-.61.24-.07.99-.25.91-.47ZM156.24,105.03c.12-.08.54-.37.47-.32-.27-.31-.39-.45-.38-.44s.11-.11.33-.36l-.16-.47c-2.26,1.56-1.6-.37-3.19.73.13.2.54.46.74.49l2.19.36ZM170.41,115.16c1.08-.06,1.98,0,2.78-.9l-1.63-.22c-.33-.04-1,.27-1.37.45-.07,0-.27-.45-.13-.53l.93-.53c-1.19-1.3-2.27-1.87-3.89-2.19l-1.87-.37c-1.24-.25-2.68-1.39-3.82-.64l-2.48,1.64c-2.5,1.66-1.41,1.29-1.76,2.41-.1.31-.65,1.13-.4,1.33l1.46,1.21,1.9-1.08c.29-.17.92-.5,1.21-.59l1.95-.02c.76.55,1.56.86,2.45.9,1.98.1,1.92-.71,4.7-.86ZM151.45,139.96l.51-1.37c.22-.59.28-1.34.24-2.05,1.32-3.21.64-3.28,1.28-6.42l.51-2.5.38-1.87c.14-.66.24-1.34.4-1.96l.49-1.92.48-1.93c.18-.74.24-2.26.34-2.98.21-1.52-.9-.43-1.41,2.71l-.4,2.41c-.12.76-.31,1.53-.49,2.31-.61,2.61.36-.39-.48,2.85-.14.55-.25,1.08-.33,1.65l-.26,1.76-.39,2.4-.27,1.87c-.07.52-.16.98-.26,1.46l-.23,1.12c-.29.85-.66,1.51-.13,2.48ZM148.01,126.63l1.53-.64-.34.91,1.19.29c.93.23,1.7.36,2.77.38l-.13-2.23c-.03-.47-.7-1.3-.76-1.76-.13-1.01-.41-2.26-1.57-2.47-.37-.07-1.23-.03-1.62-.05l-3.38-1.43-1.31-.17c-.79-.1-2.05-.53-2.9-.19l-.8.24c.38-.81.22-.9-.27-.61-.2.18-.5.51-.57.39-.04-.08-.24-.48-.32-.52l-2.02-.77-1.75-.67c-.22.02,0,.67.16.87l2.02,2.33,1.53-.33-.79.7c1.59.5,3.06-.12,4.44.25l1.61.44c-.64.23-1.26.25-1.88.12l-1.75-.38c-.13-.03-.5,0-.63,0s-.13.47-.02.53l1.68.81c.32.15,1.18-.11,1.67-.25.48.16.71.41-.08.26-.21.21-.41.43-.44.46l2.75,1.09c.23.09.47.46.66.71l1.3,1.67ZM165.07,126.51c.35.12,1.23.02,1.58-.04,1.03.47,2.19.16,3.19-.46l2.31-1.45c-.24-.17-.58-.34-.74-.3l-.91.24c-1.17-1.38-2.99-1.14-4.87-1.36-1.69-.2-1.64-.73-4.47-.02-.94.24-2.1-.19-4.14,1.46l-1.64,1.32c.79.58,1.62,0,2.36-.19.61.16,1.5.47,2.21.32,3.14-.65,2.41.88,4.51-.22-.03-.05.43.65.6.71ZM152.35,130.33l.35-1.82c-1.62-.94-3.83-.63-5.07-1.81l-2.25-2.14c-.35-.34-1.39-.59-1.86-.73l-1.28-.39-.53-.16c-1.11-.34,1.25,2.24,1.38,2.37l3.76,3.54c.37.35,2.33,1.97,2.93,1.87.78.27,1.42.56,2.24.97l.32-1.69ZM150.22,135.21l-.13-.78.92-.07-.2.59c-.05.13.11.47.23.42.93-.34.6-1.24.48-1.83-.28-1.33-.93-1.95-2.26-2.15-.96-.15-3.17-2.12-3.92-2.88l-2.5-2.53c-.48-.49-.98-1.07-1.46-1.48-.13.13-.22.65-.12.8l.74,1.02c-.14.17-.41.46-.36.56l.71,1.38c0,.74.72,2.81,1.24,3.4.83.97,2.1,1.84,3.35,1.46l1.97-.59c-.61,1.03-1.11.61-2.3.89l1.25,1.24c.61.61,1.61.8,2.36.56ZM157.32,126.53l-1.33.16c-.3-.31-1.34-.33-1.52.26-.1.31.42,1.01.73,1.02.26,0,.85-.09,1.1-.18l1.02-1.26ZM141.38,154.3l1.73-.19-1.06.6c-.08,0,.54.19.73.2l2.46.14c-.07,1.35-1.03,4.43-1.35,5.21l-.78,1.86c-.25.6-.52,1.22-.83,1.78l-1.02,1.83-1.48,2.91-1.03,2.12-1.7,3.74-.67,1.48-1.18,2.54c-.46.99-1.07,1.92-1.58,2.89l-1.41,2.66c-.25.47-.64.95.12,1.37l2-3.92c.15-.29.34-1.07.53-1.32l1.06-1.36c.45-.58.77-1.19,1.1-1.86l1.58-3.17,1.52-3.53,1.34-2.74,1.41-2.9c.48-.99.91-2,1.32-3.03l1.02-2.58.97-2.37.61-1.5.5-1.26c.34-.84.68-1.72.95-2.59l1.11-3.5.43-1.5c.18-.61.38-1.26.51-1.85l.44-2.01-.27-.4-.63,1.65-.28,1.39-.45-2.09c-.36-1.66.38-2.79-1.49-3.44l-2.55-.87c-1.53-.53-2.41-1.33-3.38-2.46l-2.25-2.58c-.74-.86-1.29-2.07-1.85-3.16-.49-.96-.66-3.33-.92-2.41-.24.86-.22,2.34-.16,3.37l.09,1.47c.02.36.54,1.09.69,1.24l.85-.47-.9-.97c-.06-.06.34-.38.39-.29l.23.41.48.86c.05.09.44.38.27.25l-1.22.51.91.83c.15.13.64-.23.88-.35l.8,1.05,2.88,3.19-1.18.21.71,2.08c.21.62.85,1.07,1.53,1.26,2.03.55,1.56.65,3.5.33l-.88.67c.37.36,1.17.77,1.68.89l.11.98c.48.03.53.06.51-.02l-.22-.58c-.1-.11.73-.05.7.16-.04.31-.18.98-.28,1.22l-1.67,3.85-.66,1.53c-.22.52-.29,1.54-.62,1.9l-.8.86c.6-1.62.9-1.83.39-3.82-.1-.39-.75-1.18-1.14-1.26-.44-.09-1.27-.03-1.64-.15-1.76-.58-1.52-3.14-4.73-5.02l-3.01-1.76-.61-.36c-.02-.35-.02-.37-.04-.51s-.47-.46-.53-.33c-.07.16-.25.61-.21.75l.36,1.22c.2.66.55,1.31.88,1.81-.74.55-.28,1.56,0,2.48s.82,1.69,1.46,2.5c1.36,1.73,2.9.37,3.2.71l.28.32-1.18.18,1.28,2.17c.18.31.98.86,1.33.83ZM163.07,136.79c.22.02.76-.14.88-.19.99.69,3.4.57,4.5-.27l-1.51-.89-.23.86-.86-.87.85-.44-1.14-.79c-1.57-1.09-2.49-1.81-4.27-1.87-1.56-.06-2.9.17-4.19.99-2.3,1.47-2.75.51-4.35,2.42-.21.25-.36.99-.17,1.22.48.58.85-.15,2.78.47.24.08.63.27.71.13l.36-.64,2.19-.88,1.01.33.3-.74c.39.52,1.07.98,1.78,1.04l1.36.11ZM168.09,144.44l-.29-.68.73.2,1.19-1.28-.9-.13c-3.8,1.92-5.05,1.88-9.08,1.97-1.47.03-2.7-1.1-3.15-2.35-1.48.05-2.91,1.02-4.1,1.84l-1.64,1.12.99-.05,1.31-.07c-1.15,1.03-3.39.16-2.99,1.4.3.94,1.91-.63,3.12.77.74.85,1.67.95,2.74.94l6.06-.05c4.06-.03,6.19-3.27,6.03-3.64ZM162.11,158.4l1.18,1.12,1.33,1.26c.26.25.63-.18.46-.48-.62-1.09-1.33-1.47-2.43-1.86l1.09-.41c-.05-1.44-3.09-4.26-4.4-5.18-1.09-.77-3.44-.91-4.23-.69l-1.29.36-2.43.11-.49-1.17-2.14,1.35c-.27.17-.82.59-.99.84s-.09.84-.14,1.14c-.37.35-.75,1.28-.37,1.4,2.42.82,1.83,1.16,2.79.93l1.45-.35c.24-.06.74-.34.81-.4.33.34.84.55,1.33.53.36.07.88.21,1.21.26l2.73.39c2.74.39,2.49.56,4.54.84ZM136.31,161.7l1.08-.32-.32-1.16c1.06,1.24,2.36,3.23,2.94,4.49l-1.22.44c.36.3.99.47,1.28.3,1.03-.61.4-1.42.34-2.09l-.27-2.95c-.12-1.36-1.95-2.28-2.99-2.65l-3.74-1.32c-.5-.18-1.08-.51-1.57-.79-2.58-1.46-1.59-1.15-3.35-2.52-.08-.06-.26.42-.22.52l.72,1.87c.43,1.12.81,2.03,1.3,3.14.11.24,1.85,2.47,2.56,2.45l1.1-.02-.77.39,2.03,1.19.94.52c1.92,1.07,2.03,2.06,3.43,1.2-.51-.74-1.02-2.03-1.92-1.82-.64.03-.59-.15.2-.34.06.08.16-.57,0-.56h-.56s-1,.03-1,.03ZM151.49,169.44c2.66,1.26,2.83,1.07,5.01,1.07.93,0,1.79.03,2.75-.31.28-.1.74-.18.79-.38l.14-.58c.16.2.65.68.77.52l.43-.62c-2.4-1.81-2.37-1.17-4.85-3.16-1.29-1.03-1.4-.19-3.48-.77-3.41-.96-3.26-3.01-4.53-2.46l-1.14.49c-1.89.82-1.79,1.63-3.65,2.17-.33.09-.59.22-.87.54l1.64.06c.09,0,.43-.14.48-.07l.26.39-1.37.02c-.23,0-.74-.25-1.17-.38l-.74,1.82,1.75.13.88.89c.26.27,1.16-.17,1.56-.27,2.66-.71,3.28-.07,5.37.92ZM128.25,170.42c-.63-.02-1.17,0-1.95.02.22.85,1.3.6,1.7.9l1.94,1.44s.04.52.15.52l1.17.02-.24.56c-.19.46,1.62,1.41,3.18.52l.76.45c.19.11.69-.29.63-.49l-.2-.75c-.64-2.39-.29-4.75-3.33-5.52l-2.16-.55c-.92-.24-3.49-1.34-4.56-1.85-2.55-1.21-1.64-1.77-3.12-1.43-.03-.1-.41-.7-.59-.63-.23.08-.18.79-.08,1.03.95,2.24,1.86,4.45,4.16,5.64l2.68-.23,1.48-.15c.24.12.86.5,1.1.74l.99.97c.26.26.61.82.85,1.19.01.33-.1.63-.23.37l-.31-.53c-.04-.07-.11-.01-.61.1l-.05-.34.51-.57-2.84-.09.48-.35,1.31-.03-.78-.9-2.07-.06ZM151.43,182.89c1.86.16,4.48.32,5.88-.58l1.8-1.17-2.53-.23c-.79-.07-1.71-.29-2.5-.48l-1.58-.39-.64-.28c-4-1.74-3.69-1.85-6.34-5.39-1.01-1.35-3.02.24-3.67.5l-3.64,1.46c-.32.13-.63.28-.82.39-.14.09.21.69.39.65,1.52-.31,1.97.81,3.17,2.12.45.49,1.99.08,3.73.84,1.14.49,2.13.97,3.3,1.35l2.33.76.72-.61.4,1.05ZM127.9,182.18l.45-.54-1.2-.46c.32-.06,1.02-.11,1.34-.04.57.69,1.31,1.83,1.54,2.66l.42,1.49-.34.91c.8-.14,1.05-.74,1.02-1.37l-.08-2c-.05-1.23-.77-3.37-2-3.97l-1.36-.67c-2.31,0-2.54-.08-4.7-.75-.5-.15-1.4-.14-1.99-.28l-3.06-.73c-.14-.03-.49-.22-.61-.3l-.37-.24c-.08-.05-.16.47-.11.55l.9,1.61c.32.58.6,1.03.95,1.54l.81,1.19c1.32-.07,2.67-.14,3.89.05l-3.56.21,1.02.86c.92-.52,1.89-.43,2.77.1.55.12.7.25.1.19l-2.48-.34c.61,1.31,1.45.94,2.28,1.23s1.63.37,2.32-.06c-.61-.39-.6-.46-.11-.41.89.42,2.73.67,3.58-.03l-1.41-.42ZM145.75,190.95l1.35.91c.65.43,1.35.23,1.9-.48.72.66,1.5,1.68,1.82,2.52-.13.23-.46.67-.32.79l.53.46.8-1.2-.87-1.65-1.26-2.58c-1.11-2.27-1.96-1.98-4.85-3.15-2.13-.86-4.04-1.86-5.93-3.23-.38-.28-1.38-.73-1.69-.41l-1.63,1.68c-.6.62-1.75.83-2.74,1.24.43.13,1.29.38,1.75.36l2-.07c.54-.02,1.24.39,1.36.79-.75-.24-1.32-.47-1.86-.47h-2.84c-.2-.01-.78-.46-.9-.31l-.54.65c-.09.1-.14.41-.16.53-.09.63,1.89-.61,2.6-.25l1.41.72c1.47,2.35,3.34,1.09,6.47,1.61.37.06,2.85,1.02,3.6,1.53ZM105.95,222.91l-2.57,2.47c-.27.26-.33,1.01-.05,1.16.23.13.85.03,1.09-.16,2.84-2.32,5.08-4.98,7.38-7.8,1.13-1.39,2.21-2.73,3.25-4.19l1.11-1.55,1-1.41c.95-1.34,1.89-2.61,2.7-4.04l.97-1.7c.29-.52.69-1.1.94-1.62.46-.96.86-1.84,1.37-2.74l.87-1.54.86-1.52,1.03-1.82,3.46-6.22c.69-1.24,2.46-3.21,1.5-3.67l-1.13,1.77-.76,1.16c-1.19,1.83-2.22,3.67-3.32,5.57l-1.31,2.28c-.28.49-.54,1.09-.83,1.53l-.97,1.45c-.27.41-.56.9-.81,1.34l-1.31,2.3-1.79,3-1.68,2.64c-.24.38-.5.77-.76,1.13l-2.02,2.81c-.38.53-.84,1.11-1.27,1.62l-3.02,3.68c-.87,1.06-1.67,2.14-2.73,3.03l-1.22,1.02ZM122.46,193.39c.67.98,1.24,1.69,2.2,2.44l.08-4.09c.02-.85-.3-1.35-.94-1.88-2.12-1.74-2.72-2.06-5.44-2.61-3.3-.66-1.77.49-5.26.03-1.06-.14-1.9-.16-2.88-.15-.51,0-1.21-.32-1.77-.03l2.86,2.12c1.75,1.3,2.17,3.31,4.54,4.11l1.34.45c.58.19,1.61.06,2.33.21,1.84.37,2.03.87,3.08.62.08-.02.14-.92-1.8-.93-.28.07.09-.07.39-.17l1.26-.12ZM137.9,199.45c.06-.3-.71.09-1.04.41,0,.01.03-.27.07-.6.15-.31.6-.79.87-.61.99.68,2.25,1.66,2.89,2.6l1.33,1.95c-.56.48-.74,1.25-.21,1.78.44.45.59.94.91,1.61.22.47,2.09,2.73,2.13,1.77.15-3.56-1.54-6.35-3.02-9.57-.46-.99-1.16-1.64-2.21-2.01l-2.46-.85c-1.47-.51-2.74-1.26-3.86-2.41-.99-1.01-2.15,1.49-4.9,2.48l-1.94.7c-.22.08-.57.89-.32.85l1.06-.16c.28-.04.73-.31,1.03-.59.36-.34.39.3,2.13,1.49.8.54,1.71.98,2.52,1.26l.25-1.11.08,1.26,4.77,2.16c.17.08.78,0,.72-.13l-.23-.43.84-1.46c-.52-.12-.93.13-1.15.44l-.55.78.32-1.61ZM153.16,196.85l-1.1-.87.12-.93c-.44.09-.87.24-1.2.43l1.4,1.75c.09.11.44.24.58.29.09.03.27-.6.19-.66ZM141.1,204.08l.3-1.42-.99-.05c.03-.68-.09-1.19-.44-1.64l-.51-.66-.85,1.78c-.07.16.53.64.62.49l.31-.48c.11.53.31,1.12.6,1.33l.94.66Z"/>
  <path class="cls-1" d="M141.38,154.3c-.36.04-1.15-.52-1.33-.83l-1.28-2.17,1.18-.18-.28-.32c-.3-.34-1.83,1.01-3.2-.71-.64-.81-1.16-1.53-1.46-2.5s-.75-1.93,0-2.48c-.34-.5-.69-1.15-.88-1.81l-.36-1.22c-.04-.14.14-.59.21-.75.06-.13.5.19.53.33s.02.16.04.51l.61.36,3.01,1.76c3.21,1.88,2.97,4.44,4.73,5.02.36.12,1.19.06,1.64.15.39.08,1.04.88,1.14,1.26.52,1.99.22,2.19-.39,3.82l.8-.86c.33-.35.4-1.38.62-1.9l.66-1.53,1.67-3.85c.1-.23.24-.91.28-1.22.03-.21-.8-.27-.7-.16l.22.58c.03.08-.03.05-.51.02l-.11-.98c-.51-.12-1.31-.53-1.68-.89l.88-.67c-1.95.32-1.47.22-3.5-.33-.68-.18-1.32-.63-1.53-1.26l-.71-2.08,1.18-.21-2.88-3.19-.8-1.05c-.24.12-.73.48-.88.35l-.91-.83,1.22-.51c.16.14-.22-.15-.27-.25l-.48-.86-.23-.41c-.05-.09-.45.23-.39.29l.9.97-.85.47c-.15-.15-.67-.88-.69-1.24l-.09-1.47c-.06-1.03-.08-2.51.16-3.37.26-.92.43,1.45.92,2.41.56,1.09,1.1,2.31,1.85,3.16l2.25,2.58c.98,1.12,1.85,1.93,3.38,2.46l2.55.87c1.88.64,1.13,1.78,1.49,3.44l.45,2.09.28-1.39.63-1.65.27.4-.44,2.01c-.13.58-.33,1.24-.51,1.85l-.43,1.5-1.11,3.5c-.28.87-.61,1.74-.95,2.59l-.5,1.26-.61,1.5-.97,2.37-1.02,2.58c-.41,1.03-.83,2.04-1.32,3.03l-1.41,2.9-1.34,2.74-1.52,3.53-1.58,3.17c-.33.66-.65,1.28-1.1,1.86l-1.06,1.36c-.19.25-.38,1.02-.53,1.32l-2,3.92c-.77-.42-.37-.89-.12-1.37l1.41-2.66c.52-.97,1.13-1.91,1.58-2.89l1.18-2.54.67-1.48,1.7-3.74,1.03-2.12,1.48-2.91,1.02-1.83c.32-.57.58-1.18.83-1.78l.78-1.86c.33-.78,1.28-3.86,1.35-5.21l-2.46-.14c-.2-.01-.82-.2-.73-.2l1.06-.6-1.73.19ZM146.18,141.47l-.31-.48c-.24-.17-.46-.33-.43-.31-.5.51-.92.72-1.35.65l-.78-.13c-.09-.02-.18.23-.27.43l3.15-.16Z"/>
  <path class="cls-1" d="M145.7,109.96h2.26c.34-.17.55-.55.04-.46l-2.35.12-2.86.15-1.2-1.13c-.36-.34-1.38-.54-1.93-.73l-.61-.22c-.13-.05.03-.65.17-.69.37-.11,1.1-.25,1.64-.3l1.97-.19c.14-.01.27.6.12.65l-.94.3,1.2.18.52-.8c.24-.38,2.09-.09,3.21.54l1.73.98c.91.51,1.67,1.03,2.71,1.33l1.69.49c.85.24,1.25,1.37,1.57,2.11l.69,1.62c-.02.55.25.38.44-.04.18-.8.33-1.52.44-2.26l.32-2.24c.16-1.11.04-2.32.26-3.47l.23-1.2c.21-1.14.4-5.72.35-6.74-.07-1.4-.18-2.76.14-4.14.3-1.29-.17-2.44.51-3.83.13,2.08.18,3.84.16,5.79l-.04,6.26-.05,2.11c0,.25-.4.83-.51,1.02.33,2.31-.37,4.64-.68,6.99l-.29,2.21-.54,1.83-.82-.16.15-1.6c-.55.12-.72.88-.58,1.5l-1.59.03c.16,0-2.84.26-2.55-.63l.18-.54c-.2-.02-.86-.05-.96-.25l-.64-1.32c-.05-.11.27-.4.37-.5.07-.08.1-.45,0-.4l-.57.29c-.49.25-1.21-.1-1.57-.77l2.49-.08h.49c.08-.01.12-.12.06-.17l-.32-.29-1.91.2c-.99.1-2.42.23-3.2-.22l-1.18-.68c-.16-.09-.58-.57-.43-.61h2.19Z"/>
  <path class="cls-1" d="M137.9,199.45l-.32,1.61.55-.78c.21-.3.63-.55,1.15-.44l-.84,1.46.23.43c.07.13-.55.2-.72.13l-4.77-2.16-.08-1.26-.25,1.11c-.8-.28-1.72-.72-2.52-1.26-1.74-1.19-1.77-1.84-2.13-1.49-.29.28-.75.55-1.03.59l-1.06.16c-.25.04.11-.77.32-.85l1.94-.7c2.75-.99,3.91-3.5,4.9-2.48,1.12,1.15,2.39,1.9,3.86,2.41l2.46.85c1.05.37,1.76,1.01,2.21,2.01,1.48,3.22,3.17,6.01,3.02,9.57-.04.95-1.91-1.31-2.13-1.77-.32-.67-.46-1.16-.91-1.61-.52-.53-.34-1.3.21-1.78l-1.33-1.95c-.64-.94-1.9-1.91-2.89-2.6-.27-.18-.72.3-.87.61-.04.33-.07.62-.07.6.33-.32,1.1-.71,1.04-.41ZM134.94,198.43l.25-1.16-.96-.73-.88.87.97-.37.62,1.38Z"/>
  <path class="cls-1" d="M122.46,193.39l-1.26.12c-.3.1-.67.24-.39.17,1.94.02,1.88.91,1.8.93-1.05.25-1.24-.25-3.08-.62-.72-.14-1.75-.01-2.33-.21l-1.34-.45c-2.37-.8-2.79-2.81-4.54-4.11l-2.86-2.12c.56-.29,1.26.03,1.77.03.98,0,1.82.01,2.88.15,3.48.46,1.96-.69,5.26-.03,2.71.54,3.31.86,5.44,2.61.64.53.96,1.03.94,1.88l-.08,4.09c-.96-.75-1.53-1.46-2.2-2.44ZM115.46,188.67l-.9-.54-1.39-.13c.06-.14-.25.25-.15.29l.48.17c.62.22,1.23.28,1.96.21ZM121.73,191.62l-.41-.44h-2.11c-.47.33-.44.36-.04.25l2.56.19Z"/>
  <path class="cls-1" d="M151.43,182.89l-.4-1.05-.72.61-2.33-.76c-1.17-.38-2.16-.86-3.3-1.35-1.75-.76-3.28-.35-3.73-.84-1.2-1.31-1.65-2.44-3.17-2.12-.17.04-.53-.56-.39-.65.19-.12.49-.26.82-.39l3.64-1.46c.65-.26,2.66-1.86,3.67-.5,2.65,3.54,2.34,3.65,6.34,5.39l.64.28,1.58.39c.79.2,1.71.41,2.5.48l2.53.23-1.8,1.17c-1.4.91-4.02.75-5.88.58ZM146.91,179.6l.53-1.09-1.7-1.11.93,1.6.24.59Z"/>
  <path class="cls-1" d="M151.49,169.44c-2.09-.99-2.71-1.63-5.37-.92-.4.11-1.29.54-1.56.27l-.88-.89-1.75-.13.74-1.82c.43.14.95.39,1.17.38l1.37-.02-.26-.39c-.05-.07-.38.07-.48.07l-1.64-.06c.28-.32.54-.44.87-.54,1.86-.53,1.76-1.35,3.65-2.17l1.14-.49c1.27-.55,1.11,1.5,4.53,2.46,2.08.58,2.19-.26,3.48.77,2.48,1.99,2.45,1.35,4.85,3.16l-.43.62c-.11.16-.61-.32-.77-.52l-.14.58c-.05.2-.51.28-.79.38-.96.33-1.82.3-2.75.31-2.18,0-2.35.19-5.01-1.07ZM149.2,165.24l1.29.8c.17.5.15.12.1-.33-.29-.3-.68-.66-.96-.68-.33-.03-.79.26-1.17.54l.73.79v-1.11ZM153.54,166.57l.69.99c.25-.78-.08-1.13-.7-1.43-.29-.14-.83-.03-1.2.12-.12-.13-.34-.57-.57-.59s-.72-.05-.72-.05c1.34.76,2.05,2.25,2.85,2.61l-1.21-1.75.87.1ZM158.3,168.48c-.86.28-.86-1.13-1.19-.75l-.23.27,1.22,1.27,1.05-.99-.85.19Z"/>
  <path class="cls-1" d="M162.11,158.4c-2.04-.28-1.79-.45-4.54-.84l-2.73-.39c-.34-.05-.85-.19-1.21-.26-.49.02-1-.19-1.33-.53-.07.07-.57.34-.81.4l-1.45.35c-.96.23-.36-.11-2.79-.93-.38-.13,0-1.06.37-1.4.05-.3-.02-.89.14-1.14s.72-.67.99-.84l2.14-1.35.49,1.17,2.43-.11,1.29-.36c.79-.22,3.14-.07,4.23.69,1.31.92,4.35,3.73,4.4,5.18l-1.09.41c1.1.39,1.82.77,2.43,1.86.17.3-.19.72-.46.48l-1.33-1.26-1.18-1.12ZM158.78,155.14l-1.03-.34c-.3-.1-.6-.16-1.22-.3l-.32.42c.93-.04,1.62.2,2.07.8l.49-.58ZM161.71,157.65c.2,0,.6.02.55-.08s-.16-.35-.25-.41l-1.1-.79-1.6-1.15-.41.4c.6.22.87.33,1.18.6l1.63,1.42Z"/>
  <path class="cls-1" d="M145.75,190.95c-.76-.51-3.23-1.47-3.6-1.53-3.13-.52-4.99.74-6.47-1.61l-1.41-.72c-.71-.36-2.69.87-2.6.25.02-.12.07-.43.16-.53l.54-.65c.12-.15.7.3.9.3h2.84c.53.01,1.11.24,1.86.48-.13-.4-.82-.81-1.36-.79l-2,.07c-.46.02-1.31-.23-1.75-.36.99-.41,2.14-.62,2.74-1.24l1.63-1.68c.31-.32,1.31.14,1.69.41,1.89,1.37,3.8,2.37,5.93,3.23,2.89,1.17,3.75.88,4.85,3.15l1.26,2.58.87,1.65-.8,1.2-.53-.46c-.13-.12.19-.56.32-.79-.32-.84-1.09-1.86-1.82-2.52-.55.71-1.26.92-1.9.48l-1.35-.91ZM147.96,190.94c.07.07.36.23.41.17s.16-.19.22-.26c.06-.06-.17-.15-.25-.23l-1.16-1.09c-.31-.29-.79-.67-1.15-.92l-1.83-1.26c-.25-.17-.68-.1-1.38,0l.39-.67-.83.04c-.37.02.39.65.33.99l-.11.68,1.12-.95,1.09.83c.57.43,1.18.82,1.78,1.18l-.49.64.83-.23,1.02,1.08Z"/>
  <path class="cls-1" d="M168.09,144.44c.16.37-1.98,3.61-6.03,3.64l-6.06.05c-1.07,0-1.99-.09-2.74-.94-1.21-1.39-2.82.18-3.12-.77-.39-1.24,1.85-.36,2.99-1.4l-1.31.07-.99.05,1.64-1.12c1.19-.82,2.62-1.79,4.1-1.84.45,1.25,1.69,2.38,3.15,2.35,4.03-.09,5.28-.05,9.08-1.97l.9.13-1.19,1.28-.73-.2.29.68ZM160.21,146.17c.65.31.92.29,1.43-.06.45.03.37-.04-.03-.27l-3.99.07c-.44.49-.54.67.17.19.48.18,1.01.54,1.46.93l.96-.87Z"/>
  <path class="cls-1" d="M148.01,126.63l-1.3-1.67c-.19-.25-.43-.61-.66-.71l-2.75-1.09s.24-.25.44-.46c.8.15.57-.1.08-.26-.49.14-1.35.4-1.67.25l-1.68-.81c-.11-.05-.11-.52.02-.53s.5-.03.63,0l1.75.38c.62.13,1.24.11,1.88-.12l-1.61-.44c-1.38-.38-2.85.24-4.44-.25l.79-.7-1.53.33-2.02-2.33c-.17-.19-.38-.84-.16-.87l1.75.67,2.02.77c.08.03.28.44.32.52.06.12.36-.22.57-.39.49-.28.65-.2.27.61l.8-.24c.84-.33,2.11.09,2.9.19l1.31.17,3.38,1.43c.39.02,1.25-.02,1.62.05,1.17.21,1.44,1.46,1.57,2.47.06.46.74,1.3.76,1.76l.13,2.23c-1.07-.02-1.84-.15-2.77-.38l-1.19-.29.34-.91-1.53.64ZM151.25,124.46l.86.75c-.27-.42-.55-.84-.75-1.02l-1.25-1.1-1.3.51,1.33-.14.32.77-2.88.21c.88.38,3.52-.12,3.68.02Z"/>
  <path class="cls-1" d="M170.41,115.16c-2.78.15-2.72.95-4.7.86-.89-.04-1.69-.35-2.45-.9l-1.95.02c-.29.09-.91.42-1.21.59l-1.9,1.08-1.46-1.21c-.24-.2.31-1.02.4-1.33.35-1.11-.74-.75,1.76-2.41l2.48-1.64c1.14-.76,2.58.39,3.82.64l1.87.37c1.63.32,2.71.9,3.89,2.19l-.93.53c-.14.08.06.53.13.53.37-.18,1.04-.49,1.37-.45l1.63.22c-.8.89-1.7.84-2.78.9ZM159.9,114.42c.09,0,.44-.01.38,0l-.24-.52c-.04-.08.28-.29.38-.3l.91-.09c-.35-.12-.94-.26-1.19-.16l-1.4.53c-.11.04-.12.29-.18.74.19,0,.56.03.44.02.18-.42.33-.77.43-.67l.47.46Z"/>
  <path class="cls-1" d="M128.25,170.42l2.07.06.78.9-1.31.03-.48.35,2.84.09-.51.57.05.34c.5-.11.57-.17.61-.1l.31.53c.14.25.24-.04.23-.37-.24-.37-.59-.93-.85-1.19l-.99-.97c-.24-.24-.86-.62-1.1-.74l-1.48.15-2.68.23c-2.3-1.2-3.21-3.4-4.16-5.64-.1-.24-.15-.94.08-1.03.18-.07.56.53.59.63,1.48-.35.57.21,3.12,1.43,1.07.51,3.64,1.62,4.56,1.85l2.16.55c3.03.77,2.69,3.13,3.33,5.52l.2.75c.06.21-.45.6-.63.49l-.76-.45c-1.57.89-3.38-.07-3.18-.52l.24-.56-1.17-.02c-.11,0-.15-.54-.15-.52l-1.94-1.44c-.4-.3-1.48-.05-1.7-.9.78-.02,1.33-.04,1.95-.02ZM129.16,169.41l-.98-.5-1.47.52,2.45-.02Z"/>
  <path class="cls-1" d="M127.9,182.18l1.41.42c-.85.71-2.68.46-3.58.03-.49-.05-.5.01.11.41-.69.43-1.48.35-2.32.06s-1.67.08-2.28-1.23l2.48.34c.6.06.45-.07-.1-.19-.87-.52-1.85-.62-2.77-.1l-1.02-.86,3.56-.21c-1.22-.18-2.56-.11-3.89-.05l-.81-1.19c-.35-.52-.62-.96-.95-1.54l-.9-1.61c-.05-.08.03-.6.11-.55l.37.24c.12.08.47.26.61.3l3.06.73c.58.14,1.48.13,1.99.28,2.16.66,2.39.74,4.7.75l1.36.67c1.23.6,1.95,2.74,2,3.97l.08,2c.03.64-.22,1.24-1.02,1.37l.34-.91-.42-1.49c-.23-.82-.96-1.97-1.54-2.66-.32-.07-1.01-.01-1.34.04l1.2.46-.45.54Z"/>
  <path class="cls-1" d="M136.31,161.7l1-.02h.56c.16-.01.06.64,0,.56-.79.19-.83.37-.2.34.9-.21,1.4,1.08,1.92,1.82-1.41.86-1.51-.13-3.43-1.2l-.94-.52-2.03-1.19.77-.39-1.1.02c-.71.02-2.46-2.21-2.56-2.45-.49-1.11-.87-2.02-1.3-3.14l-.72-1.87c-.03-.09.15-.58.22-.52,1.75,1.37.77,1.06,3.35,2.52.49.28,1.07.61,1.57.79l3.74,1.32c1.04.37,2.87,1.28,2.99,2.65l.27,2.95c.06.68.7,1.48-.34,2.09-.29.17-.92,0-1.28-.3l1.22-.44c-.58-1.26-1.89-3.25-2.94-4.49l.32,1.16-1.08.32ZM132.8,157.83c-.12-.43-.28.09-.25.37.26.27.56.65.77.69l1.82.43c-.6-1.01-1.44-.08-2.34-1.49Z"/>
  <path class="cls-1" d="M166.07,86.88l-.87.46c-.23.12-.83-.32-.85-.34-.88,1.26-.06-.13-2.08,1.39-.5.37-1.04.46-1.63.19l-1.37-.63c-.22-.1-.27-.71-.31-1.09-.05-.59.28-1.09.8-1.28,5.89-6.27,4.7-2.31,10.14-3.19l2.37-.39v.69c.02.15.24.31.45.54.35.39-2.44,2.39-3.24,2.79l-2.42,1.19c-.18.09-.82-.22-.99-.31ZM163.4,85.74c.27.11.85.31,1.01.21.2-.12.67-.42.75-.25l.33.7.46-.53-1.04-.69c-.51.11-.92.19-1.37.24l-1.48.17.5.8c.27-.41.57-.76.83-.65Z"/>
  <path class="cls-1" d="M105.95,222.91l1.22-1.02c1.06-.89,1.85-1.96,2.73-3.03l3.02-3.68c.42-.51.88-1.09,1.27-1.62l2.02-2.81c.26-.36.52-.75.76-1.13l1.68-2.64,1.79-3,1.31-2.3c.25-.44.54-.93.81-1.34l.97-1.45c.29-.44.55-1.05.83-1.53l1.31-2.28c1.09-1.9,2.12-3.74,3.32-5.57l.76-1.16,1.13-1.77c.96.46-.81,2.43-1.5,3.67l-3.46,6.22-1.03,1.82-.86,1.52-.87,1.54c-.51.9-.9,1.78-1.37,2.74-.25.52-.65,1.11-.94,1.62l-.97,1.7c-.81,1.43-1.75,2.7-2.7,4.04l-1,1.41-1.11,1.55c-1.04,1.46-2.12,2.79-3.25,4.19-2.29,2.82-4.54,5.47-7.38,7.8-.24.19-.86.29-1.09.16-.28-.15-.22-.91.05-1.16l2.57-2.47Z"/>
  <path class="cls-1" d="M168.81,96.29c-2.03.67-1.15.5-4.4,0-.91-.14-1.79-.06-2.31.84-1.07.07-2.31.02-3.37-.58-.56-.31.04-1.43.44-1.71.55-.4,1.01-.75,1.5-1.15l1.59-1.31c.29-.24,1.07-.4,1.54-.52.66-.17,1.28-.13,1.9.08l4.31,1.42,1.54.5,1.23.4c.13.04.52.32.41.4l-.51.36c-1.69,1.2-1.75.56-3.86,1.25Z"/>
  <path class="cls-1" d="M150.87,85.47l-.5-.39c-.09-.07.19-.31.43-.43s.71.45,1.02.76c.03.02.21-.37.11-.45-1.94-1.53-1.08-1.36-2.97-3.02-.04.49.44.92.78,1.31.21.24-.46.95-.66.97l-1.45-1.51c-.58-.6-.94-1.64-1.38-2.52-.23-.45-.06-1.13.1-1.91-1.13.49-.03,1.63-.78,1.88-.33-.23-.68-.78-.77-1.06-.68-.04-1.77-.22-1.69-1.18,1.04.1,1.55.17,2.43.39,1.15-1.83.03-1.29,1.33-3.26l.66,1.95c.28.83.97,1.51,1.56,2.16,1.63,1.79,2.59,2.91,4.68,4.46.68.51,2.67.38,3.3,1.16.23.28.31,1.26.02,1.4l-1.14.41-.45.16c-.1.03.21.37.3.34l1.2-.44.21,1.19c-2.42-.7-2.96,1.66-5.3-1.54l1.17-.66s-.14-.25-.23-.42l-1.09.91-.86-.68Z"/>
  <path class="cls-1" d="M163.07,136.79l-1.36-.11c-.71-.06-1.39-.52-1.78-1.04l-.3.74-1.01-.33-2.19.88-.36.64c-.08.13-.47-.06-.71-.13-1.93-.62-2.3.11-2.78-.47-.19-.23-.04-.97.17-1.22,1.61-1.92,2.05-.95,4.35-2.42,1.29-.82,2.63-1.05,4.19-.99,1.77.06,2.7.78,4.27,1.87l1.14.79-.85.44.86.87.23-.86,1.51.89c-1.1.83-3.51.95-4.5.27-.12.05-.66.21-.88.19ZM162.7,135.53l-.47-.56.53-.54-2.69.03-2.19.02.86.52c.19.11.75-.2.92-.21.44.13.85.23,1.37.31.6.06.9.18,1.68.43Z"/>
  <path class="cls-1" d="M172.82,105.15c.09.22-.66.4-.91.47-3.12.92-.56-.09-3.59.61-1.18.27-2.41.22-3.48-.25l-2.21-.96-.81-1.23c-.1.08.23-.19.47-.38l1.16,1.02c-.15-1.2-1.4-1.36-2.3-.93l1.01,1.21c.12.14-.18.65-.36.61l-.81-.18-.39.98-2.2-1.18.11-1.13c.04-.44.42-.9.81-1.14l1.06-.65c1.88-1.16,1.69-1.28,4.33-1.17.53.02,1.33.87,1.77,1.16l1.48.96c.21.14.68.48.75.54-.49.22-.94.32-1.06.17-.53-.25-1.02-.32-1.54-.36l-.79-.06,1.06,1.04,1.37,1.35c.44-.55-1.53-1.27-1.14-2.21.83.36,1.21.74,1.52,1.16.29-.56.84-1.15,1.61-.89l-.76.61.38.29c.13.1.5-.23.69-.38.17-.14.73-.08.89.09l.62.66c.36-.14,1.11-.17,1.25.19Z"/>
  <path class="cls-1" d="M156.64,97.74c-.34.1-.85-.17-1.24-.44-1.21-.86-1.65.25-3.74-1.57-.51.06-1.11.05-1.8-.11-.01-.12.02.24.05.54l-1.33.13-.42-.59c-.93-.3-1.63-.86-2.03-1.93l2.43-.94c1.48-.95,2.8-1.33,4.58-1.32,1.21,0,2.42.17,2.73,1.67s1.32,1.95,1.02,2.22l-.55.49.54.9-1.1-.45c-.04-.1.17.39.25.56.04.09.31.32.39.27l.54-.37c.09-.08.24.37.28.53s-.3.32-.58.41ZM153.25,94.52l.36-.38c-1.03-.67-1.83-.48-2.83-.46l-2.08.04c.07.38.07.42.08.42,0,0,.32-.03.42-.03l1.05-.07c-.27.48-.42.76-.39.71,1.21-.46,2.38-1.52,3.39-.24Z"/>
  <path class="cls-1" d="M165.07,126.51c-.17-.05-.63-.76-.6-.71-2.1,1.1-1.37-.43-4.51.22-.71.15-1.6-.16-2.21-.32-.74.19-1.58.77-2.36.19l1.64-1.32c2.04-1.65,3.2-1.22,4.14-1.46,2.83-.71,2.78-.17,4.47.02,1.88.22,3.7-.03,4.87,1.36l.91-.24c.16-.04.5.13.74.3l-2.31,1.45c-1,.63-2.16.94-3.19.46-.36.06-1.24.16-1.58.04ZM167.33,124.64l.99.37,1.12-.62-3.35-.04c-.37,0-.69.02-1.15.09-.35.05-.89-.04-1.25-.05h-1.93c-.09,0-.44.21-.39.27.06.07.18.21.19.22,0,0,.91-.52,1.01-.26l.24.61c.19-.19.54-.51.76-.66s.81.34,1.03.49c1.47-1.23.96.49,2.73-.41Z"/>
  <path class="cls-1" d="M150.22,135.21c-.75.24-1.75.05-2.36-.56l-1.25-1.24c1.19-.27,1.69.14,2.3-.89l-1.97.59c-1.26.38-2.53-.49-3.35-1.46-.51-.6-1.24-2.66-1.24-3.4l-.71-1.38c-.05-.1.22-.39.36-.56l-.74-1.02c-.1-.14,0-.67.12-.8.49.42.98,1,1.46,1.48l2.5,2.53c.75.76,2.96,2.74,3.92,2.88,1.33.2,1.98.82,2.26,2.15.12.58.45,1.49-.48,1.83-.13.05-.28-.29-.23-.42l.2-.59-.92.07.13.78Z"/>
  <path class="cls-1" d="M154.67,81.27l-.96.43c-.3.13-.73-.58-.83-.87-.07.11-.77.73-.98.59-.47-.32-1.46-1.11-1.78-1.57l-.88-1.26c2.92-.8,3.54-1.8,6.07-2.45.42-.11,1.56.26,1.75.65.27.52.21,1.54.05,2.11-.13.45-.09.66.07,1.12.25.73-.78,2.22-1.52,2.12-.27-.04-.68-.49-.98-.87Z"/>
  <path class="cls-1" d="M152.35,130.33l-.32,1.69c-.82-.41-1.46-.7-2.24-.97-.59.1-2.55-1.51-2.93-1.87l-3.76-3.54c-.14-.13-2.49-2.71-1.38-2.37l.53.16,1.28.39c.47.14,1.51.4,1.86.73l2.25,2.14c1.24,1.18,3.45.87,5.07,1.81l-.35,1.82Z"/>
  <path class="cls-1" d="M160.89,69.31c-.47.78-1.71,1.11-2.27.19-.23-.39-.04-1.3.18-1.87l-.8-.37,1.23-1.88c.29-.44.91-.65,1.5-.51.73-.36,1.49-.72,2.18-1.12l1.42-.81c.57-.33,1.31-.5,2-.41,2.29.31,2.19-.51,2.99.6-3.37,2.07-5.39,1.21-7.36,4.45l-1.06,1.74Z"/>
  <path class="cls-1" d="M163.47,77.14c-.25.12-3.11.04-3.29-.46l-1.04.86c-.09-.05-.18-.73-.05-.98l1.61-3.3c1.3-.56,3.24-.33,4.4-.84l2.08-.92c.21.36-.13.83-.57,1.19-.23.19.52.57.84.53l-.15-.44c-.04-.11.79-1.14,1.27-2.03l.33-.61c1.19-2.22.38,1.54-.43,2.73-.36.53-.85,1.09-1.24,1.56l-1.56-.16.69-1.08-1.34.88-.68.56,2.37.04c.5.68-2.78,2.26-3.24,2.48ZM163.32,76.27c.02-.55.03-.78.18-.77l.73.02c.26.02.53-.19.34-.36-.69-.57-1.91.22-1.9.69l-.31.22c-.37-.17-.57-.31-.68-.2-.09.09-.37.5-.33.48l1.98-.08Z"/>
  <path class="cls-1" d="M153.48,69.71c-.16.01-.44-.62-.51-.77l-1.37.27c-.29.06-.89-.33-1.08-.56l-1.24-1.5-.29-.34c-.09-.1.22-.39.35-.45l.45-.23c.09-.04-.18-.41-.26-.36l-.93.58-1.45-2.48c-.12-.2.09-.88.3-.77,3.16,1.79,2.5,1.98,6.51,2.67,1.12.19,2.22.62,2.51,2.01l-2.05.77c.21.13.62.85.5,1.03l-1.43.13Z"/>
  <path class="cls-1" d="M156.07,59.52h-.67c-.5.58-1.31.74-1.96.19l-.89-.02-2.09-1.11c-.51-.27-.93-.57-1.59-.99.1-.41.23-.88.41-1.08s.85-.22,1.11-.13c3.15,1.03,3.05-1.08,6.03,1.25.12.09.3.45.32.59.06.5-.88.2-.69,1.3ZM155.64,58.64c.73-.43-1.32-.9-1.19-.88l-2.78-.39.85.62c.26,0,1.03-.07,1.3.02l1.82.63Z"/>
  <path class="cls-1" d="M156.6,42.86c-.14.05-.84.45-1.12.4-.37-.07-.76-1.13-.56-1.46l.67-1.1c1.22-2,1.29-1.21,4.32-2.03.17-.05.85.05.83.21-.06.4-.64,1.07-.87,1.39l-.94,1.34c-.28.4-.91,1.24-1.23,1.61-.14.15-.87-.21-1.09-.38Z"/>
  <path class="cls-1" d="M158.61,58.21l-.88.54c-.46-1.32-.18-.29.39-2.12.16-.5.52-1.28,1.02-1.44,2.11-.69,2.52.97,4.36.09l1.84-.88c.36.48-.87,1.7-1.47,1.77-.83.1-1.69.78-2.01,1.59-.12.32-1.14.43-1.36.18l-.37-.42c-.08-.1-.5.21-.5.29l.7.68c0,.11-.63.44-.86.38s-.49-.32-.86-.65Z"/>
  <path class="cls-1" d="M151.45,139.96c-.54-.97-.17-1.63.13-2.48l.23-1.12c.1-.48.19-.94.26-1.46l.27-1.87.39-2.4.26-1.76c.08-.57.19-1.1.33-1.65.84-3.23-.13-.23.48-2.85.18-.78.37-1.55.49-2.31l.4-2.41c.52-3.14,1.62-4.23,1.41-2.71-.1.73-.16,2.24-.34,2.98l-.48,1.93-.49,1.92c-.16.62-.26,1.3-.4,1.96l-.38,1.87-.51,2.5c-.64,3.14.03,3.22-1.28,6.42.04.7-.02,1.46-.24,2.05l-.51,1.37Z"/>
  <path class="cls-1" d="M156.74,98.55l.09,2.65-.63-.02c-.46-.44-.93-.8-1.4-.99-1.14-.47-4.88-2.03-5.6-3.31,4.09-1.18,3.84,2.11,7.53,1.67Z"/>
  <path class="cls-1" d="M149.69,22.71l.6,1.29c.07.14-.04.57-.13.7-.18.29-1.61-1.68-1.71-1.84l-1.72-2.91c-.08-.13-.13-.61-.01-.58s.44.11.53.18l.98.69c.35.25.75.75.94,1.08l.4-1.75c.17-.75.59-1.46,1.5-1.82l.09,1.28.13,1.81c0,.12-.49.5-.5.38l-.09-.69c.05,0-.25-.11-.26-.03-.02.13-.08.46-.08.59l-.02.65c0,.16-.37.07-.72.02l-.65.9.73.04Z"/>
  <path class="cls-1" d="M152.3,51.77l-.52-1.07c-.42.1-.85.2-1.08.21s-.51-.81-.3-.88c.32-.11.84.14,1.4.39,0,.01.02-.34.03-.47l-.91-.63-1.23.42-1.2-1.12c-.1-.09-.25-.42-.32-.53-.33-.6.98.27,2.25.36l2.04.14c.92.06,1.74.56,2.5,1.2.44.38.57,1.35.28,1.54l-1.05-.87c-.22-.18-.98-.36-1.1-.12l-.78,1.44Z"/>
  <path class="cls-1" d="M150.59,35.62l-1.28.04c-.12,0-.4.14-.3.18s.42.15.5.21l1.07.87c-.72,1.04-3.05-.5-3.38-1.37l1.93-.81c.7-.29,3.87-.49,4.16,1.55l-.38.95-.92-1.48s-.29-.13-.29-.07c0,.08,0,.3.02.38l.34,1.25c-.83-.08-1.89-.73-1.47-1.7Z"/>
  <path class="cls-1" d="M158.52,50.3l.45-.54c.08-.09.37.26.32.36l-.73,1.57c-.04.08-.28.33-.36.36-.13.05-.44-.05-.55-.14l-1.29-1c-.14-.11,1.42-2.1,1.62-2.35l1.65-1.96c.33-.4,1.4-.78,1.87-.85.13-.02.3.6.19.68-.15.1-.45.29-.61.43l-1.33,1.14c-.35.3-.79,1-1.15,1.39l-1.38,1.49c.45.02.99-.23,1.28-.58Z"/>
  <path class="cls-1" d="M157.81,90.31l-.24-1.52c-.14-1.03.03-2.11.35-3.01-.16-.42-.41-1.12-.41-1.52v-1.71c0-.63.09-1.11.65-1.54.28.87.45,1.54.45,2.26v3.09s-.05,2.77-.05,2.77c0,.23-.19.52-.75,1.19Z"/>
  <path class="cls-1" d="M151.16,29.51l-1.3.46.06.81c-1.14-.17-2.13-1.03-2.48-2.32-.07-.49,4.07-.25,3.72,1.04Z"/>
  <path class="cls-1" d="M162.54,77.52l-.89,1.34c-.25.37-.86.77-1.24.83s-1.27-.33-1.43-.69c-.33-.77.55-1.68,1.31-1.63l2.25.15Z"/>
  <path class="cls-1" d="M157.3,82.2l-.13,2.14-2.55-.91c-1.1-.39-1.26-.49-1.48-1.27-.03-.12.49-.01.61.03,1.11.43,2.19.32,3.54,0Z"/>
  <path class="cls-1" d="M145.87,14.13l-1.92-1.84c-.15-.14.08-.83.15-.82l1.18.94.53-.81c.12-.18.66-.52.75-.31l.46,1.09.21.48c.06.15-.28.39-.44.52l-.91.75Z"/>
  <path class="cls-1" d="M158.6,80.07c0,.21-.37.83-.55.77s-.59-.55-.58-.76l.25-3.97c.45-.1.9.49.9.86l-.02,3.1Z"/>
  <path class="cls-1" d="M153.8,29.96l-.62-.89c.18.36.28,1.4-.25,1.43-.35.02-.88-.59-.88-.88s.22-.93.46-1.16l1.78-1.71c.05.6.04,1.07,0,1.27-.44-.03-.48-.04-.55-.03-.11,0-.02.3.05.49.16.43.18.82.02,1.48Z"/>
  <path class="cls-1" d="M141.1,204.08l-.94-.66c-.3-.21-.49-.81-.6-1.33l-.31.48c-.1.15-.7-.33-.62-.49l.85-1.78.51.66c.35.45.47.96.44,1.64l.99.05-.3,1.42Z"/>
  <path class="cls-1" d="M154.26,35.67c1.23-1.27.58-1.15,1.66-1.39.62-.14-.47,1.84-1.25,2.14-.3.17-1.18-.48-1.26-.83-.31-1.25,1.61-3.55,2.87-2.94l-2.28,2.76c.2.53.3.77.26.26Z"/>
  <path class="cls-1" d="M145.89,11.5c-.83.31-1.11.35-.78,0l-1.13-3.18c-.18-.52-.27-1.01.17-1.83l1.29,3.45c.17.45.32,1.07.45,1.55Z"/>
  <path class="cls-1" d="M151.45,25.32c-.11.19-.81,0-.8-.22.04-1.08,1.05-2.42,2.28-3.17.05.56.01.9-.17,1.2l-1.31,2.19Z"/>
  <path class="cls-1" d="M156.24,105.03l-2.19-.36c-.2-.03-.61-.29-.74-.49,1.59-1.09.93.83,3.19-.73l.16.47c-.22.24-.33.37-.33.36s.11.13.38.44c.07-.05-.35.24-.47.32Z"/>
  <path class="cls-1" d="M158.05,72.18l.33,2.28c-.44-.36-.7-.89-.7-1.5l-.02-3.91c0-.1-.35-.53-.24-.54s.38-.22.42-.12l.16.49c.59,1.77-.3.85.06,3.3Z"/>
  <path class="cls-1" d="M157.32,126.53l-1.02,1.26c-.25.09-.84.18-1.1.18-.31,0-.83-.71-.73-1.02.18-.59,1.22-.57,1.52-.26l1.33-.16Z"/>
  <path class="cls-1" d="M147.78,18.42l-1.6-2.16-.34-.27c-.09-.07.33-.55.42-.48.48.37,2.59,1.84,1.52,2.91Z"/>
  <path class="cls-1" d="M144.42,96.33l-1.61-.69-.56-.24c-.17-.07.26-.5.45-.57l1.56-.56.16,2.06Z"/>
  <path class="cls-1" d="M153.16,196.85c.08.06-.1.69-.19.66-.13-.05-.49-.18-.58-.29l-1.4-1.75c.33-.18.76-.34,1.2-.43l-.12.93,1.1.87Z"/>
  <path class="cls-1" d="M160.05,59.27c-.26.83-2.21,1.42-2.39.89-.07-.22,0-.78.22-.81l1.5-.2c.13-.02.62.08.67.12Z"/>
  <polygon points="134.94 198.43 134.32 197.05 133.35 197.42 134.22 196.55 135.18 197.27 134.94 198.43"/>
  <path d="M115.46,188.67c-.73.08-1.34.01-1.96-.21l-.48-.17c-.1-.04.21-.43.15-.29l1.39.13.9.54Z"/>
  <path d="M121.73,191.62l-2.56-.19c-.4.11-.43.08.04-.25h2.11s.41.45.41.45Z"/>
  <polygon points="146.91 179.6 146.66 179 145.74 177.4 147.44 178.51 146.91 179.6"/>
  <path d="M153.54,166.57l-.87-.1,1.21,1.75c-.8-.36-1.51-1.85-2.85-2.61,0,0,.5.03.72.05s.45.46.57.59c.37-.15.91-.26,1.2-.12.61.3.94.65.7,1.43l-.69-.99Z"/>
  <path d="M149.2,165.24v1.11s-.74-.79-.74-.79c.38-.27.84-.57,1.17-.54.28.03.67.39.96.68.06.45.08.82-.1.33l-1.29-.8Z"/>
  <path d="M158.3,168.48l.85-.19-1.05.99-1.22-1.27.23-.27c.33-.39.33,1.03,1.19.75Z"/>
  <path d="M161.71,157.65l-1.63-1.42c-.31-.27-.58-.37-1.18-.6l.41-.4,1.6,1.15,1.1.79c.09.06.2.31.25.41s-.35.07-.55.08Z"/>
  <path d="M158.78,155.14l-.49.58c-.45-.6-1.14-.84-2.07-.8l.32-.42c.62.14.91.2,1.22.3l1.03.34Z"/>
  <path d="M147.96,190.94l-1.02-1.08-.83.23.49-.64c-.61-.36-1.21-.74-1.78-1.18l-1.09-.83-1.12.95.11-.68c.06-.35-.7-.98-.33-.99l.83-.04-.39.67c.71-.1,1.13-.18,1.38,0l1.83,1.26c.36.25.84.63,1.15.92l1.16,1.09c.08.08.31.17.25.23-.06.06-.17.19-.22.26s-.34-.1-.41-.17Z"/>
  <path d="M160.21,146.17l-.96.87c-.44-.39-.97-.75-1.46-.93-.71.48-.62.3-.17-.19l3.99-.07c.4.23.48.3.03.27-.52.35-.78.37-1.43.06Z"/>
  <path d="M151.25,124.46c-.16-.14-2.8.37-3.68-.02l2.88-.21-.32-.77-1.33.14,1.3-.51,1.25,1.1c.21.18.48.6.75,1.02l-.86-.75Z"/>
  <path d="M159.9,114.42l-.47-.46c-.1-.1-.26.25-.43.67.12,0-.25-.01-.44-.02.07-.44.08-.69.18-.74l1.4-.53c.25-.1.84.04,1.19.16l-.91.09c-.09,0-.41.22-.38.3l.24.52c.06,0-.29,0-.38,0Z"/>
  <polygon points="129.16 169.41 126.71 169.43 128.18 168.91 129.16 169.41"/>
  <path d="M132.8,157.83c.9,1.41,1.74.48,2.34,1.49l-1.82-.43c-.2-.05-.51-.42-.77-.69-.03-.27.13-.8.25-.37Z"/>
  <path d="M163.4,85.74c-.26-.11-.56.24-.83.65l-.5-.8,1.48-.17c.45-.05.86-.13,1.37-.24l1.04.69-.46.53-.33-.7c-.08-.17-.55.13-.75.25-.16.1-.74-.1-1.01-.21Z"/>
  <path d="M162.7,135.53c-.77-.26-1.07-.37-1.68-.43-.52-.08-.94-.18-1.37-.31-.16.02-.73.32-.92.21l-.86-.52,2.19-.02,2.69-.03-.53.54.47.56Z"/>
  <path d="M146.18,141.47l-3.15.16c.1-.2.18-.44.27-.43l.78.13c.43.07.86-.14,1.35-.65-.03-.02.2.14.43.31l.31.48Z"/>
  <path d="M153.25,94.52c-1.01-1.29-2.19-.22-3.39.24-.03.05.13-.23.39-.71l-1.05.07c-.1,0-.41.04-.42.03,0,0,0-.04-.08-.42l2.08-.04c.99-.02,1.8-.21,2.83.46l-.36.38Z"/>
  <path d="M167.33,124.64c-1.77.9-1.26-.82-2.73.41-.22-.15-.81-.64-1.03-.49s-.56.48-.76.66l-.24-.61c-.1-.25-1.01.26-1.01.26,0,0-.13-.15-.19-.22-.05-.06.29-.28.39-.28h1.93c.36.01.9.11,1.25.05.47-.07.78-.1,1.15-.09l3.35.04-1.12.62-.99-.37Z"/>
  <path d="M163.32,76.27l-1.98.08s.24-.4.33-.48c.11-.11.31.03.68.2l.31-.22c0-.47,1.21-1.25,1.9-.69.19.17-.08.38-.34.36l-.73-.02c-.15,0-.16.22-.18.77Z"/>
  <path d="M155.64,58.64l-1.82-.63c-.27-.09-1.03-.01-1.3-.02l-.85-.62,2.78.39c-.13-.02,1.93.46,1.19.88Z"/>
</svg>