<?xml version="1.0" encoding="UTF-8"?>
<svg id="Layer_1" data-name="Layer 1" xmlns="http://www.w3.org/2000/svg" viewBox="0 0 240 240">
  <path d="M143.18,200.96c-2.06,1.96-4.38,1.36-6,2.53,0,.23.53.48.49.65-.29,1.14-1.86,1.61-1.9,1.61l-4.57.33c.01.77.59.95.92,1.58-2.36,1.83-3.43-.04-5.42.5-.36.28.07,1.31-.53,1.52-2.18.75-3.14-.92-5.18-1.5.57,2.77,1.63,5.02,2.35,7.58.79,2.8,3.61,10.08,5.32,12.19l1.31,1.61c.52.65,1.4.94,1.91,1.63-.46.9-1.3,1.57-2.2,1.77l-2.32-3.16c-.99-1.34-1.74-2.78-2.42-4.32l-3.29-7.49c-1.19-2.7-1.45-5.05-2.09-6.31-.68-1.33-.85-5.31-2.13-7.08-1.25,1.38-3.52,3.35-5.06,3.05-.35-.07-.14-.8-.4-1.04-.78-.71-2-.1-2.84.02-.47.07-.99-.15-1.41-.24s-.47-.69-.2-.97c.19-.19.38-.38.31-.57-.5-1.36-3.9-.41-4.5-.86s.24-2.07-1.3-2.24c-1.3-.15-3.36-.25-3.68-1.1-.13-.35.27-.71.42-1.29-1.57-.52-3.14-.82-4.43-1.88,0-.57.4-.99.24-1.62-1.03-.35-2.06-.48-2.99-.88-2.19-.95.25-2.37-2.1-3.26-.92-.35-1.8-1-2.38-1.75l-.09-1.56c-.04-.72-2.36-1.32-3.31-2.73-.27-.4.26-1.16-.3-1.53-.47-.3-1.85-.65-1.83-1.25.05-1.23-.46-1.38-1.03-2.05-1.19-1.41-1.69-3.36-2.75-4.9-.49-.71-1.27-1.6-.62-2.45,1.49-.58,4.48,4.56,5.21,5.53.44.57,1.76.58,1.84,1.75.05.72,1.01.28,1.36.41,1.62.57,1.87,2.54,2.98,2.64.3.03.82-.61,1.12-.35,2.1,1.76,1.53,1.84,3.17,3.02.37-.25.36-.76.59-1,1.07-.51,2.33,2.19,3.71,2.13.23-.2.4-.65.69-.63.41.03.68.23.98.52l2.98,2.91c.56.55.19-1.28.79-1.58,1.13-.56,4.09,3.05,4.99,4.3.35-.89.41-1.62,1.06-2.35l1.81,1.93,1.45,2.44c1.03-.32.38-1.47.65-2.16.35-.92,1.73-.14,2.05.58.23.52.58.29.61-.17-.32-.81-.39-1.67-.57-2.47l-.44-1.99c-.64-2.89-.13-4.22-.59-4.81s-2.36,3.1-3.51,2.89c-1.68-.3-.88-2.92-.46-4.21,0-1.09-2.51,2.43-3.79.63-.59-.82-.03-1.85.14-2.81-1.98.25-3.81.81-5.49,0,.36-2.91-2.13-.6-4.27-2.07-.63-.43,0-1.42-.09-1.96-.65-.99-3.53.21-3.72-.97,1.57-.16,3.08-.01,4.54.64l-.45,1.9c1.17.53,2.38.16,3.53.31.79.11.91,1.13,1.28,1.66.58.84,1.59.24,2.33.12l2.19-.35c1.43-.23-.37,2.44.5,3.25.49.45,2.34-1.03,2.34-.99l.16-1.25c.28.14.09.77.42.8s.59-.23.77,0c.16.2.46.57.29.85-.39.63-.25,1.19-.34,1.8-.05.39-.59.66-.54,1.03.05.35.21,1.09.75.95,1.14-.29,1.65-1.58,2.41-2.26.64-.56.64-1.12.9-1.74s.51-1.07.43-1.92l-.18-2.12c-.09-1.01.31-1.75-.31-2.76-.38-.61-.42-1.74-1.17-2.17-.13-.08-.69.32-.63-.09.04-.29.28-.45.35-.65.1-.32-.32-.44-.44-.77-.33-.87-1.67-1.54-2.23-.8l-.39,2.62c-.03.19-.28.47-.4.53-.15.06-.44-.26-.55-.4l-.93-1.24c-.44-.58-.59-2.05-1.66-1.99-.82.05-.66,1.35-.57,1.91-.09.33-.53.29-.63.47-.15.3.17.7-.2,1.08-.17-1.3-1.11-1.88-1.98-2.74-.69-.69-1.65-1.63-2.73-.73-.26.22.04.86.1,1.2l-1.37-.25c-.28-.84-.98-1.12-1.58-1.59s-.84-1.44-2.03-1.05c.28.78,1.03.99,1.41,1.75-.9-.13-1.23-.94-1.63-1.59-.56.17-.9.46-1.26.74-.57-.45-1.02-1.03-1.71-1.47l-1.15.65c-.16-.49.31-.67.22-.88-.11-.26-.39-.53-.61-.48-.25.05-.45.33-.68.56-3.29-2.96-1.55-.61-3.53-2.12-.51-.39-1.38-.61-1.85-1.35-.53.23,0,.52-.11.96l-1.8-1.26c-.8-.56-1.28-2.28-2.7-2.19-1.26.08,1.25,1.55,1.35,1.55-.24,2.06,2.83.79,2.06,3.32.69.42,1.43.85,2.11,1.03.17.05.81-.35.69.09-.2.48-.54.71-.34,1.3.18.54.66.29,1.2.45.74.22,1.55.75,2.22.84-.52,3.72,1.28.6,3.43,3.07.11.22-.28.75-.18.98.16.36.43.47.92.67-.42.46-.89.14-1.27-.14-.49-.36.06-.95-.05-1.38-.27-1.07-1.89.12-3.35-1.22-.37-.34-.03-.95-.02-1.47l-3.2-1.19c-.13-.94-.61-1.88-1.52-2.1-1.06-.26-1.01-1.16-1.49-1.8-1.25-1.66-4.4-3.46-4.76-6.36.6-.22,1.08.14,1.43.53.63.7,1.43,1.13,2.07,1.72,1.06.99,2.21,1.49,3.47,2.15.75.39,1.25,1.32,2.44.6.4.44,2.56,2.37,2.73,2.29l.77-.35c.88-.4,2.68,2.38,3.47,2.1.64-.23,1.07-.73,1.53-1.09.99.84,2.11,1.22,2.98,2.11.21.22.39.56.63.57.91.03.58-1.32,1.56-1.58,1.15-.31,2.83,1.6,3.62,2.79.97.19.43-1.72,1.21-2.04,1.1-.45,2.94,2.61,3.83,3.52.38-1.23-.12-2.73.65-3.36,2.68-.14,2.68,2.78,4.22,3.37-.3-2.87-.28-5.38-.03-8.15-.99.2-1.27,1.09-1.89,1.62-.58.5-2.45,1.44-3.3.57-1.01-1.04.91-3.18-.29-3.01-1.3.19-3.01,1.77-5.14,1.03.09-.75.21-1.49.06-2.32-1.99.19-3.23,1.38-4.86.63-.52-.68.1-1.59.3-2.33-1.32-.2-4.51.79-5.53-.47-.19-.23.18-.97-.13-1.23-.82-.7-3.6.41-4.59-1.02-.27-.39.09-1.27-.83-1.64.8-.23,1.08.25,2.04.15-.05.23-.4.3-.63.69.78,1.15,2.06,1.07,3.3,1.12.91.03,1.72.35,2.72.25-.18.52-.63.22-.94.79,2.1,1.54,1.95-.22,3.04.51.53.36,1.12.3,1.67-.08.15.62.37.99.87,1.52-.51.26-1,.23-1.04,1.06l1.87.15,2.39-.85c.69-.24,1.67.21,2,.81.07.12-.18.35-.21.44-.12.44,1.27.97,1.57.87.5-.17.94-.65,1.32-.99.17-.1.56.27.76.26.34,0,.56-.31.71-.62.16.33.27.24.65.31-.49.39-.18,1.01-.36,1.44-.28.67-.85,1.82.14,2.27,1.06.48,3.53-2.2,4.13-2.95.68-.85-.13-2.15.05-2.97.34-1.52.06-2.6-.9-3.93-.22-.31,0-.92-.7-1.25-.41-.19-.71-1.41-1.47-1.08-.92.4.74,2.19-.88,3.06.02.38.31.6.08,1.04-.11-.27-.36-.58-.53-.84.24-.56-.29-.79-.51-1.13-.64-.98-1.2-1.65-2.35-2.08-.29-.11-.88-.96-1.19-.28-.14.3.45.77.4,1.02-.05.23-.37.67-.64.88-1.15.25-2.07-1.78-3.75-2.4-.51.69-.29,1.33-.38,2.02-.44.24-.92.27-1.39.42.02-1.34-2.82-1.9-2.55-1.96-.71.16-1.03.89-1.33,1.46-.28-.16-.44-.21-.5-.31-.15-.23-.61-.04-.57.15.05.22.31.36.27.49-.06.16-.25.16-.36.13-.19-.05-.08-.29-.14-.46-.38-.96-1.26-1.47-1.76-2.3-.28.25-.34.39-.51.48-.13.07-.34-.31-.52-.32-.22.29-.05.69-.16.88-.92-.12-1.82-1.45-3.21-1.41-.64.02-.95.73-1.49,1.02,0-1.2-2.16-3.32-2.97-2.4l-.07-.44c.04.26-3.94-2.77-3.57-2.77-1.95.02,2.97,3.76,2.65,3.61.48,1.06,1.17,2.03,2.63,2.1l.56.61c.21.23.71-.14.93-.22.43.41-.43.65-.46.9.05,1.06,2.25-.34,1.47.8-.22.32-.95.29-1.32.16-1.25-.44-.66-1.9-2.5-2.15-1.32-.18-1.39-1.08-1.99-1.81-.77-.93-3.5-2.99-3.8-5.72-.01-.1-.46-.17-.43-.27.03-.08.19-.18.23-.25.18-.3.24.13.31.32,1.96,1.3,3.03,2.67,5.04,3.82,1.16.66,2.28,1.09,3.17,2.12.45.52,1.34.3,1.64-.35,3.44,2.47,2.56,1.15,3.33.98,1.63-.36,3.07,2.04,4.02,1.62.32-.51.24-1.4.86-1.65.27.7,1.01.5,1.48.78.61.37,1.03.95,1.85.99.11.27.15.39.26.43.88.29.21-1.18.55-1.6.14-.18.63-.38.83-.22.53.43,1.11.41,1.65.65.6.27.8,1.27,1.65,1.38.23-.57.07-1.11.07-1.72.83-.45,1.7-.15,2.41.42l2.59,2.12c.15-1.12-.11-2.1.73-2.68l2.69,1.99c.63.71.79-4.81.81-5.18.04-.82.59-1.56.22-2.49-1.34.07-3.51,3.25-4.97,1.31-.29-.8.45-1.42.81-2.23-.63-.38-.83.37-1.32.4-1.38.09-2.68,0-4.1-.17.29-.46.92-1.19.56-1.62-1.16-.4-2.78.7-4.46.74-.39.01-.88-.87-.95-1.26-.07-.41.51-.87,0-1.25-1.23.39-3.28,1.25-3.85.15l-.47-.92c-.42-.81-3.46.69-4.31-.71-.35-.58-.37-1.2-1.28-1.34s-2-.48-2.54-1.32c-.1-.15.08-.43.05-.56-.05-.25-.25-.43-.55-.54-2.02-.68-1.26-1.85-3.48-2.9-1.38-3.03-3.34-3.45-4.56-7.47,1-1.83,4.18,2.67,6.14,4.04.58.4,1.96-.23,2.44,1.16.15.43.8,1.03,1.32.97.57-.06,1.03-.44,1.45-1.18.87.71,1.73,1.45,2.71,2,.42-.07.67-.74.91-.97l.49.4c.13.1.39-.34.56-.26l2.41,1.07c.51.23.59-.82.84-1.03,1.07-.25,2.31.41,3.12,1.27.49-.7.19-1.15.25-1.66,2.83-1.11,4.77,3.64,4.3.96,1.2-1,4.38,1.22,4.83,2.78.54-.81.45-1.37.92-1.82.4.58.98.69,1.42,1.08.74.66.79,1.65,1.85,2.16l.29-3.24c.15-1.7.16-3.28.6-4.92-.19.69.91-4.52.2-3.51l-1.65,1.46c-.44.39-1.24-.04-1.48-.35-.29-.37-.07-1.05.25-1.81-1.51.2-2.77.61-4.06-.17.43-.8.86-1.48.55-2.31-3.64.38-1.33,1-5.64.86-.59-.02-.58-1.03-.93-1.17-1.1-.4-2.35.14-3.51-.14-.57-.22-.53-1.14-1.1-1.31-1.04-.31-2.16-.22-3.1-.71-.49-.25-.25-1.13-.41-1.6-5.62-1.51-3.71-2.58-4.01-2.93-.13-.15-.46-.53-.67-.52-1.39,0-1.56-1.38-2.23-1.93-1.07-.87-1.63-1.49-2.22-2.7-.67-1.38-1.96-2.48-2.54-4.24.57.03,1.48.11,2.04.69.99,1.04,2.25,1.59,3.37,2.34-3.65-2.42,7.77,5.72,3.13,2.04l1.99,1.58c.64.51.64-1.71,3.4,1.37,2.3-1.02,2.77,1.4,3.63,1.33.43-.03.43-.61.66-.87.91-1,2.43.67,2.72.54.73-.32-.46-1.2.27-1.86s3.55,1.04,4.47,1.86c.22.09.39-.63.03-.81-.11-.34-.18-.39-.13-.53.38-1.13,2.99,1.01,3.35,1.77.06.45.4.72.64.6.59-.31-.14-2.05.83-2.4,1.85-.66,2.67,2.27,3.82,3.01.78-.45.04-1.31.3-1.79.39-.72.57-1.29.73-2.07l.42-1.99,1.1-4.39c-.99.32-4,1.12-3.82-.58.11-.97.94-.84,1.06-1.25.39-1.32-7.49,1.12-4.69-2-.89.03-4.26-.35-4.56-.98-.17-.34.21-.64.25-1.01.12-1.33-2.84-.04-4.05-1.57-.08-.23.39-.79.2-1.07-3.05-1.23-2.07.16-4.91-1.87-.18-.13-.15-.49-.2-.64-.07-.24.25-.31.68-.45-1.32-1.62-1.03-.3-2.23-1.9-.38-.5.13-1.01,0-1.52-.21-.88-1.29-1.44-1.44-2.34-.08-.51.22-1.14-.37-1.62-.74-.6-.57-1.51-.83-2.28-.48-1.42-1.49-2.83-1.29-4.37l.27-2.12c.83,1.4,2.09,4.51,2.96,5.18s1.16,1.57,1.89,2.26c.35.32,1.26.02,1.62.76.4.84.85,1.86,1.56,2.52.19.17.79-.16,1-.14.26.03,2.18,3.2,2.42,3.49.3.37.58-.54.84-.66.73-.32,2,.5,2.47,1.43s.85-1.9,4.3,1.39c.37.19.73-.52.98-.62,1.25-.5,3.1,1.75,4.01,2.76.34-.82.15-1.5.7-1.88,1.5-1.03,2.31,2.42,2.97,2.63.46.21.39-.63.48-.93l1.52-5.02c-.68-.12-1.04.33-1.52.44-1,.24-1.96-.63-1.85-1.65-2.16-.14-3.25.4-5.02-.88.04-.63.61-.89.9-1.58-1.57-.21-3.24-.4-4.04-1.71-.3-.49.69-.83.85-1.2-.91-1.66-2.84-.32-3.93-3.15-.14-.36.72-.56.65-.82-.32-1.3-2.62-1.74-3.26-3.81,1.82-2.32-1.98-1.35-.96-5.07-.11-.72-1.4-1.75-1.1-2.65,1.21-3.67-1.47-5.87-.14-6.19.27-.06.82.09.95.46.25.72.76,1.13,1.15,1.73,1.4,2.18,2.3,4.64,3.84,6.74.49.66,1.32.89,1.39,1.93.06.92.92,1.32,1.61,1.64.78.78.49,2.45,1.84,3.57.37.31.86-.52,1.17-.43,1.09.31,1.71,1.68,2.11,2.83.58-.71.48-1.63,1.23-2.21,1.5,1.01,2.28,2.81,2.63,4.48,1.01.02.26-1.13.73-1.63,1.15-1.23,1.38,1.53,2.61,2.89.6-.93.71-1.91.99-2.87.5-1.71,1.11-3.29,1.72-5-.51-.25-.88-.22-1.34-.14-.86.14-1.84-.53-1.68-1.4.05-.29.55-.51.41-.8-.3-.6-3.6-.65-4.79-1.94.17-.43.54-.78.57-1.27-.86-.58-1.73-1.13-2.36-1.96-.32-.42.17-1.07-.13-1.52-.67-.51-1.79-.95-2.03-1.84-.09-.34,1.02-.97.52-1.45-.62-.6-1.71-.84-1.79-1.84-.02-.25.5-.67.33-1.02-1.04-2.12-2.04-1.28-1.38-3.68.22-.8-.91-1.49-1.03-2.24-.15-.93-.01-1.84-.44-2.7-.4-.81.08-1.46.24-2.19.21-.99.26-1.94,1.27-2.6.63.69.93,1.71,1.46,2.63.75,1.29,1.85,2.39,2.37,3.8.28.76.34,1.41,1.03,2,.35.3.33,1.03.95,1.22-.1.27-.5.33-.48.81,1.89-.26.89,2.87,2.67,3.46.37.12.85-.2,1.17-.12.52.13.4.72.73,1.02.65.6.51,1.14.78,1.98.14.45.94-.28,1.18-.28,1.63.56,1.32,2.64,2.02,2.88.16.06.38-.53.58-.56,1.21-.15,1.39,2.42,2.04,1.42.12-.18-.03-.53.09-.77l1.98-3.9c-1.4-.41-2.78-.89-3.26-2.06-.24-.58.74-.65.74-1.05,0-1.27-3.03-1.25-3.92-2.81l.9-.88c-4.93-3.58-3.29-4.34-3.47-5.11-.26-1.1-1.92-2.15-1.47-3.48.18-.52.7-.69.26-1.49-2.47-4.42-.13-3.57-.63-5.31-.14-.49-.48-1.37-.46-1.82.03-.68.48-1.36.22-2.24-.16-.53.12-1.54.83-1.49.42.03,1.21.67,1.28,1.11.11.69.71,1,.93,1.55.41.99.91,2.02,1.19,3.05.24.86.19,1.58,1.01,2.22,1.98,1.53-.68,2.32,2.39,3.91,1.66.86.5,4.38,2.11,3.06,1.25.35,1.41,1.93,2.22,2.81l1.74,1.91c.41.45-.06,1.19.47,1.69.31-1.54,2.04-3.8,1.81-4.5,0,.01-2.35-1.37-2.95-1.91.51-.41.83-1.26.22-1.78s-1.35-1.05-1.45-1.89c-.03-.24.52-.63.25-1-.6-.85-1.71-1.92-1.53-3.1.1-.7.51-1.06-.05-1.76-.78-.99-.76-2.31-.08-3.38-.05-.7-.72-1.4-.58-2.08.27-.75.81-1.38.56-2.29-.27-.98.83-5.19,1.56-5.89.82,1.39.81,3.91,1.7,5.42.33.55.91.9.66,1.76-.38,1.31.29,2.05,1.03,2.88.57.96-.07,2.32.38,3.41.49-.27,1.13-.66,1.56-.22.94.95.03,2.42.63,3.13.14.17.57.08.82.27.45.34.04,1.04.44,1.55.65-.26.34-.86.56-1.22l2.39-3.89c-.87-.37-4.03-.84-2.99-2.24,1.11-1.5-.53-2.01-.81-3.55-.15-.8.28-1.85-.32-2.56-.76-.91.15-1.8.07-2.52-.16-1.54-.64-2.76.26-4.19l-.06-2.26c-.03-1.04.34-2.09.47-3.21.28-2.46,1.45-4.62,2.31-6.88.29-.78,1.83-3.09,3.08-2.41-.95.84-.66,5.47-.71,6.1-.1,1.26-.33,2.23.12,3.47.26.72-.7,1.97-.26,2.77.49.89.87,1.79.26,2.78-.81,1.32,1.3,1.44,1.52,2.34.14.59-.2,1.09-.3,1.69l-.09.56c-.03.2.15.53.46.45.16-.04.23-.27.56-.63.81.92.72,2.09.73,3.63.74-.73,1.29-1.4,1.81-2.14.38-.56-.69-.85-1.02-1.03-.72-.38-.04-1.47.07-2.08-.76-1.41-1.22-3.2-.42-4.79-.99-3.49,1.15-2.14.32-4.21-.25-.61.55-1.24.56-1.8.01-1.4.4-2.44.81-3.69.23-.71.19-1.38.62-2.09s.49-1.73.78-2.68c0-.31.24.14.81-.14-.24.64.09,1.17.28,1.83.71,2.51.66,5.1.8,7.73.02.4.12.83.51.88.77.1.45-1.37,2.14-3.19.36-.39.47-1.06,1.12-1.18.44-.08.49-.09.37.36-.04.84-.07,1.62.62,2.39.66-1.65,1.5-2.9,2.26-4.28.07.59.49,1.4,1.04,1.36.58-.84,1.16-1.47,1.98-2.19.42-.37.64,1.79,1.08.83.66-1.4,1.66-2.39,2.91-3.04-.32,1.51,3.86-2,4.86-.57.34-.06.62.16.24.23-.82.75-1.45,1.55-2.32,2.06.19.29.36.48.26.62.17-.23-3.53,2.42-4.3,2.32,0,.37.53.52.43.79-1.06,2.75-1.83.94-2.62,2.66,1.21-.07,2.14-.18,2.74.56-1.09.88-3.01,2.29-4.37,2.56.14.36.57.58.58.83s-.37.78-.65.9c-1.32.58-2.35,1.39-3.57,2.14-.99.61-2.34.24-3.41.81.24.53.62.71.98,1.2,1.17-1.53,2.28-.67,3.46-.54s2.64-.79,4-.14c-1.71,1.62-3.33,3.22-5.31,4.42-.61.37-1.51.29-1.48,1.43l-2-.15c-2.1,3.09-2.65-.63-5.74,1.98.42.27.71.75,1.07.88.6.22,1.15-.86,1.68-.97.37.13.88.93,1.56.4.83-.64,1.78-.66,2.79-.87.46-.09,1.18-.39,1.33.33.45-.16-2.89,3.28-2.34,2.92-.68.45-1.24.5-1.73,1.26-.57.89-2.16.66-3.14.48-.39.52-.17,1.01-.37,1.47-2.58.88-3.94-1.38-5.05.51l-1.49,2.55c-.69,1.17-1.07,2.49-1.9,3.63-.21.28-.3.66-.15.97-.17-.36,1.56,1.39,1.15,1.22.51.21.5-.49.75-.72.62-.58,1.76-.27,2.32.37.64-.16.74-.81,1.09-1.31.42-.6,1.34-.55,1.91-.14l1.66-1.49c.63-.57,1.5-.98,2.37-.57.04,1.6-1.05,2.76-1.72,4.1-.52,1.04-.84,2.09-2.15,2.37-.11.02-.25.4-.26.51s.18.25.36.49c-2.18,2.01-5.28.22-5.97,1.31-.14.22.31.76.22,1.03-.08.24-.51.28-.8.48-1.13.76-2.57-.12-3.73,0-.76-.18-2.51,3.93-2.4,4.14.36.67.59-.27,1.98-.22.46.02.52.46.82.99.5-.64,2.35-1.48,2.87-1.15.36.23.37.66.45,1.42,1.61.01,2.96-2.11,4.55-.92.59-.29.93-.86,1.54-1.25,1.72,1.53,2.54-1.52,5.05-1.39-.37,3.06-1.32,2.96-2.75,4.67-2.03,2.44-2.78.83-3.98,2.06-.29.3.32.73.49.81-1.79,1.34-4.24.14-4.75.74-.17.2.15.56.05.89-.13.4-1,.79-1.49.75-1.06-.1-2.1-.62-3.15-.27-.33.11-.35.97-.86.92-2.09-.19-3.53-1.08-4.03-.35-.09.13-1.87,3.38-.76,2.88,1.29-.59,1.1-1.05,2.03-.49.71.43.1.73.18,1.8,1.08-.77,3.5-2.15,4.66-2.16.29.55-.02,1.05.19,1.75,1.91-.62,2.63-1.83,4.46-2.07l1.08,1.27c.89-.39,1.38-1.18,2.01-1.87.55.04.98.31,1.58.51,4.42-2.5,2.64.1,7.83-3.65.51.74.37,1.52-.11,2.21-3.95,5.65-3.94,2.96-5.87,5.45-.65.84-2.27,1.13-3.28,1.24-.96.1-1.08.73-1.64,1.15-1.3.98-3.12.76-4.67,1.05-.05.57.19.97,0,1.17-.59.61-1.53.45-3.29.6-.96.08-2.1-.64-3.19-.09-.18.09.3.73.2.9-.67,1.19-3.8-.23-4.97-.46-.86-.17-1.18,1.2-1.41,1.86l-1.27,3.7c.79-.38,1.51-1.19,2.36-1.09s.35,1.4.32,2.36c1.05-.87,3.84-3.42,4.78-2.9,1.31.72-.3,1.74.48,2.46l3.03-1.96c.5-.32,1-.22,1.48-.13.55.1.35.96.73,1.21.82-.19,1.33-.95,1.91-1.28.62-.35,1.08.36,1.41.73l3.04-1.47c.61-.29,1.46.24,2.02-.26s3.16-1.75,3.36-.43c-.59.84-1.08,1.92-1.9,2.57-1.33,1.05-2.68,2.15-4.17,2.95-.81.44-1.51.55-2.16,1.29-.48.54-1.59.46-2.22.81-.27.15-.4.51-.65.56-.56.09-1.01.42-1.4.62-.27-.16-.58-.6-.93-.5-1.11.31-.22.47-1.48,1.5-.37.3-.64,0-1.12-.09-1.02-.21-1.99-.11-3.13-.54-.16.78.29.99.38,1.4-.6,1.84-6.92-.3-4.11,1.83-.67.04-.81.65-1.06.98-1.01.13-3.19-.82-3.81-.36-.21.16-.48,2.26-1.08,3.49.62.17,1.04-.16,1.46-.62.36.25.69.58.95.94-.4.49-.78,1.17-.09,1.66,1.28-1.36,2.77-2.86,4.56-2,.3.14.25.49.43,1.02,1.02-.65,2.1-1.23,3.09-1.12.73.08.62,1.36,1.02,1.54.82.37,2.04-1.4,3.13-1.15.67.15.82.62,1.2,1.18.6.26.61-.82,1.45-1.22.39-.19.66.19,1.05.34,1.53.58,2.34-2.75,4.33-.98,2.51-.64,4.13-2.76,6.58-2.98.29-.03,1.46-1.09,2.08-.61.9.69-1.11,2.26-1.27,2.46-2.08,2.43-4.53,4.34-7.55,5.49.11.39.32.45.39.51.1.08.06.31-.1.44-1.17.97-2.78.85-4.22,1.24-.11.28-.01.7-.1.85-.48.82-3.89.22-5.02.57.2.52.2.79.02,1.06-.26.4-.59.11-.98.13-1.21.09-2.25.1-3.41-.36-.63-.25-.76.74-1,1.02-.65.75-1.65.08-2.38-.16-.6-.2-2.7-.81-2.98-.37-.3.48.32,1.86-.6,2.28-1.29.58-2.57-2.09-4.09-2.44-.54,1.16-.31,2.4-.66,3.46-.3.9-.42,1.58-.47,2.57-.04.77-.99,1.95-.16,2.78.38.38.83-.51.95-.83.44-.35,1.81-1.27,2.22-.48.1.2,0,.89.27,1.08.86-.31,1.33-1.31,2.01-1.79,1.11-.77,2.43-1.21,3.71-1.49.52-.03.51,1.16.85,1.34.86.45,3.49-1.4,5.27.08.26.22-.34.71-.23.92.41.74,2.08-1.63,3.29.27.08.3-.63,1.2-.03,1.26.95-.18,1.89-.65,2.77-.1l.14,1.29c1.12-.08,2-.51,3.08-.72.33.66,1,1.11,1.7.76s1.42-.3,2.19-.43,1.36-.79,2.1-.2c-.89.24-1.04,1.55-2.14.77-.77-.55-1.19.28-1.64.43-.48.16-1.37-.41-1.94.3-.26-.51-.45-.7-.68-.83-.26-.14-.84-.14-.9.24-.03.18.2.39.16.48-.06.15-.27.18-.35.13-.07-.04-.15-.47-.26-.48-.58-.02-.8.4-1.15.17-.53-.34-.72-.58-.87-1.13-.23-.86-1.06-.46-1.63-.29s-1.2-.31-1.66,0c.27-.69.27-1.15.71-1.58-1.45-.72-2.27.29-3.47.55-.46-.43-.27-.78.02-1.52-5.23-1.32-5.13,2.7-5.76.67-.09-.3.79-1.38.55-1.77-.37-.6-.68-.09-1.04.01-2.37.71-4.12,2.22-5.12,4.52-.07.15-.42.1-.45-.09.47-.44.14-.86.08-1.22-.05-.31.31-1.22-.19-1.29-2.19-.32-4.97,6.41-3.95,7.67.21.26.32-.02.51-.24.41-.46,1-.43,1.47-.89,0,.64-.4.91-.5,1.43-.31-.15-.5-.31-.76-.26-.2.04-.22.41-.39.55l-.89.75c.47.42.97.03,1.35.28-.31.67-.71.13-1.17.18-.22.03-.24.52-.14.58.21.12.53,0,.85.22l-.97.4c.33.22.99.29.62.63-.13.12-.57-.1-.76,0-.32.18-.31.54-.14.9.13.28.52.3.88.12.92-.46,2.78.94,5.36.11-.61-1.06-.82-2.18-.03-2.9.89.54,2.78.93,3.66.02.38-.4.13-.88.22-1.54s1.46-1.55,2.07-1.28c1.09.48,1.78.97,3.04.72.42-.08,1.03.41,1.33-.2.17-.35.48-.89.08-1.34.37-.06.54-.02.8-.08.23-.06.28-.32.51-.74.39,1.18,3.92,2.46,4.15,1.99.16-.32.01-.64-.19-.94.53.13.97-.15,1.32-.36,1.2,1.03,2.56.84,3.77,0,2.92-.6,3.27-.62,5.88-1.85-.24-.38-.45-.44-.56-.64.05.1.45-.68.74-.57.14.05.2.22-.01.43-.27.37-.06.77.31.39.73-.43,1.18-2.04.61-1.84l-.67.24c-.12.04-.36-.31-.33-.65.53.28,1.2-.06,1.67.28,1.62,1.19-3.59,3.99-4.38,4.37s-1.95-.12-2.78.38c-.47.29-.85,1.08-1.42,1.05-.95-.04-1.94-.84-2.92-.53-.45.14-.57.83-.94.85-.7.04-1.12,0-1.69-.3-.98-.52-2.1-.57-3.14-.95-.06.93-.26,1.45-.75,1.64-.67.26-1.2,0-1.81-.28-.89-.39-1.91.03-2.85-.28-.41-.14-.77-.07-1.05.15-1.12.87.99,1.52-1.01,2.41-2.88,1.28-2.49-.12-3.44.91-.23.25.22.66.17.94-.17,1-1.4,1.26-2.28,1.11-1.05-.17-2.03-.1-3.1-.17-.91-.06-1.65.62-1.61,1.59.07,1.64-.32,3.19-.43,4.83-.13,1.98-.22,3.78-.52,5.95,1.48-1.2,2.15-2.46,3.73-3.23l1.31,2.2c.44-.78,1.14-.95,1.79-1.37s1.12-1.07,2.01-.59l-.07,1.11,2.26-1.24c.26-.14.63.04.8.05.22.01.33.85.55.82,1.73-.26,2.86-2.16,3.88-1.68.25.12.14,1.38.79,1.04,2.13-1.1,2.38-2,3.75-1.92.31.02.39.68.75.96,1.04-.41,1.6-1.53,2.53-2.11l.79-.5c.21-.13.64.47.94.35,1.2-.48,2-1.65,3.1-2.2.65.38,1.11.18,1.66-.27,1.93-1.6,4.16-2.51,6.59-2.53-.43,1.01-1.04,1.66-1.8,2.19-.54.38-4.02,4.61-4.04,4.62l-2.18,1.25c-.38.22-.19,1.14-.75,1.32-1.13.36-2.3.56-3.32,1.28.22.65.36,1.04.09,1.41-1.3,1.78-3.92,1.37-5.16,1.53-.29.04-.18.58-.39.78-1.75,1.73-4.36.52-5.17,1.06s.17,1.75-1.59,2.12c-.85.18-1.58.6-2.5.32-.35-.11-.74.03-.98.21-.27.2.15.71.01,1.06-.62,1.53-4.36.69-5.41.64-.96-.04-.34,1.62-.62,1.91-.7.72-3.29-.89-4.2-1.64-.41,1.43.02,2.47-.18,3.65-.23,1.39-.55,2.83-.09,4.33,1.3-.67,2.04-2.09,3.33-2.27.74-.1.83,1.17.75,1.74,1.19.38,1.96-2.44,3.78-2,.58.14.51,1,.65,1.44.44,1.32,2.56-2.35,4.43-2.04.72.35.56,1.65.83,2.4.93.05,2.54-2.83,4-2.36.37.12.47,1.07,1.01.97,1.74-.3,2.89-2.59,4.39-.67l3.6-1.92c.4-.11.67.51,1.13.61.99-.87,3.21-3.16,4.34-1.48,1.24-.63,2.1-2.12,3.26-2.22l1.51-.13,3.33-2.24c.35-.23,1.12-.53,1.38-.17.51.7-.36,1.11-.72,1.5-.66.74-1.34,1.42-1.93,2.2-.98,1.29-1.93,2.51-3.39,3.31-1.86,1.01.52,1.33-3.97,2.47-1.42,3.34-3.54.96-4.05,2.8-.2.72-.65,1.23-1.46,1.23.07,0-3.01.53-2.92.45-.2.16-.28.57-.48.85-.49.69-1.43.26-2.14.44-.82.21-1.48.62-2.42.48-1.78-.27,1.02,1.91-.85,2.18.21-.97-.21-1.92-.95-2.69.18-.26.39-.51.39-.88.05-.27.19-.29.3-.02-.15.3-.14.64.04.82-.45-.44,2.18.48,2.92-.36.66,0,1.77.32,2.23-.41.23-.36.15-.75.1-1.13.96-.23,1.87.11,2.75.05,1.44-.09,2.51-.9,2.42-2.39.94.14,1.78.16,2.63-.19.66-.27.59-1.22,1.06-1.61.57-.48,1.52-.35,2.18-.59s.52-.62.7-1.03c.37-.82,1.49-1.13,2.26-1.57.88-.51,2.61-3.1,2.6-2.97.02-.25.03-.78-.33-.83s-.63.33-.81.46c-.45.34.95.31-1.16,1.75-.28-.4-.57-1.55-1.09-1.32-1.28.57-2.12,1.94-3.46,2.24-.26.06-.59-.57-.86-.58-1.19-.04-2.68,1.83-3.86,2.02-1.25-1.44-2.66,1.16-4.42,1.53-.21-.45-.6-1.25-1.14-1.06-1.14.4-2.04,1.21-2.87,1.95-.5-.15-.88-.53-1.19-.99-1.22-1.8-2.9,2.85-4.37,1.79-.6-.43.14-1.7-.62-2.22-.88-.61-3.31,2.51-4.48,2.75-.61.09-.08-1.7-.79-2.08-.32-.17-.72-.04-1.01.23l-2.07,1.99c-.19.19-.66.42-.88.3-.64-.37.34-2.32-.66-2.09-1.36.31-1.93,1.68-2.64,2.68-.82,1.14-.83,2.57-.35,3.74.71-.27.92-.56,1.2-1.11-.02.85-.63,1.58-1.57,1.7-.43-5.05.01-10.01-.3-14.76-.69.99-.3,1.91-.34,2.88-.17,3.57-.23,7.07-.04,10.63.16,3.01-.29,6.62.05,9.07.58,4.23-.05,5.05.66,7.84.2.79-.22,1.81.1,2.59,1.13,2.75.13,3.24.11,4.89,0,.29.41.4.48-.07.05-.29.22-.37.2-.07.33.55-.23,1.24-.02,1.69.57,1.24.55,3.46.68,4.13l.6,3.3c.14.76.43,1.19.53,1.8.36,2.14.08,1.54.95,3.92s1.23,4.98,2.1,7.88c1.22,4.05,2.51,7.88,4.47,11.64.29.56,2.56,5.1,2.85,5.02.96-.28-.09-1.32-.76-2.65l-2.11-4.19c-.53-1.05-.76-2.07-.99-3.25-.12-.04-.29-.11-.35-.09-.14.04-.33-.05-.22-.34.1-.23.14-.42.21-.65.06-.21.04-.55-.4-.44-.33.13-.33-.1-.18-.38.24-.57.07-1.05-.24-1.5-.45-.67-.25-1.57-.62-2.25-1.49-2.67-.81-1.94-1.64-5.13-.26-1-.78-1.83-.87-2.91-.05-.64-.89-1.33-.86-1.9.31-.93.03-1.37-.42-2.16-1.09-1.9-1.02-5.46-1.46-7.13-.21-.79-.27-1.41-.31-2.21-.04-.95-.55-1.84-.33-2.9.19-.92-.33-1.77-.44-2.64-.21-1.59.36-3.24-.14-4.78-.15-.46-.92-.69-.66-1.44.79-2.28.31-4.44-.27-6.68-.3-1.17.56-2.88.11-4.19.88-.37.12-1.79.72-1.6.21.07-.46,1.17,1.63,3.68.88,1.06,2.05,1.9,3.41.94-3.58-4.33,3.82-1.12,5.98-1.82.28-.59-.18-1.37.16-1.89.42-.65,1.32-.07,1.89.07,2.27.56,3.61-.65,3.35.59,0,0-3.84-.01-4.55-.17-.38.3.3.81.27,1.03-.51,2.24-8.01-.55-7.18.85.29.5.75,1.31.25,1.79-.82.79-2.06.53-2.91-.12-.79-.6-1.25-1.44-2.3-2.03-.54,1.36.06,2.7.12,4.07.01.33.09,6.37.98,4.78.56-1,1.63-1.83,2.51-2.54,1.54.75-.61,2.18.38,2.66.89-.82,3.44-2.39,4.25-1.44.65.76-.86,1.88.05,2.88.87.34,4.08-3.17,4.79-2.6.31.24-.37,2.1.51,2.76,2.35-1.61,2.39-2.25,4.96-3.32.72,1.36.42,5.29-.26.79-1.43.16-2.71,1.27-3.17,2.6.54-.4-2.94.33-2.11.77-.55-.8-.56-1.8-.6-2.98-2.69,1.35-2.71,3.26-5.02,4.73.36-.87,1.15-1.35,1.63-2.18-.4-.11-.75.09-1.13.08-.79-.78-.11-2.11.07-3.04-1.8-1.09-3.8,2.28-4.59,1.71-.28-.2-.95-.76-.64-1.07.56-.56,1.37-1,.71-1.91l-2.25,2.4c-.85.91-.73,2-.38,3.03.16.47-.52,1.38.05,1.84.16.06.71-.38.73.08-.24.37-.77.33-.86.6-.45,1.31.66,3.77,1.34,3.67l.54-.08c.14-.02.17.31.37.48.26.19.39-.18.55-.15.31.06.48.58.62.73.58.56,2.54,1.63,2.56,1.63,1.24-.46-1.32-2.76-.11-2.44.91.77.98-.29,3.52.89.17-.17.31-.54.31-.67,0-.2.33-.54.6-.27s.39.69.69.79c.38.13.76-.08,1.01-.4-.01.02.35-2.13-.39-2.26l5.1,1.03c.27-.22.28-.6-.03-.73-.17-.08-.28-.22-.31-.3-.05-.21.09-.36.38-.51.18.05.49.55.69.26.17-.24-.03-.49-.28-.7,2.31-1.61,3.97.12,4.92-.87.77-.8-.09-1.87.91-2.03.18-.03.28-.15.31-.26.02-.1.01-.23-.15-.49.36-.33.69.59,1.04.57.55-.04.92-.59,1.62-.18.99.59-2.02.78-2.55,1.12-.1.61-.1,1.34-.91,1.65-1.11.43-2.29.36-3.43.38-1.02.02-.62,1.37-.96,1.78-1.45,1.71-4.4-.07-4.95.22-1.09.57.4,1.78-1.76,2.34-1.37.35-2.8-.53-4.16-.42-.67.05.14,1.01.28,1.31.26.56-.89,1.06-1.48.84-1.71-.62-3.86-1.81-5.22-2.93-.65.34.02,1,.01,1.44-.02,1.12.22,2.07.41,3.13l.42,2.45c.12.7.31,1.27.58,1.93.06.15.1,2.28.58,2.68.81.68,1.76-3.64,3.5-2.9.58.25-.14,1.46.55,2.14.92-.21.88-1.07,1.4-1.52.61-.53,1.68-1.05,2.47-1.2.65-.12.99.91,1.3,1.47.93-.72,1.74-1.46,2.72-2.08,1.46-.93,1.82.98,2.42,1.04,1.02.09,1.73-2.77,3.09-2.69.43.02.61.36.88.79.93,1.49,2.83-2.92,4.59-2.88.31,0,.63.67.97.66.75-.02,1.1-.94,1.53-1.46,1.76-2.12,2.04.32,3.53-1.57,3.66-4.65,1.73.36,5.01-4.55.29-.36,1.08-.32,1.42-.7l2.84-3.12c.33-.36.82-.11,1.11.17s.01.53-.19,1c-.75,1.79-1.54,3.75-3.01,5.06-.72.64-1.17.96-1.34,2.03-.1.61-1.05,1.44-1.56,1.71-1.83.95,1.59,1.33-3.71,4.17-.11.56.24.99.19,1.59-1.57,1.27-3.43,1.99-5.39,2.5-.21.05,0,.57.13.79ZM149.22,30.57c-.81.73.78,2.19,1.09,2.09.24-.08.31-.44.65-.5.06.65-.53,1.34-.11,1.84.49.38,1.67-1.55,1.62-1.71-.07-.26-.35-.37-.55-.51.31-.09.65-.11.75-.37.06-.14-.16-.33.1-.54.44-.35.32-1.05.61-1.51-.62-.84-1.5-1.14-1.89-1.99.95.13,1.05.99,1.72,1.18.31-.88-.76-.91-.76-1.41,0-.37.93-.73.11-1.18-.12.47-.79,1.28-1.28.86-.4-.34.32-.35.44-.47,1.18-1.19,1.22-3.11,1.19-4.73-.03-1.79,0-3.32-.49-5.01-.21-.72.12-1.64-.8-2.15-.1,1.72-1.11,2.26-.37,2.82.13.1.46.06.53.23.1.21-.26.53-.4.52-.13-.01-.08-.36-.54-.64-.21.55-.79,1.21-.65,1.82l.35,1.54c-.48.93-1.45,1.63-1.13,2.92.88-.45.92-1.33,1.55-1.77-.37,1.59-1.52,2.39-2.07,3.85.16.28.63.11,1,.41-.56.5-1.28.64-.91,1.56.41-.05.38-.74.82-.5-.09.52-.64.59-.55.92.07.26.46.3.56.75-.33.26-.39-.16-.68-.44-.39.24-.86.76-.5,1.09.22,0,.65-.46.64-.15,0,.22.08.42,0,.48-.1.06-.36.01-.58.06-.24.05-.21.5,0,.54l.52.1ZM153.6,41.4c.31-.17-.31-.7-.25-.83s.31-.13.45-.18c.27-.1.19.59.32.66.9.49,1.16-.78,1.6-1.24.29-.3,1.44-.48,1.05-1.23-1.5-.12-2.94.65-4.16,1.09-1.04-1.25-1.42.74-2.48.6-.39-.05-.55-.36-.89-.69-.43-.41-.89.09-1.26.29-.17.09-.51-.18-.62.07-.06.13.33.47.13.56-.27.1-.44-.2-.56-.19s-.24.25-.19.32c.07.1.45.18.41.41-.08.42-.38.02-.61-.26-.49.45-.33,1.22-.63,1.82-.85-.78.15-1.15.12-1.8-.36-.45-.59-.62-.3-1.03.25-.35.31-.61.94-.46-.62-1.37,1.75-2.04.77-4.35-.69.17-1.1.52-1.74.53.14-.96.44-1.87-.04-2.68.31-.29.58-.41.73-1.04-.78-.14-1.45-.32-2.13.11.33-.89.3-1.74.56-2.58.23-.74.45-1.47-.39-2-.42.23-.62.83-1.21.93.41-.86,1.15-1.1,1.03-1.93-.02-.13-.21-.39-.35-.39-.12,0-.16.54-.34.49-.59-.16-.08-.51.07-.77s.68.19.8.01c.61-.92.14-2.13-.63-2.75.27-.33.47-.61.44-.91-.02-.21-.41-.45-.35-.79s.4-.62.33-.89c-.04-.16-.35-.38-.35-.57.83-.52.96-3.21.6-4.31-1.13,1.01-1.74,2.32-2.11,3.76-.23.88-1.6,2.55-1.07,3.49.33.59.29-.5.41-.61.06-.06.35.26.32.34-.6,2.05-1.71,1.83-1.25,3.22.39-.07.66-.4,1,.09-3.16,1.76.13,3.3-1.75,5.18-.11.11-.13.47-.1.62.02.11.22.07.44.05.33.53.73.12,1.26.13-2.37,2.31-.26,1.56-1.56,2.87.43.71,1.14.98,1.42,1.72-.35,0-.24-.21-.37-.25-.31-.1-.51,0-.57.13-.19.41.72,1.52,1.04,2.45.18.51-.35,1-.3,1.48s.61.59,1.02.77c-.25.56-.69,1.08-.63,1.77.73-.07.87-.68,1.42-.55-.12.44-.7.82-.27,1.11l1.98-.11c.19-.01.15-.81.43-.62.14.09.34.51.5.51.99.06,1.37-1.06,2.1-1.52.51-.32,2.56-.6,3.34.18.06.06-.17.17-.2.24-.16.4-1.07-.66-1.56-.03-.44.57-1.02,1.13-1.2,1.81-.1.37.57.38.61.16.15-.84.88-.43,1.03-1.83.55.32,1.12.8,1.44.43.62-.71,1.51-.59,2.3-1.02ZM155.03,25.6c-2.15-.82-.5,3.86-.11,3.74.07-.02,1.41-1.93,1.78-2.8,1.32-3.07.47-1.58-.12-4.7-.88.5-.21,1.05-.38,1.67-.41-.16-.31-.54-.41-.68-.19-.3-.51-.06-.7.19-.3.39,1.19,1.6.55,2.2-.25-.55-.33-1.28-1.12-1.4-.05.86.41,1.22.5,1.78ZM162.2,25.7c.3-.43.69-.52,1.37-.72-.2-.43-.78-.18-.84-.81,1.15.69,2.14.16,2.87-1.09-2.24-.47-2.74.4-4.3-.26-.1-.04-.27.49-.04.52.11.01.27.11.47.33-.4.14-.89-.43-1.36-.16s-.74.79-1.09,1.14c.52.36,1.51,1.15,1.6,1.09.12-.08.31-.19.38-.42s-.86-.45-.75-.79c.08-.23.26-.19.56-.06l.88.4c.18.08-.17.49.24.83ZM160.87,32.89c.18-.36-.64-1.3-.98-1.16-.21.44.36.46.41.55.04.06-.23.22-.34.35-.51-.46-1.09-1.06-1.92-.95,0,.53.58.58.24.99-.16-.38-.96-.89-1.22-.44-.16.31.46,1.02-.03,1.39-1.26-1.74-1.48-.4-1.83-1.97-.56.25-.89.74-1.35,1.13.25.51.62.76.65,1.36-.71-.4-1.77-.55-2.54-.21-.54.25-1.23.98-1.26,1.67.61.01,1.18-.24.75.32-.52.06-1.06-.16-1.43.17-.24.21-.89.61-.6,1.22l4.44.04c.4-1.28,1.52-1.4,2.62-1.04,1.35-2.17,1.33-.21,4.37-3.43ZM139.56,53.12c.67.52.91-.09.4-.39-.3-.6.27-3.28-.19-3.68-.12-.1-.51-.19-.52.07l-.11,1.77c-.6-.5-.07-1.37-.24-1.9-.86-2.61.69-2.92-.3-4.08-.23-.27-.61-.16-.81.17-.56.91.2,1.68-.38,3.1l-.69-4.07c-.14-.85.2-1.8-.45-2.59-1.14-1.37.57,1.86-.98,1.39.71-.7-.2-3.7-.41-4.46-.32-1.19-.24-2.46-.95-3.62-.38-.63-.3-1.32-.27-2.01-.92.3-.69.99-.72,1.59-.01.25,1.23,1.52.69,1.96-.13.1-.77.12-.69-.08.16-.42.65-.54.28-.89-1.19-1.11-.76,3.13-.72,2.92-.22,1.14-1.2.09.23,3.91-.26.41-.77.67-.78,1.08-.03.96.99,1.23,1.57,3.26-.19.07-.9.14-.85.39.3,1.55,1.24,2.59,2.21,3.56-.45.08-.94.32-.78.71.07.18.26.39.49.56.19.14.5-.16.7-.14-.3,1.31.44.86.67,1.75.05.2-.38.4-.39.61-.04.84.87.94,1.42,1.26.45.26.7.55,1.05.35,1.33-.77-.19-2.07,1.26-1.55l.25-.96ZM137.26,60.56c.26-.58.61-.91.73-1.51.39.39,4.28.82,4.45-.04.13-.65-.08-1.89,1.05-1.96.83-.05.95,1.06,4.69.05-.63-.6-.38-.93-.24-1.41.2-.7.87-.14,1.3-.25.76-1.03,1.65-2.06,2.16-3.19l1.08-2.41c-1.53.43-2.42,1.34-3.33,2.37-.11.36-2.94-.86-1.31.47-1.93,1.41-.93.2-3.04,1.26-.09-.48-.21-.66-.42-.79-.12-.08-.45.05-.53.3-.03.09,0,.13.02.38-.37.21-.58.58-.73.86-.21-.22-.41-.55-.6-.38-.14.13-.22.3-.42.43-.24-.69-.57-1.26-1.27-.97.03.33.41.49.31.81-.35-.04-.47-.31-.65-.32-1.12-.04.64.75.55,1.19-.14.68-.7.77-1.6,1.25-.25-.67.18-1.2-.26-1.88-.73.65-.61,1.49-1.09,2.19-.86,1.26-1.23,2.73-1.94,4.1-.48.93-.46,2.11-1.63,2.83-.4-1.29-.72-2.57-.69-3.89,0-.19-.44-.38-.49-.11-.13.61.25,1.13.05,1.68-.23.13-.35.14-.41.05-.38-.71.94-3.4-1.24-6.62-.27.56-1.13.78-1.32.44-.49-.88-.58-1.72-.71-2.5-.43-2.65-2.32.01-2.46-3.5-.04-1.01-.52-1.52-1.21-2.08-.12-.1-.08-.45-.18-.52-.14-.09-.26-.12-.31.06-.05.14-.07.39-.5.34.63-1.98-.21-4.14-1.67-5.8-.41-.47-.48-1.34-1.24-1.45-.53.89.21,1.79.08,2.61-.15.89-.53,1.64.13,2.48.71.9-1.12,1.89.45,3.17-.18.09-.58.41-.45.49.5.31.29.54.35.9.2,1.11,1.39,2.54,1.22,2.63-.13.07-.18.28-.25.23-.1-.08-.16-.54-.29-.59-.49-.19-.73.61-.5,1.01.14.26.3.58.88.61.2.33-.03.7.19.96.44-.63,1.2,1.45.56,2.3.67.09.63-.61,1.22-.42-.11.29-.34.42-.49.48-.29.11-.09.48.11.47.17,0,.32-.22.37-.15.04.06.28.2.23.25-.07.07-.36.14-.45.24-.36.42.17.63.46.94.17.17.41-.03.71-.01-.06.35-.32.46-.25.55.11.14.28.34.37.27.11-.08.37-.23.75-.61-.22.34-.19.44-.33.82,1.95.92-.36,2.43,1.93,1.08.18-.11.36.32.21.44-.17.14-.94.25-.94.83,0,1.04,1.75-.52,1.96.01-.13.47-.57.24-.76.62.53.56.88.07,1.42.05-.18.56-.76.96-.23,1.31s1.14.22,1.61.15c-.5.38-.87.51-1.18.86-.43-.14-.61-.52-1.01-.43,0,.61.17,1.02.41,1.19.2.15.82-.41.99-.2.33.42.8,1.49,1.4,1.11.41-.26.39-2.31.69-2.84.46.31.75.34.84.59.09.27-.33.44-.33.64-.01,1.36-.89,1.38-1.41,3.3.81,1.13.67-.6,1.61-1.29.12-.09.38.05.42-.03.08-.17,0-.3-.09-.33-.06-.02-.12-.13-.27-.27.75-1.12,1.2-2.44,1.75-3.68l.99-2.24ZM128.25,72.74c-.17-.73-1.17-.93-1.71-1.29.14-.66.76-1.61.04-2.2-.22.55.02.98-.47,1.33-.36-.45.05-1,.11-1.41-.05-.28-.44-.31-.54-.21-.68.65.37,1.23-.67,1.14.35-.75-.52-.84-.69-1.17-.34-.69-.03-1.74-.81-2.19-.17.27-.05.58-.34.73-.28-.55-.09-1-.47-1.46-.49.8-1.95-.37-1.92-.17-.02-.16.01-.33.06-.64.02-.67-.63-.63-.63.03,0,.47-.26.16-.36.06-.61-.62,1.26-.52.27-2.26-.57.33-.43.83-.9.86.25-.36.46-.77.21-1.04-.29-.33-.64-.39-1.18-.5.35-.73.71-1.47.15-2.27-.62.3-.15.75-.46,1.23-1.24-1.16.14-2.23-.34-3.04-.27-.47-.59.38-.82-1.43-.42.17-.75.44-.9.12.38-.51.54-.86.39-1.05-.21-.26-.66-.31-.85-.45.03-.5-.07-.98-.52-1.39-.38-.34-.1-1.23-.7-1.53-.47-.24-.76.71-.79,1.11-.03.45.67.33.9.95-.52.25-.49-.43-.87-.54-1.11,3.07.21,1.39-.04,3.11-.06.44.66.35.94.69-.36.38-1.02.41-.96.96.08.83.66,1.48,1.12,2.07.39.49-.39,1.13-.2,1.45l1.7,2.95c.19.33-.4.87-.19,1.31.2.41,1.56,1.33,2,1.44-.31.53-.77.75-.9,1.14-.26.81.65.93,1.08,1.25.61.45.98.82,1.91.72-.4.62-1.28.72-.93,1.3.62,1.04,1.67,1.58,2.62,2.18-.16.45-.49.74-.49,1.21,1.32,1.23,3.93.72,4.8,1.96-.09.42-.49.7-.43,1.13.56.78,1.83.52,2.49.11.47-.29,1.09-1.29.87-1.91-.53-.56-1.28.1-1.92-.17.35-.14.77-.53,1.16-.51.31.03.93.63,1.22.1,1.11-2.1-.42-4.47-.36-3.96-.03-.28.53-.66.47-.96-.04-.21-.26-.27-.41-.23-.67.19-.22,1.21-.76,1.34ZM140.99,69.85c.14.09,0,.5.18.67.25.24.61-.1.59-.32-.03-.24-.08-.49-.2-1,1.11.18,3.88-1.52,3.81-1.9-.14-.73-.94-.24-1.3-.16-.84.17-1.66-.31-2.55,0,.26-.88.75-.37,1.38-.44-.2-.57-.66-.92-.98-1.3-.83.35-.68,1.26-1.55,1.36.17-.85.97-1.1,1.37-1.73-1.45-1.26-1.9.42-3.02.76-.71.22-.79-4.06-1.3-.75-.1-.16-.26-.47-.44-.46-1.28.04-.15,1.3-1.97,1.79.4.68.95.81,1.17,1.51-1.16.04-1.52.92-2.18,1.52-.35.31-1.23.83-.48,1.38.46.1,1.21-.64,1.86-.42-.13.33-.51.19-.73.33.32.59.7.49.94.28.11-.1.16-.37.56-.42.08.5-.35.83-.1.91.45.14,1.04.25,1.16-.06.2-.49-.37-.69-.62-.97.86-.37,2.16-1.92,1.69-.07.77-.23,1.16-.83,1.87-.94-.22.34-.5.39-.55.55-.11.29.21.55.45.43.48-.24.69-.72.95-.56ZM128.91,80.54c.41-1.18,1.05-2.19,1.17-3.29.08-.77.39-1.11.7-1.74.62-1.27,2.16-5.32,2.24-6.49,0-.12-.54-.33-.58-.16-.49,1.89-1.47,3.4-2.03,5.2l-.63,2.03-2.51,6.94c-.14.39.31,1.02.56.89.72-.92.69-2.26,1.08-3.37ZM123.96,87.61c-.07-.04-.34.29-.36.37-.02.09-.28.15-.25-.14.04-.35.54-.55.47-.84-.05-.22-.08-.57-.47-.64-.04.65-.33,1.05-.9,1.3,0,.47-.15.91-.36.3-1.47-.15-.69-1.6-1.22-1.84-.23-.1-1.35.6-.88-.07.22-.31.92-.46.58-.98-.07-.1-.42-.29-.63-.1-.34.31-.24,1.16-.94,1.03l1.11-1.89c-1.2.21-1.65,1.07-1.62,2.16-.69-.14-.28-.71-.58-.85-.49.83-.84.29-.13-.19-.06-.35-.67-.22-.89-.44.04-.24.41-.58.31-.88-.05-.16-.34-.15-.62-.11.15-.47.16-.97-.08-1.24-.35-.4-1.08-.51-1.3,0-.17.39.06.85-.46.99.01-.87-.54-1.33-1.33-1.42-.14-.41.15-.87-.33-1.09-.26.17-.28.88-.39.78-.18-.17.13-.55-.27-.48-.19.03.11-.26.26-.33.4-.18.33-.78.08-.99-.13-.11-.25-.02-.56-.09.08-.35.23-.65.15-.84.06.15-1.74-1.2-1.98-.68l.45-.8c.07-.11-.04-.52-.23-.49-.23.03-.6.19-.63.04-.06-.26-.33-.48-.22-.62s.45-.22.45-.37c.02-.42-.38-.54-.56-.36-.07.08-.13.19-.44.29.72.13-1.74-4.22-2.09-3.82-.15-.32.33-.74.08-1.08l-.73-.43c-.21-.12.07-.69-.19-.85-.36-.23-.76.17-.68.52.05.22.15.5.36.88-.66.25-1.46,1.06-1.29,1.75.24.97.58,1.65,1.47,1.94-.08.54.24.89.11,1.31-.43-.23-.56-.46-.85,0,.48,1.04,1.15,2.11,2.34,2.26-.33.52-1.03,1.05-.94,1.76.08.64,1,.73,1.27,1.16.43.69.86,1.2,1.7,1.04-.28.37-.12.82.14,1.07.15.15.53-.03.75.07,1.06.39-1.92.46-1.25,1.46.56.84,1.7,1.34,2.61,1.5.46.08.94-.59,1.27-.09-.38.19-.73.03-.96.36.42.37.77.35,1.17.49.04.67-.75.83-1.25,1.22.5,1.9,2.92.87,4.54,2.12-.64.33-1.56.74-1.13,1.4.4.62,1.24.22,1.57-.05.68-.55,1.4.23,2.04.15.78-.1,1.48-.3,1.97.46-.28.31-.64.69-.51,1.11s.7.49,1.05.42c.21-.04.7-.16.58-.58-.17-.2-.81.2-1.04-.33.55-.69,1.75.51,2.13.01.1-.13.36-.65.11-.66l-1.89-.1c.58-.61,1.48-.11,2.17-.36.49-.18,1.55-4.31.13-4.6ZM130.04,80.93c-.53.12-1.1.57-1.06,1.15,1.01.2,1.56-.38,2.35-.51.29-.05.05.41-.08.31-.05-.04-.44-.05-.51.17-.2.63,3.22,1.66,2.98.97l-.3-.87c-.09-.26.56-.43.79-.56.94-.55,1.21-.1,1.93.19,1.24.51,2.7.11,4.15.15-.16-.76-.63-1.15-.3-1.61.2-.28.64-1.21,1.06-.87,1.94,1.55,4-.05,3.85.14.11-.14-.09-.51,0-.73,1.14-1.08,3.16-.41,4.85-1.57l-2.41-.38c1.84-.62,3.47.94,2.85-.47-.25-.58-1.54.26-2.62-.77.78-.13,1.27-.36,1.9-.73,1.05,1.76,3.23.2,4.23-.66-.64-.45-1.22.2-1.7-.42.76-.39,1.35.08,2.08.07.98-.82,1.78-1.84,2.14-3.23-1.13-.04-1.46.75-1.81,1.38-.74,1.34-1.18-.73-4.12.96.03.22.21.44.18.53-.04.14-.3.18-.35.12l-.3-.36c-.3-.36-1.14.37-1.64.69-.36.23-.64-.45-.83-.33l-1.86,1.13c-.42.26-1.24.39-1.65.37-.36-.17-.66-.55-1.15-.56-.55-.01-.63.22-.82.71-.5-.23-.89-.25-1.3.15-.63.61-1.56.57-2.1-.12-.29.07-.45.42-.62.45-.22-.23-.1-.57.1-.64.11-.04.48-.11.36-.48-2.63-.22-3.43,3.42-3.92,2.47-.07-.13.03-.32.13-.31.08.01.48-.2.41-.32-.44-.7-1.16-.04-1.7.2-.04-.51.76-.58.62-.97-.08-.22-.32-.6-.54-.77-.56-.42-2.33,1.71-2.18,1.38-.53,1.16-1.32,2.17-1.22,3.53.91-.49,1.13-1.2,1.91-.95.29.43-1.07.3-.72.73.08.11.32.15.42.43-.68-.05-1.32-.42-1.88.29.42.42.87.15,1.4.24-.03.22-.24.41-.37.45-.14.04-.42-.23-.63-.18ZM148.34,103.93c1.6-.98,3.41-1.91,4.17-3.76-.85.1-1.53.58-2.08,1.07-1.48,1.33-3.36,1.85-5.17,2.68-.32.15-.58.56-.81.48-.31-.09-.92-.3-.59-.67.16-.19.66.21.85.09.47-.31.09-.38,1.75-1.29-.5-.54-1.21-.19-1.63.17-.4-3.13-2.92,2.41-4.24.32-.72.25-1.67.67-2.22,1.41-.19.25.61.77.83.63,1.85-1.2,1.8.62,2.52-1.14.12.1.32.5.55.41.47-.18.61-.63.96-.93.06.57.27.79.64,1.27l-2.74.69c-.75.19-1.7.12-2.31.34-1.11.4-2.15.9-3.19-.23-.08.8-.73,1.24-1.25,1-.31-.15-.88-.77-.54-1.22.52.31.59.8,1.04.79.16-.51.63-1.25,1.12-1.05.28.11.27.69.46.74.42.11,1.43-.71,1.59-1.03.19-.39-.45-1.64-.87-1.69-1.04-.13-1.84,1.65-3.97,1.29.27-.64.35-1.16.1-1.47-.74-.91-2.91.78-3.43,1.06-.37.21-.62.12-.89-.2-.47-.55.89-.94.16-1.41-.28-.18-1.96.67-1.91.64-.89.57-1.48,1.59-2.65,1.69-.43-.48-.15-1.12-.56-1.81-1.41.55-1.84,2.04-2.18,3.54-.5-1.04,2.07-7.21,1.06-8.36-.11-.13-.32-.05-.38.03.27-.39-1.55,7.59-1.86,8.36-.33-.97-.88-1.54-1.72-2.17.54,0,1.97-2.38,1.97-2.34.04-.37-1.24-3.78-2.12-4.05-.34,1.05-.58,2.04-.36,3.14-.15-.24-.49-.18-.86-.15-.59-1.48-1.78-3.19-3.6-3.46-.73-.11-1.28,1.26-1.02,1.83-1.25-.74-.26-2.12-2.44-2.46-.23-.04-.31-.69-.74-.59-.32.07-.29.47-.43.69l-1.16-.12c-.36-.04-.71-1.36-1.52-1.32-.59.03-.59,1.03-1.22.9-.37-.07-.49.32-.61-.26-.16-.8-.85-1.4-1.21-2-.24.25-.24.43-.32.53s-.42-.02-.37-.23c.09-.35.41-.53.35-.86-.04-.22-.78-1.42-1.17-1.11-.16.12-.14.43-.25.75-.05-.14-.14-.31-.3-.37-.15-.06-.3.02-.7.14.21-.6-1.29-3.38-1.63-3.42-.17-.02-.25.33-.47.42-.23-.77-.85-.59-.69.1.1.41-.21.1-.31.02-.25-.2.09-.38.08-.63-.09-1.42-1.13-2.77-2.54-2.66.22-.49.32-.68.2-.93-.05-.11-.27.1-.67.1.57-.61-.61-2.17-.64-2.17-1.04-.14.31,2.89.42,3.04.37.53.55.9.62,1.59.11,1.01,1.24,1.88,1.26,2.88.02,1.1.31,1.67,1.25,2.34.31.22.33,1.07.92,1.12-.5.18-1.25.02-1.19.5.04.35.44.51.6.57.33.13.94-.93,1.28-.36.1.17-.03.35-.19.31-2.41-.64,1.65,1.51,1.16,1.67.01.5-.63.81-.34,1.57,1.09-1.28,2.59-1.13,3.7-.39-.99.22-1.84-.12-2.75.3.27.7.99.27,1.47.42,1.05.34,1.93.79,3.1.91-.36.74-.91.06-1.31.63,2.49,1.48,3.04.05,4.74,1.27-.4.53-.51.84-.85,1.48,2.21,1.01,1.59.77,3.24.07.4.43.84.6,1.45.57-.18.18-.42.98-.1,1.01.62.06.86.6,1.23.73.51.18,1.23-.24,1.75-.36.86-.2,1.41.79,1.93,1.4.31.21.18.29-.02.32l-.46.07c-.43.06-.7.23-.88.57-.16.29.21.46.47.65.28.21.51.13.56-.25-.67-.08-.77-.38-.21-.33.75-.47,1.06,1.66,1.51.6.2-.49-.7-.57-.48-.98.09-.16.28-.17.36-.13s.12.55.28.58c.48.1.35-.57.32-1.07.47.11.32.58.69.85.39-.48-.06-.97.67-1.18l-.1,1.7c-.02.37-.7.79-.37,1.37.71,1.22,1.4-2.97,1.48-3.35.31.73.21,1.42.69,1.82-.58.28-1.59,1.38-1,1.97.33.33,3.54,3,3.87,2.43.51-.87-1.3-1-1.54-1.98-.06-.26.39-.47.55-.44.8.16.79,1.23,1.22.31.22-.48-1.16-.56-.41-.94.31.25.52.69.8.59l.67-.25c.92.59,1.8.79,2.83.12.03.64-.57.44-.77.78.76.42,1.08-.4,1.62-.49.71-.11.87-.7,1.06-1.17l2.42.98c.33.13.6-.46,1-.48.33-.02.3.43.09.44-.09,0-.38.12-.33.22.31.57.78.09.98-.21.12-.19.05-.41,0-.83l1.55-.42c1.23,1.04,3.63-.41,3.77-.56.11-.12-.12-.59.03-.66,1.83-.83,4.17-.29,4.14-1.21-.03-.86-1.96-.2-1.96-.97,5.42.33,2.29-.93,5.3-.95-.03-.61-.44-.5-.64-.75.41-.22.62.06,1,.17ZM126.44,95.2c-.75.15-1.53.23-1.79.97.97.34,1.51-.23,2.32-.37-.67.69-1.46.83-2.44.85-.4,0-.39.78-.11.9.6.25,1.23-.51,1.52-.35.22.12.14.51.24.77.23.61.69.03.93-.26.26-.31.02-.55-.4-.89,2.62-.1,1.17-1.29,2.08-.96.12.05.35-.05.23.14-.7,1.06.7.23,2.49.55.37.07.77-.15.86-.42.03-.09-.88-1.83-.26-1.71,1.09.21,1.94.06,2.91.11.38.02.82.64,1.28.36.53-.32.7-.97,1.06-1.45,1.81.35,2.69.73,3.72-.87-.15-.27-.4-.26-.71-.54,1.41-.41.89.26,2.38.34.39.02.87-.67.57-.81l-2.24-.21c.28-.12.85-.41,1.15-.35,1.25.63,3.28.05,3.85-1,.73-.16,1.3-.64,1.91-1.2-.07.07,2-.5,2.77-2.9-1.05-.33-1.64.51-2.08,1.22-.24-.31-.45-.45-.64-.42-.12.02-.39.32-.55.27-1.61-.47-2.99,1.34-4.66,1.8,0-.6-.02-.93-.24-1.11-.12-.09-.54-.22-.67.17-.07.21.51.55.03.76-.22.1-.39.45-.64.06.39-.13.63-.63.31-.64-.75.2-1.04.92-1.69,1.18-.46-.42-.95-.73-1.63-.52.02-.27.2-.47.12-.83-.65.31-1,.87-1.31,1.52-.35-.19-.44-.52-.61-.48-.25.05-.42.29-.63.44-.59.43-1.33.29-1.95.69-.21-.81.23-1.37.23-2.2,0-.27-.4-.15-.42-.02s-.08.29-.18.53c-.11-.14-.21-.26-.34-.39-.33-.32-.64.8-.91.79l-.81-.02-1.69,1.69c-.22.22-.67.26-.99.22-.23-.03-.18-.56-.65-.74.33-.18.65-.29.74-.54.11-.33.27-1.03-.07-1.18-.51-.22-.84.69-1.17.8-1.31.44-1.62,1.41-1.8,2.67-.13.94-.96,1.76-.73,2.89l1.66-1.29c.3.2.75.55,1.26.62-.87.19-1.81.07-2.47.87-.1.31.59.2.86.47ZM119.31,115.31c.24-1.13.18-2.19.93-3.05.28-.33.17-1.53-.21-1.7-.69-.29-.52.7-.66.98-.44.9-.48,1.72-.55,2.7,0,0-1.11,4-1.32,6.47-.09,1.13.09,2.21-.58,3.15-.4-2.47.79-3.8-1.61-5.3-.03-.41-.01-.89-.41-1.08-.36-.17-.58-.07-.87.32-.34-.27-.56-.54-.95-.64-.27.51.11.83.43,1.04-1.18.38-.26.41-1.14,1.91-.33-.22-.29-.46-.48-.56-.16-.08-.29.14-.52.21-.15-.48.28-.69.13-1.01-.38.13-.53.38-.63.18-.04-.07-.27-.23-.24-.25l.53-.31c.39-.23-.82-1.76-1.7-1.75-.29.17-.24.48-.13.49.16,0,.32.03.55.11-.59.72-1.11,1.6-.74,2.52-.53-.3-.54-.71-.99-1.02-.46.47-.58.59-1.06.14-.26-.24,0-.56-.03-.82-.4-.62-.92-1.2-1.47-1.86-.36.71.24,1.18-.11,1.67-.38-.19-.39-.49-.54-.49-.29,0-.42.22-.44.37-.08.59,1.17.62.41,1.08-.19-.26-.38-.75-.65-.6-.22.12-.28.51-.43.87-1.63-1.37-1.92-.46-2.13-2.1-.9.1-.36.91-.54,1.1-1.21,1.27-2.78-1.77-3.38-1.46-.12.21-.12.58-.25.64-.1.04-.28-.17-.37-.16-.96.13-1.34-.44-1.72-1.13s-1.5-.09-2-.25c-1.19-.39-1.72-1.63-2.8-2.18-.22.04-.37.32-.57.38-1.14-1.01-2.14-2.04-3.35-2.94-.56-.42-1.27-.51-1.73-1.15-.3-.42-1.01-1.03-1.48-.92-.52.61.61.86.72,1.19.27.83.94,1.46,1.4,1.93.39.39.11,1.85,1.13,1.71.19-.03.59-.28.71-.38.12-.09-.13-.43-.22-.54s-.5.14-.56,0c-.14-.34.36-.3.06-.86.72.98,1.29.93,1.52,1.51.54,1.37-.79,1.99.45,2.91.38.28.68-.16,1.23-.26.01.33-.24.48-.19.69.08.41,2.09.74,2.7-.3-.17,1.06,1.99,1.33,2.73,1.52.52.66-4.25-.64-4.29-.77-1.11,2.99,3.82,2.19,4.15,3.54.07.29-.41.72-.18.94,1.16,1.09,2.13.19,3.93.71.14.54-.06,1.02.26,1.44,1.49.3,2.79-.04,4.14-.44l.05,1.31c.72.81,1.83.36,2.71.31s1.23-.56,1.91-.88,1.74.75,2.01,1.22c-.39.29-.78.44-.82.7-.04.3.12.76.47.84,1.3.3,2.66-.12,3.55-1.31.86,1.88-1.05,2.61-.41,3.06.87.6,2.66-1.71,3.54-2.54.36,1.09.07,2.26-.2,3.38-.37,1.53-.39,2.99-.62,4.44-.28,1.8-.84,4.77.48,6.26.22-1.34.15-2.68-.23-3.85-.32-1,.42-1.22.57-1.85-.48,2.07,1.66-10.83,1.44-8.76l.45-4.35c.08-.72.95-4.91,1.21-6.12ZM118.48,152.7c-.52.39-.62.36-.78.2-.15-.15,0-.27.12-.37.06-.05.21,0,.45.1,1.81-.37-.91-.28-.18-1.01.88-.87,1.08.65,2.72-.41.09.4.13.66.27.8.55.54,1.69-1.02,2-.72-.06.5-.07.81.13.98.14.12,1.39-.08,1.45-.68.02-.19-.54-.32-.48-.51.54-.73,1.53-1.58,2.52-1.32.12.17-.11.43.33.7.43-1.72,3.17.08,2.22-1.49-.14-.23-.26-.01-.58,0l-1.95.08c0-.2.16-.4.35-.41,4.03.55,1.81-1.95,5.43-1.65,1.06.09,1.91-1.04,2.87-1.2,1.19-.19,2.38-.02,3.59-.57.46-.21,1.17.21,1.55-.14s-.33-.68-.44-.92c1.51-2.39,1.49-1.08,2.96-2.26.34-.27,1.1.04,1.34-.37.52-2.76,1.26-.08,3.25-3.09.8-1.21,2-2.09,2.92-3.28.38-.49,1.48-.73,1.52-1.45-.56-1.2-5.86,2.12-6.4,3.19-.24-.26-.15-.49-.36-.92-.73.28-1.35.83-1.37,1.79-.19-.13-.21-.29-.42-.46-.58.38-1.03.8-1.29,1.39-.84-.92-1.83-.37-2.54.24s-1.22,1.11-1.26,2.25c-.31-.68-.76-.71-1.35-.88-.2-.06-.28-.57-.45-.66-.27-.14-.55.04-.83.21l-2.94,1.75c-.36.21-.93-.08-1.32.24.02-.58.39-.87,0-1.44-.66.77-1.46.89-2.16,1.45-.39.31-1.18.95-1.53.38-.14-.23-.14-1.23-.61-.98-1.09.57-1.88,1.63-3.2,1.75-.11-.58.44-1.03,0-1.81-1.15,1.1-2.32,1.85-3.71,2.74-.29-.71-.13-1.55-.8-2.44-1.85,1.26-3.64,2.94-4.05,5.14-.07.4.55,1.21,0,1.7.22.33.71.14.81-.01.12-.19-.04-.7.38-.76.36.05-.02.77-.32.95-1.31.78-1.82,2.56-.87,3.8.17.23.43.44.59.5.21.09.51-.27.75-.14.03.2-.27.55-.06.7.99.65.81-.37,1.73.51.23-.42.16-.95-.02-1.19ZM113.89,144.89c-.16-2.14,1.46-3-1.19-5.62.06-.26.21-.36.16-.46-.06-.12-.3-.36-.39-.29-.12.09-.29.25-.41.51s-.5-.09-.45-.24c.05-.16.28-.35.57-.49-.1-.25-.31-.58-.67-.83-.3-.21-.72.37-.77.64-.21,1.22,1.33,1.42.73,2.33-.15-.76-.81-1.01-1.39-1.48-.47-.38-.78-1.51-1.49-1.44-.38.04-.78.5-1.41-.03-.23-.2-.25-.33-.04-1-.62.2-.67.65-1.08.9-.41-.63-3.13-2.38-3.72-2.01-.16-.18-.33-.49-.48-.35-.23.2-.32.34-.29.45.04.15.07.32.37.58-.21.31-.69.38-.77.96-.6-.52-2.49-2.11-3.19-1.02-.2.32.29.56.16,1.03-.3-.06-.38-.31-.48-.43-.23-.28-.33.11-.32.27,0,.08.06.33-.13.48-1.37-1.39-1.1-.21-1.8-1.57-.16.27-.23.37-.33.47-.12.13-.26.05-.27-.07-.02-.18-.05-.32-.08-.5-.04-.26-.31-.34-.49-.35-.3-.02-.1.34-.11.53-.49-.12-.73.3-.87.69-.24-.25-.34-.46-.46-.5-.24-.08-.54.05-.35.3.09.12.29.26.09.51-.84-.25-1.77-2.62-3.08-1.97.32.52.92.62.98,1.22-.71-.18-.8-.78-1.27-.82-.49-.05-.75.56-1.22.69-1.04.3-3.72-1.72-4.77-.56.29.43.81.2,1.01.31.14.08-.14.49-.02.7,1.94.72-.16,1.69,3.5,2.57.38-.52.88-.32.45.07-.3.25-.71.45-.65.7.19.77,2.08,1.26,3.08,1.54.63.17.35.81.56,1.08.83,1.07,2.32-.18,4.04.43.35.12.37.7.68,1.1.63.81,1.7.27,2.45.07.64-.17,1.28.1,1.92-.6.45.71-.91,1.74-.33,2.35.8.85,2.76.02,3.8-.55.57-.32,1.52-.03,1.91.41-.07.69-.55,1.03-.4,1.66,2.14.4,4.1-.17,5.95-.88.11.72-.54.37-.74.61-.18.22-.12.58-.28.85l-.94,1.48c1.13.73,1.96-.04,2.66-.8.46-.5,1.76-.62,1.87-1.48.08-.68-.45-1.4-.65-2.11.41,0,.9.34.87-.06ZM112.2,196.54c-1.02.19-1.13-2.72-2.55-3.23-.17-.06-.47.27-.46-.01,0-.16.5-1.42-.05-.98-.08.07-.13.19-.31.4-.14-.17,0-.51-.47-.79-.82.89,1.19,2.67,1.49,4.63l-.98-1.59c-.13-.21-.23-.39-.47-.37-.12,0-.29.06-.48.14.02-.32.1-.61-.08-.82-.13-.16-.53-.17-.66-.36-.81-1.16-1.7-2.1-2.9-2.87-.25-.16-.43-.61-.71-.56-.33.06-.42.42-.59.74-.34.65-1.36.56-1.82.05-.23-.26-.57.2-.71.14-.82-.3-1.15-1.23-.77-2.09-2.2-.37-1.51-1.17-1.9-1.04-.18.06-.33.23-.35.36-.07.47,1.06.96.69,1.58-.33-.5-.94-.25-1.35-.58-.23-.18-.01-.64-.11-.81.04.07-1.21-1.1-1.59-.76-.12.11-.25.55-.53.59-.45-.38-.42-1.17-.93-1.11l-1.29.15c-.21-.24-2.2-3.26-2.49-2.17.21.56,1.1.47.7,1.28-.68-1.15-1.54-1.24-2.28-1.86l-1.66-1.39c-.54-.45-1.03-1.04-1.62-1.31-.19.34-.21.61-.36.72-.03.02-1.81-.84-1.55-1.68.07-.24.46-.46.17-.74-.13-.13-.38-.33-.54,0-.06.12.06.48-.52.57.09-.75-.14-1.33-.88-1.58-.02-.38.09-.86-.17-1.08-.4-.13-.75.16-.93-.14-.21-.36-.73-.49-.37-.88.61.51.87.11.55-.33-.7-.41-2.45-3.22-2.56-2.16,0,.1-.08.25.02.43l1.63,3c.9,1.65,2.23,2.97,2.45,3.34.11.18.51-.26.59-.17.1.12.17.48.08.57-.05.05-.77.44-.7.76.04.17.24.24.35.29s.51-.26.6-.17c.37.38.61.97,1.15,1.22.61.29.27,1.11.34,1.55.32.7,3.41,2.39,3.38,2.74l-.13,1.39c-.11,1.18,2.19,1.76,3.24,2.56.58.43.2,1.18.36,1.78.31,1.14,4.13,1.03,4.29,2.29.02.25-.6.69-.45.95s.32.41.65.55l3.57,1.53c.04.4-.25.98-.07,1.23.33.46,2.85.89,3.32.95,1.19.13,1.02,1.07,1.32,1.77.48,1.12,3.58.57,4.71.48.21.82-.05,1.29-.45,2.21,1.61.3,3.06-.21,4.49-.72.3-.01.4.63.43.89.04.34-.44.42-.55,1.05,1.49.57,4.05-1.94,4.89-3.16-.63-.38.44-2.14-.74-1.78-.16.05-.12.66-.38.65-.61-.02.01-.67-.03-.96-.73-.27-1.59-.34-2.28-1.14-.4.47.17.88-.39,1.27-.48-.41.13-.89-.39-1.45,1.09.04,2.01.51,3.13.87,1.83.58-1.31-6.99-2.18-7.61-1.8,2.12-.82.26-1.85,2.76ZM123.92,204.7c-.26-.21-.39-.5-.5-.48-.25.03-.2,2-.47.82-.21-.92-.62.57-1,.7.65.15,1.07.09.92.65-.54.04-.88-.6-1.46-.41-.3.1.13.62.29.77.19.18.51-.02.84.02,0,.4-.12.45-.16.57-.1.27.25.5.42.32.09-.09.19-.19.29-.36.18-.3.29-.04.41.06.4.34-1.18.47-.77,1.03.6.81.55-.67,2.18-.7-.31.7-.86.5-1.39,1,.4.6,1.42,1.02,2.29.61.49-.23.06-1.34-.5-1.53.12-.41.49-.38.93-.31l2.31.33c.85.12,2.33.51,2.7-.34-.26-.42-.95-1.25-.38-1.68.87-.65,2.01-.19,3.05-.24.45-.02,3.22-.45,3.14-1.39-.02-.25-.25-.43-.45-.68-.22-.28.05-.47.17-.61.13-.15.53-.1.75-.16,5.08-1.39,3.93-1.92,4.78-2.77.46-.46,1.17-.36,1.74-.67.4-.22.09-.82.22-1.26.48.08.31.78.67,1.06.96-.44,2.27-.97,2.91-1.73-.05-.75-.71-3.34.53-2.2.81-.16,1.9-.72,2.34-1.5.4-.69-1.44-1.96-.61-2.1.09-.02.24.27.43.26.34-.02.16-.36-.05-.42-.09-.03-.29-.06-.43-.19-.26-.24.07-.44.33-.47.59-.08.59,1.02,1.18.83.18-.06.38-.31.39-.61,0-.19-.48-.31-.53-.58-.06-.39.38-.32.48-.16.06.12.18.43.4.54.43.21.79-.44.97-.71.22-.32.14-.88-.1-1.44,1.48-.4,4.69-4.38,3.84-5.91l-1.89,2.22c-.91,1.07-2.51,2.05-2.97,3.37-.43.08-1.2.06-1.38.93-.42-.26-.8-.23-1.16-.17-.39.07-.3.67-.56.82-.75.45-1.12,1.05-1.64,1.69-.14.09-.53-.02-.56.17s-.07.48-.23.58c-.35-.2-.62-.79-.83-.57l-.57.58c-.47.48-1.16.86-1.64,1.44-.53.63-1.62.07-2.17,0-.82-.1-.93,1.02-1.4,1.23-.69.31-1.19.55-1.6,1.35-.35.38-1.25.21-1.57.66-.08-.53-.08-.79-.3-.88-.13-.06-.41.15-.42.48-.02.4.64.46.69,1.1-.54-.02-.79-.57-1.03-1.16-1.33.71-1.24,2.17-3.73,2.1-.07-.44-.32-1.07-.86-1.18-.85,1.48-1.41.8-1.44,2.28-.5-.12-.5-.71-.85-.4-.26.24-.5.4-.59.81l-1.78-1.88c-.41.6.14.86,0,1.3-.27-.29-.48-.64-.88-.87-.44.68-.82,1.32-1.27,1.89-.2-.37-.22-.58-.32-.61-.2-.06-.22-.04-.29.04-.2.21-.1.39.05.6l.45.65c.13.19-.07.33-.36.57-.14-.49-.39-.93-.65-1.47-.33.15-.4.57-.77.52-.06-.3-.03-.59-.18-.72-.1-.09-.44.42-.59.45-.26-.54-.42-1.43-1.18-1.1.58.86,1.03,1.53.98,2.46-.72-.57-.49-1.39-1.13-1.96-.27-.24-.56.3-.54.5.08.51,1.38,1.9.68,2.32-.28-.82-.42-1.55-.99-2.08-.53,1.66-.17,2.97.6,4.33.97-.45,1.93-.27,2.71-.83.36-.26.62-.57,1-.2.18.18.48.48.03.64Z"/>
  <path d="M147.57,175.96c-.68-.36-.44-1.12-.97-1.82-.73.75-1.49,1.25-2.17,2.1-.32.39-1.41.4-1.82.15-.29-.18-.28-.63-.64-.61.08,0-2.15,1.31-1.85,2.01-.35-.17-.83-.22-1.07.01-.69.68-1.02.02-1.62-.12-.97-.23-1.37,1.24-1.05,2.22-.67.13-.47-.62-.46-1.16-.53.23-.79.61-1.2.27.74-.54,1.15-1.21,1.75-1.75.57-.51,1.63-.21,2.3.21l2.28-1.82c.35-.28.7-.25,1.04-.28.37-.03.54.68.86.76,1,.25,1.92-.84,2.45-1.61.25-.37.62-.54.81-.75.32-.35.92.31,1.22.16.58-.28,1.19-.8,1.72-1.21.87-.67,1.74-.99,2.67-1.47,1.5-.77,2.59-2.23,4.29-2.59.89,1.15-3.61,4.77-4.73,6.03-.76.86-1.3,1.89-2.6,2.13-.42.08-.84.39-1.05.6-.33.34.06.99-.17,1.39-.53.93-1.87,1.21-2.84,1.57-1.47.55-.47,1.62-1.29,2.06-.34.18-.85.21-1.23.03.23-.52.75-.34.93-.68.33-.64.1-1.34-.07-2.03.47.14.79.33,1.26.25.37-.07.62-.52,1.01-.86.25-.21.63-.24.88-.4.27-.18,0-.59.07-.78.24-.09.66-.07.82-.25.14-.15.1-.69.3-.83.86-.61,3.48-1.28,3.32-2.5-.02-.13-.1-.3-.36-.38-.16-.05-.3.68-.66.33-.1-.67,3.62-1.77,2.53-2.75-1.18.79-3.08,1.24-3.67,2.41l-.98,1.96Z"/>
  <path d="M128.6,106.7c.11.04,2.83-.55,2.67,0-.18.61-5.04.04-5.57.19-.57.16-.96.77-1.95.56-.29-.02.09-.22.05-.51-.07-.47.49-.07.68-.25.51-.48.8-1.23,1.51-1.25-.14.25-.28.28-.39.36-.08.06-.14.21.05.29.11.04.43-.26.5-.17.15.18-.01.33-.07.4-.16.19.25.55.44.37.39-.38.99-1.12,1.49-.76.25.18.26.65.6.78Z"/>
  <path d="M109.7,81.72c.14-.26.86-.57.69-1.07-.21-.6-1.01-.78-1.4-1.09,1.52-1.03-.75-.29-.37-2.03-.54-.01-.46.23-.65.25.12-.38.49-.92.12-1-.32-.07-.7-.1-.78-.39-.04-.16.3-.37.39-.68.05-.5.81-.48.38.06l1.86,3.81c-.27-.55,1.56,1.98,1.49,2.1-.19.3-.38.88-.71.57-.11-.15.49-.71-.12-.85-.17-.04-.26.77-.88.34Z"/>
</svg>