<?xml version="1.0" encoding="UTF-8"?>
<svg id="Layer_1" data-name="Layer 1" xmlns="http://www.w3.org/2000/svg" viewBox="0 0 87.61 203.5">
  <path d="M53.82,203.5h-.25l-.87-2.27c-.31-.8-.54-1.72-.77-2.58l-1.48-5.44-1.21-4.79-1.51-7.36-.68-3.92c-.21-1.19-.36-2.41-.37-3.62l-.05-3.9c0-.73-.28-1.81-.62-2.46-1.55-2.93-4.21-8.44-7.49-9.19-2.23-.51-3.6-.81-5.85-.55l-5.42.64c-2.96.35-6.37-.42-8.47-2.61l-2.13-2.23c-.78-.82-1.58-1.61-2.48-2.34-3.29-2.72-7.25-2.43-10.12-4.74-.88-.71-1.62-1.55-2.38-2.41-1.48-1.69-2.26-4.43-1.13-6.37l1.27-2.17c.86-1.47,1.34-3.09-.06-4.45l-.9-.87c-.17-.17-.48-.62-.64-.86-.29-.43.98-.91,2.42-.17l3.07,1.58c1.48.76,3.33,1.34,4.75.12l2.12-1.82c3.75-3.21,8.4-4.43,13.3-3.58,1.43.25,2.69.84,3.94,1.53,3.05,1.68,4.91,1.63,8.51,3.28,1.33.61,2.03,2.67,2.53,4.03l.66,1.81c.29.79.98,1.66,1.62,2.21l1.47,1.24c.8.68,1.35,1.72,1.71,2.72l.29.8c.2.54.87-1.36-.02-3.97l-1.43-4.15c-.53-1.55-.8-3.18-.93-4.86-.17-2.29.7-5.04,1.77-7.04,1.3-2.43,2.56-2.6,2.64-4.87l.12-3.41.14-3.85c.04-1.11,0-2.23-.04-3.35l-.11-3.14c-.02-.64-.07-1.48-.24-2.05l-.81-2.62c-.34-1.12-.82-2.15-1.34-3.26-.83-1.74-4.04-2.45-6.1-.96-1.8,1.3-2.39,2.9-4.87,2.99-1.68.06-3.28-.32-4.82-.98-3.28-1.41-4.36-1.07-7.03-2.12-3.19-1.25-4.99-3.13-7.12-5.74-1.68-2.06-1.6-4.8-.91-7.25l.94-3.38c.85-3.07.37-5.65-1.41-8.11-.54-.75,1.78-.88,2.99-.59,2.07.5,2.87-.43,2.86.2,0,.1-.04.49-.12.5s-.32.01-.4,0l-2.1-.29s-.32.24-.28.27l1.04.88-.07.43-.79-.77c-.4-.39-1.5-1.2-1.9-1.03l-.41.16c-.08.03.12.29.19.35l2.92,2.64c.5.45,2.59,3.27,3.56,4.41,1.37,1.6,4.22,3.07,3.19,2.04-.76-.76-1.85-1.92-2.48-2.73l-.99-1.26-.86-1.1c-.05-.06.18-.38.19-.32l1.78,2.27,1.64,1.95,1.09,1.26c.37-.29.36-.67.57-.35l.7,1.06c.19.29.81.89,1.14,1.03l2.31,1c.04-.19.07-.59-.04-.67l-1.26-.89c-.48-.34-1.03-.8-1.37-1.22-2.96-3.71-2.47-5.8-2.24-5.11l.2.61.12.37.12.35c.03.1.11.32.13.37l1.26,2.52c.16.32.93,1.14,1.26,1.39l1.27.97c1.25.96,2.43,2.41,2.64,1.55l-.59-.55c-.09-.08-.1-.59-.02-.5l.51.61c.87,1.05,2.46,1.41,2.11.8-1.3-2.32-.72-2.63-.61-2.19.98,3.78,2.47,2.41,3.64,3.53l1.19,1.14c.06.06.18-.17.16-.25-.98-3.27-2.17-8.03-2.59-11.36l-.48-3.85c-.03-.24-.23-.88-.43-1.01s-.88-.23-1.14-.2l-2.04.24c-1.02.12-2.78.12-3.76.1-.86-.02.89,1.61,1.63,2.95l1.74,3.18c1.26,2.3,1.92,5.68,1.45,4.45-.27-.71-.7-1.97-1.05-2.75-.63-1.38-3.69-7.57-4.84-7.91-.57-.17-1.96-.64-1.7.06l.7,1.91,1.32,3.51c.33.87.85,1.71,1.25,2.55l.9,1.88.13.27s-.17,0-.18-.03c-1.98-3.1-3.18-5.94-4.26-9.72-.37-1.3-1.3-1.11-2.46-1.17-.1,0-.03.49.02.59l1.94,4.13c.04.09-.1.54-.14.47l-.75-1.64-1.22-2.65c-.11-.25-.27-.53-.43-.81l-1.12.84-.47.32c-.41.28.18-2.36,5.67-1.1,5.15,1.18,6.59-1.15,14.14.82,1.08.28,2.14.82,3.07,1.42,2.05,1.33,3.07,4.61,2.86,3.02l-.56-4.29-.51-3.34-.39-2.26-.45-2.42-.57-2.83c-.14-.71-.33-1.58-.63-2.22l-1.54-3.27-1.64-3.41-.59-1.17c-.19-.37-.97-.9-1.39-.99l-1.25-.26c-1.77-.37-2.85-1.82-3.49-3.38-.39-.94,1.68-.58,2.9.41l1.32,1.07c.66.53-1.42-2.55.03-4.99.36-.61,1.09-1.67,1.44-2.17.41-.58,1.91,2.42,2.04,2.67.81,1.63.9,3.49.19,5.13-.63,1.45-1.56,2.08-.86,3.4l1.95,3.66.55,1.03c.04.08.36-.25.37-.35l.08-1.26c.17-2.72,2.72-1.98.74-11.35-.84-3.99-1.41-6.88-.64-10.85.43-2.24,1.21-6.07.91-8.15l-.31-2.17c-.1-.68-.38-1.53-.65-2.17l-1.23-2.95c-.22-.53-.45-1.6-.39-2.14l.26-2.46c.69,1.41.13.84,1.09,2.71,1.1,2.12,1.59,2.81,1.28,5.28-.36,2.78.98,3.97.12,8.03l-.78,3.63c-.16.76-.09,1.71-.1,2.51l-.04,2.33c-.02.96-.04,2.03.15,2.93l.59,2.78.5,2.64.52,3.4c.02.13.09.38.12.46s.2-.23.21-.31l.1-2.12c.06-1.39.1-2.67.1-4.04v-4.07c0-1.04.3-2.04.53-3.1.42-.17-.15,2.02-.23,2.68-.39,3.55.36,5.27,0,7.67l-.33,2.22c-.01.07.24.31.31.31,1.61-4.28,1.97-8.83,2.2-13.16.16-3.1.84-3.44,1.14-6.27l.39-3.67.17-2.67.14-3.22.15-2.7.42-4.16.43-4.63.38-4.4c0-.06,0-.49-.05-.47l-.65.2c-.16.45-.1.29-.02.05l1.22-1.21s.22-.2.25-.18c.09.08.41.4.44.51l.35,1.46,1.42,6.03c.72,3.06,1.57,7.9,1.11,10.94l-.42,2.76c-.15.98-.49,1.99-.87,2.91-1.03,2.47-2.27,3.06-4.01,4.62-1.48,1.32-1.56,3.91-1.01,5.79l.66,2.25c.72,2.44.41,4.61-.52,6.93-1.03,2.57-2.67,4.42-4.62,6.41-1.39,1.42-1.3,3.4-.89,5.39l.98,4.81.92,5.1.78,4.16c.03.14.28.56.33.48.03-.05.25-.36.27-.42l1.08-2.64c1.72-4.22,3.02-4.53,4.29-10.42.9-4.18,3.24-7.99,6.1-11.09l2.54-2.76c.48-.52,1.04-1.04,1.56-1.53l2.11-1.99c.52-.49,1.07-1.06,1.49-1.62l2.17-2.87,1.46-1.93,2.2-2.81,1.53-1.84c.65-.78,1.29-1.6,1.99-2.3l3.1-3.11c.14.13.2.29.13.37l-2.52,2.49c-.42.41-.85.9-1.25,1.36l-1.48,1.66c-.41.47-.81.94-1.2,1.43l-1.73,2.12c-1.61,1.98-1.37,2.07-3.17,4.25-.05.06-.2.35-.12.35h.63s-.24.3-.31.35l-1.46,1.12c-.59.45-1.13.97-1.67,1.47l-1.23,1.15c-.73.68-1.38,1.28-2.1,2.06l-2.55,2.75c-.07.07-.06.4,0,.45l.42.37s-.06.17-.09.2l-1.89,1.49c-1.42,1.12-2.08,3.15-1.12,2.16l1.5-1.54c.8-.09-.87,1.22-1.3,1.72-1.27,1.51-2.47,2.96-2.98,4.81l-.8,2.94c-.03.11.07.55.14.5s.3-.21.36-.28l1.34-1.69c1.33-1.67,2.82-3.05,4.37-4.5,1.69-1.57,3.43-2.87,5.52-3.87l1.76-.84c.09-.04.5-.02.6-.02.08,0-.27.18-.38.24l-3.26,1.74c-1.75.93-3.31,2.06-4.68,3.49l-1.76,1.83c-1.66,1.73-3.39,3.43-4.48,5.62l-.94,1.9.3.27s.13.04.24.05c.01-.09,0-.01-.02.13l.81.27c.09.03.25-.42.3-.5l.19-.27c.3-.43,2.55-1.45,3.13-1.66,1.07-.38,2.17-.59,3.27-.74l2.54-.34c2.79-.38,4.74-.4,7.19-1.98,1.67-1.08,2.88-2.55,3.61-4.39l.86-2.16c.06-.16.05-.7-.06-.83l-.46-.54.86-.55c.2-.13.42-.67.5-.89l1.15-3.47.36-.04-.24.68-1.22,3.44-.63,2.2c-.54,1.88-1.41,3.99-2.69,5.44-1.17,1.33-1.72,1.61-3.34,2.37-.9.42-1.96.73-2.96.84l-5.02.55c-2.15.24-4.28.99-6.18,2.01-2.46,1.32-4.45,4.06-5.42,6.64l-.81,2.16c-.26.7-.41,1.69-.32,2.45l.46,3.88.46,4.33.25,2.64.26,4.03.22,4.86.14,4.91v11.74s-.08,3.65-.08,3.65l-.12,3.55c0,.08.34.16.42.09l3.49-3.35c2.28-2.19,4.41-3.25,7.32-4.16l2.4-.75c.73-.23,1.53-.39,2.3-.57l2.35-.54c1.38-.32,2.74-.69,4.13-.91l3.14-.49c1.06-.17,3.26-.2,4.3.14.12.04.24.49.14.59l-.76.74c-.55.54-1.21,1.18-1.54,1.83l-.86,1.66c-.29.57-.62,1.45-.72,2.1l-.54,3.36c-.12.77-.13,1.62-.17,2.44-.24,5.65-1.44,10.33-5.2,14.63l-1.35,1.55c-.47.53-.97,1.15-1.5,1.61-2.51,2.17-4.38,3.75-7.56,4.85-4.66,1.61-9.81-.62-11.21,3.09-.21.57-.41,1.36-.43,1.94l-.11,3.54-.13,14.14v2.23c.03,2.59,2.3,3.62,2.19,9.23-.03,1.33-1.64,1.84-1.33,3.22l.43,1.91.59,2.79.99,4.29,1.43,5.53.69,2.93.64,2.72.47,1.93.42,1.64ZM51.15,28.55c2.14-1.71,3.16-2.67,3.95-5.17,1.43-4.49,1.05-9.2.12-13.77-.58-2.85-1.2-4.24-1.69-7l-.38-1.81-.51.06c-.11.83-.21,1.51-.27,2.29l-.27,3.83c-.21,3.01-.58,4.33-.75,7.17l-.14,2.27-.1,2.51c-.05,1.21-.04,2.4-.13,3.59l-.32,4.44-.04,1.29.54.31ZM50.73,40.04c.06-.98-.09-2.07-.37-2.99l-.41-1.37c-.02-.07-.47-.07-.47,0l-.11,1.28c-.36,4.08-1.26,7.59-2.79,11.31-.06.13.22.48.32.36,2.46-2.74,3.58-4.72,3.83-8.59ZM39.73,46.71l-.11-3.31c-.03-1.02-.17-2-.38-2.99l-.32-.32c-1.59,2.61-.61,4.63.77,7.18l.04-.57ZM37.92,46.39l-1.26-.61s-.11.34-.07.36l1.34.67s.04-.4-.01-.42ZM40.07,85.3l.19-2.8.23-2.4.24-2.9c.11-1.32.27-7.57-1.53-7.77l-2.64-.3-.16.57.6,4.13c.63,4.39.82,4.86,1.79,9l.77,3.28.57.3-.06-1.12ZM43.7,84.66l1.24-3.98c.45-1.46.61-3.06.67-4.61l.09-2.23c.05-1.31-2.07-3.24-2.06-2.35l.03,1.95c.05,3.28-.53,5.14-.46,4.02l.25-4.04c.07-1.11.12-2.68-.92-3.01l-2.02-.65c-.8-.26.46,1.62.49,3.64.02,1.6.08,3.02-.06,4.54l-.33,3.72-.23,4.3c-.08,1.61,1.92,3.66,1.42,2.25-.75-2.14-.79-3.33-.28-5.57.02-.1.15.3.14.39-.39,2.88.05,4.56,1.41,7.4.09-.03.3-.27.28-.37-.35-1.69-.21-3.68.32-5.39ZM45.98,91.42l.16-3.47c-.08-.07-.05-.04.28.25.22.51.32-1.33.53-2.16l.83-3.26c.21-.82.13-1.94.12-2.74l-.67.04.12-1.65c.05-.74-.09-1.78-.37-2.48l-.66-1.63c-.52-1.29-.37,2.29-.52,3.36-.29,1.99-.72,3.8-1.33,5.67-.66,2.02-1.49,4.69-.72,6.68l.96,2.48c.18.47.75,1.45.99,1.89.4.74.76-.52-.1-2.88-1.01-2.77-.33-4.28-.29-3.43.05.93.1,2.35.67,3.33ZM27.48,81.51l-1.62-.87c-1.87-1.01-2.04-1.63-3.82-2.16l-1.9-.56c-1.15-.34-3-1.57-3.05-1.33-.15.62-.79,2.09.24,2.5l3.45,1.38c1.34.53,2.82.87,4.23,1.03l2.72.31s-.16-.26-.24-.3ZM40.66,93.56l-2.3.04c-.72.01.35-.76,2.79-.14.97.24,2.34.51,3.2.64.11.02.39-.35.27-.41-2.41-1.14-6.21-1.41-8.9-.83l-2.13.46c-.08.02-.47-.15-.36-.18,2.12-.53,4.42-1.2,6.68-.87l2.18.32c.57.08,3.21.98,2.29.14-.29-.26-1.09-.75-1.47-.8l-3.15-.45c-3.37-.48-7.32,1.11-10.23,2.27-.09.04-.49-.06-.39-.11,1.64-.76,3.71-1.62,5.52-2.08.96-.24,2.91-.44,2.95-.69l-1.18-.18c-.05,0-.02-.27.03-.27l1.63.11,2.45.17c2.53.17-2.58.19-1.22.39l2.84.42.86.15c.27.05.7-1.86-4.39-1.91-.85,0-2.78.48-2.62.01,2.53-.34,3.46-.52,5.81.13.62.17-.09-1.19-1.46-1.16l-2.67.05c-.07,0-.07-.26,0-.26l2.93.04c.11,0,.42-.27.36-.34l-1.33-1.48-.63.6c-1.3,1.24-1.54.37-4.12,2-.08.05-.47.1-.46,0,.32-2.18,1.5-.22,4.8-2.35.06-.04.18-.5.13-.55l-1.22-1.12c-.14-.12-.71-.05-.87.05l-.83.54s-.12-.29-.06-.32l.8-.49c.36-.22-.9-.78-1.46-.6l-1.18.39c-2.31.76-3.89.51-3.08.35l3.6-.7c.61-.12.29-1.04-2.5-.74-.99.1-1.75.13-2.71.06l-2.47-.17c-.08,0-.08-.26,0-.26l2.49.17,1.84.13c1.79.13-1.53-1.19-2.97-1.4l-3.15-.47c-3.34-.5-4.57-.88-7.58-2.24l-1.22-.55c-.42-.19-.23.85-.67,2.05l-.71,1.94.67.16.47.11-1.38.39c.18.71.54,1.27,1.1,1.45l2.75.9,2.56.78c1.19.36-.83.21-1.78-.15l-4.03-1.52c-.15-.06-.53.27-.51.43.08.58.5,1.49,1.01,1.68l2.88,1.07c.83.31,1.98.4,2.9.4h4.64s6.14-.02,6.14-.02c.11,0,.19.23.09.24l-2.02.16c-.8.06-1.55.09-2.32.09h-5.32c-2.69.01-4.76-.56-7.11-1.78-.24-.12-2.17.22,3.88,2.61.13.05,0,.59-3.08-.97-.82-.42.23.94,1.23,1.17l2.74.63c.88.2,1.88.28,2.86.27h3.56c1.78-.02-1.48.51-2.81.47-2.18-.06-4.17-.47-6.07-1.13-.14-.05-.54.28-.42.34l1.8.91-.48.48,1.55.94c1.74,1.06,5.62.8,7.49,0l3.57-1.53c1.03-.44,2.58-.78,1.38-.25l-4.12,1.82c-4.15,1.83-4.53.55-6.04.89-.07.02.05.42.12.45l2.41.79c.6.2,1.38.24,1.89.04l1.01-.39s.08.22.04.24l-.83.37c-.09.04.39.39.5.4l2.64.02c.14,0,.52.06.43.07l-.69.12c-.11.02-.41.2-.52.27,2.27.06,3.57-.52,5.6-1.29l1.21-.46c.08-.03.44.19.36.23l-1.79.87c-.9.44-1.97.69-2.98.76l-1.65.11c-.73.05,1.06,1.72,6.61-.89,1.79-.84,1.96-.61,4.15-1.57.16-.07-.45-.37-.6-.34l-1.97.4s-.03-.24.01-.25l1.84-.33c.07.04,0,0-.27-.17ZM48.81,100.46c.04-1.12.1-2.09.06-3.03l-.2-4.46-.13-3.03-.26-4.54c-.11-1.9-1.71,4.42-1.67,4.23-.59,2.43-.12,5.55.74,7.83l1.21,3.18c-.1.08.02-.01.25-.19ZM63.57,139.72l1.8-1.46-.52-.42c.87-.43,1.79-.92,2.47-1.61,1.97-2,3.75-3.91,4.97-6.39.39-.8.81-1.78.97-2.6l.44-2.3c.01-.06.97-4.77.14-3.6-.25.35-.84,1.2-1.21,1.47l-2.9,2.12c-.92.68-1.83,1.37-2.62,2.17l-2.03,2.08-1.6,1.79-2.31,2.36c-.06.06-.44-.04-.37-.11l2.45-2.49,1.6-1.8,1.91-1.95c.65-.66,1.4-1.36,2.15-1.89l2.81-2.02c1.2-.86,2.51-2.04,2.68-3.57l.45-4.08c.04-.41.13-.85.2-1.29.16-.97-.39.16-.84.31-.29-.68.68-.4,1.52-2.24l1.07-2.37c.2-.45.85-1.13,1.26-1.45l.84-.67c.63-.5-1.55-.94-3.07.03,0,.01-.12-.5-.23-.53-.89-.26-2.07,0-2.57.94l-.43-.73c-.44.31-1.02.86-1.1,1.28l-.33,1.81.53.06c.08,0-.09.26-.15.33l-1.59,2.04c-.51.65-1,1.18-1.65,1.9,1.06,1.12.25-.07-1.67,2.48l-1.76,2.33-1.15,1.49c-.49.63-.96,1.25-1.47,1.85l-2.34,2.74c-.71.83-1.37,1.67-2.02,2.56-1.68,2.32-1.35,3.06-3.07,4.88l-.79.83.68.57-.73.58c-.61.49-1.25,1.27-1.61,1.98l-1.08,2.13c-.21.42-.4.89-.61,1.36-.54,1.22-.85,1.24-.57,2.11l.78-.43.03.68,1.49-.14c.95-.09,1.78-.12,2.8-.14,3.14-.06,4.06-.87,3.01-.86l-5.41.03c-.08,0-.12-.27-.05-.27l4.06.04,2.25.09c1.6.07,3.27-.99,4.49-1.97ZM66.12,117.67l1.88-2.45c.41-.53.65-1.32.86-1.96l.6-1.84c.16-.5.97-3.52-.09-3.22-1.79.5-.83,1.43-1.65,4.14l-.75,2.46c-.22.74-.81,1.9-1.17,2.61-.06.12.21.41.32.27ZM53.59,122.36l-1.43,7.31c-.34,1.71-.55,3.34-.67,5.13l-.19,2.91c-.12,1.92.69-1.41.77-2.18l.47-4.22c0-.08.3-.15.29-.09l-.27,2.26-.31,2.56c-.11.93,1.19-.97,1.55-2.79l.44-2.24.47-2.37c.19-.96.33.17-.17,2.43l-.4,1.81c-.05.05.37-.18.39-.25l1.16-3.66c.02-.08.22.28.2.35l-.69,1.96c-.03.08.05.51.09.42l.35-.76c.24-.53.63-1.12,1-1.58l.98-1.2,1.4-1.72,2.72-3.3,1.73-2.13c.36-.44.75-1.09,1-1.61l.86-1.79c1.27-2.64,2.65-5.92,2.57-8.99l-2.83.56c-.28.06-.82.63-.85.93l-.09,1.18c-.14,1.88-.67,2.87-.53,1.71l.38-3.09c.01-.12-.38-.38-.46-.29-.05.06-.3.3-.32.38l-.43,1.81s-.2.09-.19.04l.2-1.41c.02-.13-.25-.49-.39-.46l-2.39.62c-1.11.29-1.09,1.02-1.16,1.78-.12,1.27-.24,2.35-.47,3.61l-.59,3.21c-.01.08-.26.09-.26.03l.37-2.55.83-5.04c.02-.14-.27-.53-.38-.49-1.17.5-1.45.96-1.6,2.26l-.61,5.33s-.29.08-.29.02l.35-3.05.43-3.01c.17-1.19-1.43.34-1.7.6-.62.59-.41,2.8-.55,3.95-.2,1.69-.47,3.31-.82,5.08ZM49.72,139.41l-.33,1.7c-.14.7,1.5-.64,1.65-3.48.27-4.83.65-7.54,1.6-12.24l.93-4.6c.21-1.04.34-2.07.44-3.18l.28-2.86c.14-1.48-2.77,1.52-3.06,1.97-.33.52-.52,1.03-.72,1.51l-.46-.39c-.39.73-.76,1.52-.8,2.3l-.29,4.73-.68,6.62c-.06.63.11,1.39.29,2,.76,2.54.04,1.44.95,4.01.18.52.33,1.29.2,1.91ZM45.37,130.63c.06.38.23,1.08.37,1.34l.86,1.54c.06.1.7.24.71.13l.21-1.68c.07-.54-1-.49-.48-1.61l.58.51.41-4.19.28-3.63.19-2.52c0-.08-.41-.27-.45-.21l-.89,1.31c-.35.52-.65,1.51-.64,2.14l.02,3.43c0-1.23.4,4.95-.02,2.14l-.37-2.54c-.18-1.22.36-4.31-.12-3.41-.79,1.48-1.3,2.8-1.05,4.55l.39,2.7ZM36.29,153.62c.13.64.65,1.53,1.08,1.92l1.62,1.49c.07.07.4.17.49.19s.08-.29.08-.42l.05-2.35c.02-.82-.14-1.58-.37-2.47l-.9-3.58s.26-.22.26-.19l.98,4.2c.02.07.42.1.43.02l.56-3.13.49-3.38c.35-2.45.62-4.91.44-7.4-.15-2.16-1.48-6.61-3.21-7.86-.63-.46-1.35-.9-2.06-1.14l-2.18-.75c-.08-.03-.45.16-.42.24,1.5,3.6,1.1,5.3.92,4.4l-.6-2.92c-.25-1.24-1.15-1.98-2.18-2.49l-2.73-1.34c-.11-.05-.36-.23-.41-.17l-.52.55-.63-.72c-.18-.21-.85-.57-1.14-.61l-2.81-.38c-.1-.01-.59.25-.51.33l.67.64c.06.06-.05.44-.1.38l-.54-.6c-1.5-1.65-7.22.49-9.24,2.2l-2.37,2.02c-1.06.9-3.12,1.56-2.18,1.79l2.31.57c.98.24,1.83.42,2.71.73l1.85.63c.38.13.96.42,1.28.66l1.68,1.27c.77.58,1.51,1.17,2.24,1.79l1.44,1.22c.44.37.88.87,1.28,1.32l1.47,1.66,1.77,2.04.45-.48,1.22,2.22c.06.11,3.09,4.92,2.42,2.61l-.6-2.07c-.91-3.14-.49-5.25-.39-4.21.08.73.19,1.93.34,2.54l1.08,4.23c.18.72.67,1.59,1.19,2.18l2.31,2.57c.1.11.48-.27.45-.42-.3-1.36-.59-3-.78-4.34l-.6-4.25-.37-2.23c-.01-.08.15-.44.19-.49l.68,3.92.51,3.56.84,4.31ZM37.93,157.51c1.2.22-.42-1.26-1.5-1.49l-1.44-.3s-.06-.22-.02-.21l1.27.26c.49.1.18-1.08-1.97-1.21l-4.55-.26c-2.49-.14-4.73-1.3-3.08-.87,3.59.93,4.14.42,7.78.85,1.31.16.09-.66-1-1.97l-1.45-1.74c-.35-.42-1.18-.92-1.78-1.05l-2.15-.48c-.06-.01-.06-.3,0-.29l2.22.53c.1.03.48-.29.4-.38-.34-.36-1.17-.96-1.62-1.12l-1.57-.56c-.05-.02.03-.39.08-.37-.02,0,2.54,1.34,1.87.5l-3.02-3.81c-.48-.61-1.18-1.13-1.81-1.34,1.89.64-6.26-2.22-1.2-.61l.98.31c.1.03.31-.32.22-.42l-2-2.11c-.44-.46-1.21-.92-1.78-1.07l-1.2-.31s-.08-.23-.03-.22l1.1.26c.06.01.04-.34,0-.37l-1.95-1.61c-1.32-1.08-3.67-2.24-5.39-2.61l-1.99-.43c-2.31-.5-4.39-1.43-6.41-2.68s-4.41-1.77-3.48-1.03l1.38,1.11s-.27.08-.31.05l-.72-.56s-.3.05-.26.11l1.16,1.68c.47.68,1.22,1.33,1.93,1.69l.98.5s-.11.38-.16.35l-2.05-1.33c-.07-.05-.35,0-.37.07l-.79,2.16c-.11.29-.31.67-.17.73,3.99,1.79,2.34,1.72,2.25,1.65l-1.72-1.27c-.23-.17-.59-.39-.76-.46s-.47.5-.56.66c-1.34,2.39-.91,4.4.29,6.73.81,1.58,3.5,4.03,5.18,3.63l1.64-.39s.09.22.03.24l-1.35.4c-.06.02.02.39.08.41l1.83.57c1.96.62,2.73,1.16,4.22,1.53l3.46.87,2.2.6c.09.02-.35.19-.44.16l-3.59-.97c-1.79-.48.79,1.85,2.18,2.5l2.87,1.34c.51.24.14.53-1.18-.2l-1.26-.69c-.07-.04-.41.09-.36.15l1.91,1.9c2.03,2.02,4.89,2.92,7.68,2.56l4.72-.61c2.62-.34,3.94-.1,6.55.37ZM45.89,152.38c.41-1.47.54-2.98.55-4.56v-2.63c.01-.11-.32-.06-.35.05l-1.03,3.69c-.03.11-.16-.32-.13-.44.59-2.03,1.59-5.06.65-7.13-.63-1.39-3.03-3.45-2.98-2.68l.16,2.37c.15,2.24,1.17,3.94.46,6.84-.4,1.63-1.77,4.28-.54.64.51-1.51.67-3.04.32-4.58l-.54-2.41c-.37-1.64.06-1.84-.06-3.43,0-.08-.47.04-.47.12l-.04,2.33c-.05,3.06-.53,6.53-1.05,9.51l-.7,3.99c-.15.85-.32,4.49.81,4.36-.42-1.87-.7-3.63-.08-5.53.52-1.59,1.76-3.42,1.14-1.96l-.58,1.39c-.47,1.1-.82,2.33-.57,3.55l.59,2.97c.02.1.2.38.26.46.35.44.83-.9.81-1.63l-.06-1.99c-.06-2.1.75-4.14.65-2.84l-.17,2.17-.17,2.68c-.01.16.41.47.49.36,1.49-2.09,1.92-3.1,2.64-5.67ZM46.2,165.93c.08.13.38-.24.38-.34l.1-10.09c.08-7.53-.32-1.4-2.47,1.71-1.2,1.74-2.11,2.15-1.44,3.11.63.91,1.1,1.62,1.64,2.56l1.78,3.06Z"/>
  <path d="M79.04,38.88c-1.62,1.57-3.51,2.77-5.49,3.72-.74.36-1.86.51-1.03.09,2.77-1.39,3.07-1.44,5.62-3.44,1.82-1.43,3.15-2.84,4.29-4.85l1.85-3.24c1.33-2.33.62-2.05,1.58-4.14.28-.62.53-1.21.73-1.9l.72-2.59c.02-.08.33,0,.31.09l-1.38,4.55c-.26.86-.59,1.55-.91,2.31l-.71,1.68c-.29.68-.62,1.43-1.01,2.05l-1.78,2.81-1.68,2.66-.56.86c-.05.07-.14-.28-.09-.35l.62-.86c.05-.07-.05-.4-.11-.35l-.95.92Z"/>
  <path d="M68.55,44.18c-3.85,1.12-6.57,2.11-9.32,4.64-.07.07-.43-.03-.33-.13,2.71-2.78,5.63-3.8,9.48-4.77,1.09-.28,2.12-.88,2.87-1.71l.59-.65c.06-.06.14.3.09.35l-1.06.94s.15.25.21.27l.41.2-2.92.85Z"/>
</svg>