<?xml version="1.0" encoding="UTF-8"?>
<svg id="Layer_1" data-name="Layer 1" xmlns="http://www.w3.org/2000/svg" viewBox="0 0 97.29 233.09">
  <path d="M41.98,0l.07,22.11.13,59.94.16,18.89.48,11.48.32,6.42.04,6.39c0,.82,2.08.54,2.74,2.27.32.82.08,1.66-.29,2.43l9.92,26.07c4.84-3.61,9.16-6.94,14.12-9.76,1.66-.94,3.21-1.91,5.28-2-7.25,7.56-9.12,13.93-16.28,21.72-.72.79-1.82,1.28-1.9,2.46,2.27-1.56,4.2-2.95,6.45-4.11l6.94-3.62c.77-.4,11.05-5.57,11.28-4.21l-5.43,7.66c-2.2,3.1-5.26,4.95-8.33,7.62,1.62.26,3.17.27,4.74.42,3.98.37,7.68,1.54,11.08,3.79,5.49,3.64,10.1,8.42,13.8,14.1-3.18-2.04-5.98-3.52-9.39-4.4-4.22-1.1-8.4-1.37-12.79-1.11l-7.98.46,1.23,4.2c.24.08,1.08.19,1.38.32.85.38.73,2.01-.1,2.78,2.81,4.04,4.2,8.71,4.08,13.6-.07,2.87.1,5.64-1.2,8.38-.38-3.82-1.86-7.79-4.38-10.48l-4.64,2.46-.32,1.46c-.85,3.87-2.08,7.5-2.9,11.39-.58,2.72-.88,5.32-1.14,8.04-.11,1.22-.8,2.32-1.87,2.9-5.18,2.79-11.12,3.47-16.97,2.76-4.05-.5-7.87-1.36-11.72-2.73-.93-.33-1.68-1.46-1.85-2.42l-2.32-12.74c-1.39,2.63-2.2,4.86-3.07,7.29-.48,1.34-.28,2.85-1.15,4.12-.33-.66-.15-1.36-.13-2.1.13-4.44.18-8.8.03-13.26-.13-3.74.49-6.2,1.57-9.82.27-.91.09-1.51-.5-2.31s-1.38-2.09-1.12-3.09l1.9-7.26c-10.83,3.32-11.93,6.24-18.02,14.15-1.28,1.66-2.4,3.16-3.5,5.35-1.61-3.25,1.98-11.79,3.46-14.8.18-.38.75-.94,1-1.35,3.63-5.92,9.22-10.13,15.97-11.86,1.01-.26,2.24-.6,3.08-.97l1.01-3.17c-4.19-1.38-7.84-2.79-11.65-4.62l-11.93-5.73,1.66-.04c7.43-.18,14.97,1.73,21.67,4.27.19.07.77-.05.68-.16-.06-.08-.3-.39-.42-.48l-9.17-6.49c-2.69-1.91-5.3-2.91-8.66-4.05,2.5-.55,4.66.17,7.07.03,2.85-.17,5.96.36,8.52,1.34.18.07.28-.56.15-.69l-2.46-2.5c-3.52-3.58-7.8-5.49-12.97-6.21,2.98-1.65,5.92-2.48,9.15-2.62.59-.02,1.72.26,2.37.45,3.68,1.09,6.86,3.33,9.18,6.34l3.15,4.09,1.56-6,.8-2.77c1.92-6.64,3.84-13.25,6.14-19.77-.54-.66-1.01-1.43-.92-2.2.06-.55.75-1.33,1.33-1.62l1.78-.87c.21-1.89.19-3.82.11-5.81l-.44-10.65-.23-4.43-.2-84.72-.16-19.97h.96ZM43.37,129.88c.88-.42,1.03-2.08.66-2.74-1.34-1.01-4.06-.26-4.28,1.43.31,1.2,2.48,1.86,3.63,1.31ZM40.27,173.38l.83-10.81.52-8.53.3-13.39.24-8.18c.02-.8-.43-1.79-1.34-1.54-.37.1-.54,1.02-.67,1.43l-4.39,14.05-3.08,10.39c-.32,1.08-.37,2.32-.49,3.47l6.95,11.53c.33.55.27,1.15,1.11,1.58ZM41.38,171.31c-.07.78-.67,1.59.24,1.99,3.53-5.75,7.34-11.06,12.14-15.61.33-.31.69-.63.76-.91.06-.23-.15-.73-.29-1.08-3.07-8.15-6.13-16.29-9.74-24.24-.11-.25-.91-.21-1,0-.07.17-.24.62-.25.87l-.22,7.63-.22,7.98c-.12,4.53-.05,8.95-.48,13.47l-.95,9.89ZM57.17,161.03c-3.53,2.81-6.6,5.73-9.53,9.01-1.73,1.94-3.55,3.61-5.22,5.89,4.61-1.18,8.2-3.98,11.56-6.96,4.73-4.19,8.38-9.13,11.72-14.45,1.35-2.15,2.67-4.15,4.15-6.17.27-.37.68-.66.18-1.1l-8.89,6.04c-7.78,5.28-11.7,10.45-16.91,17.73-.1.14-.05.81.05.75s.42-.23.51-.33c4.99-5.55,10.37-11.2,17.19-14.94-1.35,1.86-2.98,3.09-4.8,4.54ZM18,151.17c6.61,3.21,10.99,8.4,15.11,13.9l.37.49c.08.1.65-.21.57-.34-1.84-2.85-4.12-6.3-6.31-9.12-4.13-5.33-10.35-9.14-17.47-5.73,4.76,1.11,8.55,2.99,11.7,6.43l12.04,13.15c1.04,1.13,1.92,2.26,3.45,3.16-.76-1.85-2.1-3.16-3.25-4.77-3.06-4.29-6.38-8.24-10.07-12.01-2.17-2.22-4.77-3.39-6.13-5.17ZM46.87,176.32c-1.19.51-2.46.65-3.66,1.03.25.79.85.61,1.51.63,10.1.31,16.98-2.95,24.84-9.06,3.37-2.62,6.38-5.5,8.68-9.1.65-1.01,1.75-1.65,1.97-3.05-7.33,3.17-14.11,6.55-20.73,10.49-.49.29-8.97,5.44-8.18,6.25l11.55-5c2.61-1.13,4.76-2.67,7.39-4.13-3,3-6.81,4.82-10.73,6.5l-12.64,5.42ZM29.65,168.47c1.01.73,1.74,1.66,2.99,1.7l-6.42-7.05c-1.09-1.2-2.6-1.91-4.18-2.32l-4.15-1.08c-1.31-.34-2.92-.19-4.36-.25-.12.88.78.81,1.27,1.16l11.38,8c2.65,1.87,5.39,3.29,8.26,4.74.62.32,1.16.82,2,.3l-4.79-3.02c-3.54-2.23-6.66-4.91-9.69-8.07,2.68,1.71,4.95,3.94,7.67,5.9ZM34.81,176.1c-.24-.94-.87-.75-1.45-.93l-10.48-3.16c-3.77-1.13-7.34-2.44-10.9-4.05-1.49-.67-2.87-1.23-4.54-1.38-.05.44.28.78.68.97l4.74,2.19c6.96,3.22,11.57,5.43,19.47,6.33.84.1,1.74.12,2.48.02ZM30.87,172.72c-1.4-.81-2.74-1.05-4.21-1.48l-9.92-2.91c-1.28-.37-2.39-.58-3.77-.85.16.24.54.64.73.72,5.08,1.84,10.07,3.34,15.22,4.91l4.09,1.25c-.3-1.09-1.29-1.14-2.15-1.64ZM90.29,184.22c.5.31.85.62,1.51.34-8.62-8.72-13-11.59-25.44-11.94l-3.3,2.08,2.34,4.8c3.27-.39,6.31-.28,9.56.1,5.56.65,10.52,1.64,15.33,4.62ZM50.26,180.83c4.72-.07,9-.14,13.5-1.18.29-.07.07-.92-.06-1.18l-1.55-3.28c-6.24,2.95-9.86,3.92-16.76,3.94,1.27,1.52,3.01,1.73,4.86,1.71ZM38.08,178.04c.22-.26.55-.64.41-.68-1.43-.43-5.2,0-8.07-.42l-4.35-.64-.86,2.46,5.24-.35,7.63-.36ZM65.42,188.71c-3.68-4.18-2.99-3.77-7.89-4.51-3.12-.47-6.03-1.1-9.04-2.07-4.75-1.53-6.84-5.04-7.63-3.31,2.15,2.53,4.64,4.83,7.67,6.06l2.75,1.12c3.09,1.26,6.06,2.58,8.87,4.38,3.79,2.43,8.46,5.43,11.14,9.1l.56-.47c-1.44-3.38-4.13-7.7-6.43-10.31ZM3.12,201.68l1.64-3.72c1.86-4.22,5.11-8.89,9.23-11.14,3.23-1.77,6.72-2.37,10.32-2.9l6.53-.97c2.52-.37,4.85-1.56,6.77-3.25.08-.07.17-.33.18-.44,0-.07-.35-.19-.42-.19l-6.56.31c-2.49.12-4.71.51-7.14.98-6.66,1.29-12.45,4.75-16.52,10.18-1.23,1.64-2.41,3.27-3.18,5.17l-1.41,3.45-1.28,4.1c-.05.17.09.58.22.52.77-.36,1.17-1.1,1.62-2.12ZM87.42,184.51c.14.04.07-.73-.07-.79-6.09-2.55-14.8-3.95-21.67-3.07l1.1,3.03,8.79-.28c4.05-.13,7.87.02,11.85,1.1ZM65.28,183.83c.28-.25-.33-3.22-1.27-3.05-2.96.53-6.62.98-9.37,1.16-.19.01-.68.28-.59.34,1.3.92,8.96,1.59,11.23,1.55ZM72.51,208.97c.54-2.49.09-4.67-.18-6.97-1.68-2.32-3.67-4.12-5.9-5.93-5.42-4.4-11.25-7.77-17.79-10.24-2.56-.97-6.04-4.1-6.06-4.08,0,0-.16.15-.33.31.72,1.2,1.36,2.77,2.46,3.81,7.45,7.01,15.17,8.44,22.35,15.09,2.47,2.25,4.14,4.73,5.43,8.02ZM37.11,195.37c-.27,4.9-.85,9.69-.54,14.6.15,2.47-.17,4.81.5,7.51,2.91-6.31,4.7-12.78,5.57-19.45.41-3.15-.36-12.68-2.2-15.66-.78,1.25-.25,2.46-.23,3.65l.11,8.88c.07,6-.47,11.93-2.34,17.56l1.32-9.4c.87-6.2.21-11.03.43-16.15.04-.84.1-1.46-.26-2.37-1.7,4.33-2.09,6.15-2.35,10.82ZM29.94,202.26c2.22-3.25,3.92-6.56,5.42-10.17l1.98-4.77c-.1.25,1.66-4.92.8-4.61-4.2,6.18-5.61,6.8-8.79,13.69-2.58,5.57-4.61,11.18-6.42,17.18.85.05.95-.67,1.22-1.26,1.65-3.54,3.57-6.82,5.79-10.06ZM21.98,215.5c1.18-7.28,5.14-16.66,8.56-23.21,1.53-2.93,3.71-5.27,5.78-7.85.29-.36.43-.74.23-1.17l-1.76,1.54c-3.5,3.06-6.7,6.25-9.08,10.3-2.09,3.55-4.02,7.29-4.17,11.43l-.31,8.35c-.01.3,0,.68.05.87.04.14.68-.09.7-.27ZM17.31,188.91l9.92-3.71c.89-.33,1.79-.28,2.48-1.05-1.98-.42-3.03.37-5.39.73-4.41.68-8.93,1.52-12.42,4.71-1.85,1.69-3.82,4.41-5.06,6.42-.06.1.12.58.2.52,2.1-1.65,3.42-5.07,10.27-7.63ZM30.11,187.45c1.18-.91,2.16-1.75,3.11-2.91l-6.75,2.09c.85,1,2.65,1.59,3.64.82ZM66.72,187.33l-.79-2.23c-.86-.16-1.69-.24-2.56.2l2.97,2.77c.09.08.58-.17.55-.27l-.17-.47ZM51.17,226.36c.01.16.42.6.49.49.05-.07.31-.35.33-.52l1.02-7.66c1.1-8.21-.67-19.09-5.29-26.18l-3.48-5.33c-.07-.1-.38-.3-.48-.37s-.14.65-.05.81c2.27,4.36,3.47,9.34,4.32,14.48l2.38,14.38.77,9.88ZM22.56,198.47c1.84-3.51,3.82-6.48,6.16-9.47-1.37-.48-2.26-.83-3.16-1.48s-2.13.27-2.41,1.27l-2.05,7.32c-.21.77.83,2.07,1.46,2.37ZM55.05,194.29l-7.59-4.42c.72,1.77,1.69,3.16,2.81,4.46-.01.36,7.46,1.52,4.78-.05ZM49.96,217.67l-3.49-20.01-.62-2.55c-.25-1.03-.53-1.92-.97-3.01-.58,1.13-.14,1.95,0,3,1.01,7.27,2.32,14.38,4.11,21.53.14.55.46,1.29.96,1.02ZM35.18,206.34l.43-4.36.47-6.11c.04-.52.32-1.24.13-1.7-1.07.1-.91,1.17-1.26,1.87-1.58,3.14-3.42,5.89-5.42,9,1.85.75,3.63,1.26,5.65,1.31ZM67.25,202.79c-2.86-3.01-5.93-4.97-9.19-6.74-2.02.37-3.82.24-5.8-.21-.44.04-.99.12-1.3.24,1.2,3.3,2.13,6.4,2.79,9.83.11.55.66.79,1.17.74l3.85-.35c3.01-.28,5.88-1.58,8.48-3.51ZM45.74,206.97l-1.05-6.81c-.17-1.08.08-2.29-.89-3.24-.19,2.66-.51,5.04-1.14,7.55l-.64,2.57c1.38.14,2.47.18,3.72-.06ZM51.25,229.96l-1.18-5.55-3.98-15.92c-1.41-.33-2.81-.42-4.34-.37l-2.58,7.44c-.52,1.49-1.49,2.72-2.85,4.04-.53-2.23-.55-4.24-.67-6.39l-.32-5.46-5.02-1.25c-.37-.09-1.34-.58-1.54-.23l-3.35,5.92c.06,1.11.17,2.25.36,3.37l2.16,12.84c6.71,2.79,13.88,4.25,21.07,3.23,2.96-.42,5.67-1.42,8.26-2.8.72-.38.71-1.54.79-2.27.66-6.77,2.18-13.07,4.34-19.61l-5.02.61c-1.15.14-2.28.21-3.33.48.88,6.69.08,15.74-2.78,21.93Z"/>
  <path d="M29.48,222.86c-.21.15-.86-.06-.92-.3-.06-.27,0-.91.25-1.04.43-.23,1.28.91.67,1.35Z"/>
</svg>