<?xml version="1.0" encoding="UTF-8"?>
<svg id="Layer_1" data-name="Layer 1" xmlns="http://www.w3.org/2000/svg" viewBox="0 0 63.49 215.37">
  <path d="M34.62,102.06c-.65-.3-.41-.86-.49-1.48l-.79-6.11-.53-5.75c-.56-6.15-.26-12.16-.4-18.37l-.34-14.77-.24-12.45-.23-12.53-.25-13.15-.23-12.02c-.04-1.86-.14-3.51-.12-5.43.12.06.48.42.48.64.01,2.81.05,6.74.12,9.82l.25,11.98.23,11.08.25,11.24.19,12.14.18,3.37.25,17.99c.08,5.53.51,10.82,1.09,16.3.27,2.54.58,4.89.59,7.5Z"/>
  <g>
    <path d="M46.21,138.37l-4.37-10.99-7.05-18.91c-.48,4.96.07,9.57-.29,14.32-.19,2.53-.14,4.99-.11,7.54.01.99.77,2.15-.17,3.02l-.18-23.47-1.32,5.85c-.49,2.19-1.2,4.28-2.01,6.41l-2.25,5.94-1.32,3.49c-.79,2.08-1.53,4.11-2.09,6.27l-1.39,5.34c-.5,1.93-.84,3.64-.95,5.63-.14,2.47-1.06,4.76-1.92,7.04-.47-2.08-.55-3.86-.67-5.83-.09-1.56.77-3,2.36-2.99.99-4.62,1.9-9.13,3.53-13.54l5.05-13.64c1.5-4.06,2.17-8.08,2.79-12.36.16-1.1-.49-3.26-.16-2.7l-.43-.72c-.34-.58,1.72-1.29,2.25-.58l-.28.68c-.07.18.16.54.25.86.08.27-.52.67-.93.96l9.16,24.77,2.62,6.46,1.14-2.85c.06-.16.5-.43.62-.34,1.22,1-.11,4.62-.14,5.97l1.74-1.45c-.82-2.34-.31-5.61.55-7.45.11-.23.74-.38.79-.24.07.19.21.69.19.92l-.18,2.83,2.28-3.46c.06-.09.59-.13.6-.04.56,3.1-4.84,7.2-3.7,7.01l.7-.11.74-.1c1.73-.24-3.97,6.05-5.18,6l.55-2.32c-.16-1.01-.44-2.23-.82-3.21ZM49.94,136.47c.54-1.61.85-3.04.73-4.57-.96,1.42-1.16,3.06-.73,4.57ZM51.44,135.36c1.05-.86,1.7-1.94,1.8-3.13-.98.88-1.58,1.94-1.8,3.13ZM47.31,139.75c.64-1.61.95-3.15.61-4.77-.88,1.57-1.19,3.2-.61,4.77ZM50.89,139.23l-.17-.44c-1.6.91-3.11,2.15-3.26,4.11l3.43-3.67ZM20.9,153.32c.98-1.89,1.29-3.64,1.42-5.61-2.15-.43-1.89,4.43-1.42,5.61Z"/>
    <path d="M17.18,161.68c-2.55,5.8-6.22.68,1.86-4.72,1.86.33,2.25,2.46,3.31,2.71,3.27.76,6.34.93,9.68,1.07,5.23.21,10.33-.57,15.43-1.97l.04-1.2c1.11-2.27,3.39-3.88,6.1-3.76l-3.34,3.94,1.66-.12c-2.38,1.71-10.73,3.28-13.7,3.52-4.91.38-9.76.27-14.59-.62l-1.5-.28c.29.61.32,1.89-.2,1.8-1.92-.33-2.19-2.24-3.24-3.81l-1.51,3.45ZM51.93,155.08l-.39-.48c-1.54.96-3.1,1.61-3.38,3.45,1.55-.78,2.52-1.69,3.77-2.97ZM21.77,161.4c-.4-1.62-1.16-3.21-2.75-3.78.65,1.47,1.21,3,2.75,3.78ZM14.83,163.78c1.66-1.5,2.43-3.31,2.84-5.22-1.79,1.26-3.37,3.14-2.84,5.22Z"/>
    <path d="M49.23,178.01l2.92-7.87c.07,2.98-2.79,10.78-5.72,12.24-6.4,3.19-15.54,3.03-22.51,1.83-5.75-5.43-9.24-15.36-11.77-22.9,1,.58,1.08,1.67,1.43,2.58l2.2,5.7c1.65,4.27,4.96,11.11,8.57,14,6.45,1.4,15.84,1.31,21.73-1.73,1.43-.74,2.58-2.31,3.15-3.86Z"/>
    <path d="M46.27,213.36c-.88-.49-1.26-1.01-1.87-1.76-.18,1.3-.37,2.49-.71,3.76-1.3-1.69-.57-3.51-.45-5.38l-.91-.49c-.49-1.8.09-3.39.57-5.27l-1.29,1.16c-.82-1.42.31-6.05,1.82-6.08.96.95,4.34,4.68,1.61,5.44.77,1.22,1.72,2.67.95,4.21-1.08-.14-1.94-2.9-2.09-2.41-.79,2.47,3.25,3.72,2.38,6.81ZM45.41,204.08c.25-1.56-.53-2.71-1.7-3.54.24,1.42.67,2.68,1.7,3.54ZM44.48,204l-1.32-2.9-.37,2.53,1.69.36ZM41.95,204.54c.63-1.16.74-2.22.46-3.23-.58,1.09-1.11,2.31-.46,3.23ZM45.56,208.08c.28-1.4-.38-2.69-1.59-3.4.32,1.29.75,2.37,1.59,3.4Z"/>
    <path d="M35.18,205.45c-.17-5.15,2.49-6.55,1.03-7.35l-1.67,2.75c-.79-1.54.29-2.82,1.11-3.92l1.24-1.66c.83.7.66,1.98.91,3,.43,1.69,1.48,3.45.21,5.19l-.83-1.43-.8,3.51c-.05.23-.51.6-.71.61s-.49-.43-.5-.69ZM37.88,202.1c.43-1.17.25-2.29-.6-3.09.06,1.1.27,2.08.6,3.09Z"/>
    <path d="M43.05,190.71c-.45,1.54,1.03,3.53-.55,4.96-1.86-.96-1.36-3.92-1.33-5.64l.68-.87c-.53-1.26-.67-2.47-.52-3.85,3.39.03,6.12,2.93,5.9,6.08-1.9-.24-2.15-2.01-3.49-3.05.33,1.1-.5,1.73-.69,2.37ZM46.69,190.74c-.26-2.05-1.55-3.7-3.51-4.49l1.35,2.09c.57.88,1.2,1.71,2.16,2.4ZM42.86,189.68c.51-1.52-.09-2.6-1.19-3.31,0,1.24.43,2.46,1.19,3.31ZM42.46,194.98c.73-1.71.27-3.28-.7-4.66-.44,1.64-.49,3.47.7,4.66Z"/>
    <path d="M24.2,162.99c-.77-.04-1.32.09-1.62-.49l7.48.19c8.04.21,15.08-1.36,23.07-3.46-.89,1.58-11.44,3.18-13.51,3.48-5.11.75-10.15.55-15.43.27Z"/>
    <path d="M56.5,182.93c-1.68-2.98-.8-4.41-1.61-6.27.11,1.53-1.48,5.89-2.85,5.72-.21-.03-.56-.48-.6-.74-.34-2.27,1.55-5.37,3.15-6.67l.28.81c.05.13.15.03.6-.25,1.09,1.23,3.76,6.76,1.74,7.78-.14.07-.59-.2-.69-.38ZM52.22,181.77c1.38-1.69,2.3-3.54,1.9-5.68-.61.78-3.14,5.21-1.9,5.68ZM57.03,182.78c.58-1.94.01-3.96-1.24-5.49-.07,1.99.28,3.77,1.24,5.49Z"/>
    <path d="M35.3,195.9c-1.7-2.46,1.41-3.08-.54-6.84l-1.27,2.67c-.07.15-.58.34-.73.34-1.29.06.79-4.94,2.09-5.67,2.18.77,2.58,3.17,2.02,5.21-.41,1.48-.11,3.2-1.57,4.3ZM36.21,191.05c.66-1.36.27-2.81-.85-3.62-.01,1.3.25,2.47.85,3.62ZM34.27,187.86c-.94.73-1.34,1.92-1.19,3.1.73-.96,1.09-1.96,1.19-3.1Z"/>
    <path d="M28.83,155.33c-1.1,1.44-1.81,2.57-3.08,3.6-.38-2.22.39-4.7,1.8-6.03.26-.24,1.16-.42,1.27-.71.27-.69,1.16-1.68,1.98-1.4,1.2.61.57,6.14.51,7.71-1.08-.19-1.43-.85-1.8-1.68l-.67-1.48ZM30.75,157.58c.28-2.25.33-4.16-.07-6.3-2.64.45-1.2,5.14.07,6.3ZM28.22,153.07c-1.3.99-2.03,2.94-2.1,4.5,1.65-.73,3.35-5.46,2.1-4.5Z"/>
    <path d="M12.66,198.04c-.7-.7-.5-3.24-.76-2.95l-.43.5c-.16.18-.54.48-.75.57-.25.1-.76-.5-.78-.77-.13-3.02.5-5.74,2.41-8.25.19,4-.04,6.83.3,10.9ZM10.66,195.53c.98-1.82,1.34-3.86,1-5.89-1,1.89-1.43,3.82-1,5.89Z"/>
    <path d="M13.58,153.82c.38.54.74,1.13.81,1.8-1.7.56-7.11-4.98-5.18-5.92,1.16.84,2.28,1.87,3.32,2.86.1-.24.37-.89.59-1.08.39-.35,1.27.3,1.35.88.07.51-.32,1.04-.89,1.46ZM13.44,154.78c-.93-1.42-2.09-2.66-3.56-3.7.6,1.7,1.86,2.96,3.56,3.7Z"/>
    <path d="M36.19,155.43c-.41.57-.9,1.02-1.74,1.34.54-2.96,1.97-5.53,3.89-7.82.33-.39,1.55-.89,1.72-.35.2.63-.19,1.71-.56,2.23l-3.3,4.6ZM39.35,149.08c-1.78,1.46-3.1,3.34-3.62,5.77.47-.29,4.48-5.46,3.62-5.77Z"/>
    <path d="M11.84,143.02l1.42,3.54c-2.63-.91-7.08-8.08-5.17-8.77,1.5-.55,3.14,4.08,3.75,5.23ZM10.42,141.35c-.5-1.16-1.08-2.4-2.18-3.17.17,2.52,1.58,4.63,3.46,6.12l-1.28-2.95Z"/>
    <path d="M34.73,150.02c-.82.75-1.52,1.38-2.65,1.79.28-2.37,4.23-8.42,7.11-6.71-.6,1.23-1.51,2.2-2.51,3.13l-1.94,1.79ZM38.23,145.74c-.8-1.22-4.99,3-4.81,4.51,1.79-1.29,3.22-2.71,4.81-4.51Z"/>
    <path d="M7.18,189.55c-1.58-.51-.75-7.91-.46-8.96-2.27-.84-1.4-4.16-.36-5.81l.85,3.69.98-1.52c-1.43,3.99-1.79,8.23-1,12.61ZM6.26,179.66c.44-1.21.27-2.29-.24-3.39-.37,1.18-.48,2.41.24,3.39Z"/>
    <path d="M18,147.36c-2.55-1.58-4.29-3.97-4.67-6.97-.04-.32.06-.81.19-1.02.16-.25,1.09-.23,1.3.03,1.52,1.85,2.7,5.09,3.18,7.96ZM17.11,145.85c-.04-.81-2.67-7.05-3.04-6.07-.58,1.53,1.7,5.71,3.04,6.07Z"/>
    <path d="M52.08,142.5c-.65,2.67-4.25,5.82-6.65,6.95.42-2.67,3.59-8.21,6.65-6.95ZM51.56,142.93c-.73-.12-1.18.03-1.67.29-1.48,1.28-2.76,2.68-3.26,4.79,2.08-1.41,3.55-2.93,4.94-5.07Z"/>
    <path d="M52.62,151.69l-.26-2.39c-.36-3.28,2.3-6.24,3.6-6.07,1.02.13-2.89,7.72-3.34,8.46ZM55.16,144.12c-1.17,1.06-2.74,2.99-2.02,4.91.15.06,3.27-6.05,2.02-4.91Z"/>
    <path d="M58.92,177.97c-1.79.04-2.87-6.88-2.99-8.26,2.12.68,4.43,6.24,2.99,8.26ZM58.58,177.01c.37-2.07-.22-3.94-1.67-5.49.16,1.89.57,3.83,1.67,5.49Z"/>
    <path d="M30.54,150.02c-2.09-1.17-3.43-7.78-1.54-8.38,1.22-.39,1.56,2.73,1.55,3.54v4.84ZM29.77,143.19c-.01-.3-.64-.99-.72-.76-.6,1.85-.49,3.78.92,5.45l-.19-4.69Z"/>
    <path d="M10.99,125.96c1.8-.99,2.7,6.88,2.44,8.37-2.18-1.33-4.06-7.48-2.44-8.37ZM11.21,126.5c-.31,1.66.01,4.55,1.45,5.96.58-.2-1.13-7.64-1.45-5.96Z"/>
    <path d="M42.12,139.65l-5.56,5.18c-.17-2.02,4.33-8.32,6.73-7.17-.23.79-.62,1.47-1.18,1.99ZM42.39,138.25c-.08.03-.55.09-.66.17-1.24.84-3.25,2.55-3.71,4.36.41-.1,5.47-4.97,4.38-4.53Z"/>
    <path d="M34.02,146.29c-.6-.79-.58-1.74-.7-2.7-.27-2.08.02-4.08.83-6.01.42-1.01.62-2.01,1.7-2.71.23,1.74.13,3.31-.12,4.97-.38,2.16-.65,4.14-1.7,6.45ZM34.48,143.49c.5-2.68,1.29-5.12,1.15-7.9-2.05,2.86-2.23,6.32-1.78,9.61.51-.39.5-1.03.63-1.71Z"/>
    <path d="M56.03,162.91c3.96.79,5.38,6.83,4.1,6.95-1.91.17-3.7-5.23-4.1-6.95ZM59.87,169.21c.17-2.1-.89-4.18-2.94-5.12.46,1.21,1.85,4.93,2.94,5.12Z"/>
    <path d="M9.11,153.84c-2.2.02-7.18-2.95-6.58-5.02.35-1.2,4.29,2.04,4.72,2.38.88.7,1.7,1.26,1.86,2.64ZM8.26,153.1c-1.5-1.75-3.15-3.1-5.2-3.78,1,2.07,3.18,3.3,5.2,3.78Z"/>
    <path d="M15.99,130.98c1.47.18,1.08,7.14.47,8.7-1.49-1.05-1.86-8.87-.47-8.7ZM16.16,137.09c.4-1.88.36-3.44-.19-4.99-.58,1.77-.48,3.59.19,4.99Z"/>
    <path d="M19.63,154.4c-3.52-.35-6.56-6.53-4.79-6.58.32,0,.87.18,1.28.37,1.26,1.95,2.69,3.66,3.51,6.21ZM18.52,153.18c-.96-1.86-1.84-3.41-3.37-4.88-.84,1.45,2.05,4.59,3.37,4.88Z"/>
    <path d="M41.33,157.35c-.38-1.24-.45-2.26-.46-3.47.23-1.76,1.12-3.39,2.82-4.07,1.52.36-1.62,6.28-2.36,7.55ZM43.51,151.2l-.41-.45c-1.16,1.33-2.11,2.71-1.52,4.63.88-1.42,1.26-2.51,1.92-4.18Z"/>
    <path d="M41.69,131.09c.14,2.33-2.24,6.13-3.55,8.49-.64-3.02.22-5.85,2.05-8.22.28-.36,1.48-.75,1.5-.27ZM41.22,131.26c-1.64,1.28-3.13,4.41-2.63,6.58.11.02,3.89-7.57,2.63-6.58Z"/>
    <path d="M22.81,159c-.73-2.52-.56-6.42,2.69-6.92.97,1.62-1.3,5.32-2.69,6.92ZM24.69,152.86c-1.05.83-2.25,2.77-1.28,4.2.69-.4,2.61-5.24,1.28-4.2Z"/>
    <path d="M60.59,149.02l-4.23,2.31c-.25.13-1.07-.19-.95-.43,1.87-3.55,6.1-4.7,6.25-3.47.05.44-.59,1.32-1.07,1.59ZM60.78,147.51c-1.6.28-3.52,1.39-4.33,3.01.56.22,5.9-3.28,4.33-3.01Z"/>
    <path d="M12.04,179.91c.56,1.15-2.02,7.31-2.9,6.96-1.35-.54,1.23-6.59,2.9-6.96ZM11.21,181.49c-.14-.73-2.2,3.66-1.43,3.76.5-.72,1.54-3.17,1.43-3.76Z"/>
    <path d="M23.07,170.42c1.16,1.36,2.66,6.05,1.92,7.28-1.12,1.85-3.56-4.79-1.92-7.28ZM24.4,177.06c.18-1.96-.26-3.67-1.3-5.35-.39,1.81.18,3.76,1.3,5.35Z"/>
    <path d="M22.91,139.82c1.4.15-3.24,6.75-4.03,7.31-.7-2.16,2.36-7.48,4.03-7.31ZM22.36,140.81c-1.74,1.08-2.61,2.9-2.97,4.73,1.29-1.48,2.27-2.99,2.97-4.73Z"/>
    <path d="M5.07,164.82l-.87-.12c-.19-.03-.19-.62-.08-.8,1.28-2.04,3.62-3.29,6.07-3.27-1.21,2.18-3.15,3.1-5.12,4.19ZM8.85,161.67l-.3-.45c-1.47.85-2.88,1.25-3.72,2.95,1.47-.57,2.55-1.38,4.01-2.49Z"/>
    <path d="M55.44,167.32c.15,1.73-.56,7.19-2.03,7.21-2.24.03.31-6.45,2.03-7.21ZM53.3,173.86c1.15-1.56,1.57-3.3,1.37-4.98-.98,1.59-1.88,3.23-1.37,4.98Z"/>
    <path d="M11.91,198.66c1.59.4.47,5.82-.71,6.79-1.31,1.08-.96-7.22.71-6.79ZM11.14,204.31c1.06-1.65,1.16-3.43.71-5.27-.91,1.7-1.07,3.44-.71,5.27Z"/>
    <path d="M11.04,157c-1.5,1.14-6.83,3.45-7.81,1.94s5.17-3.47,7.81-1.94ZM9.61,157.23c-2.08-.79-4.22.03-5.84.95-.86,1.74,5.27-.41,5.84-.95Z"/>
    <path d="M55.88,156.75c3.21.09,5.67,4.87,4.65,5.45-1.54.89-4.71-3.63-4.65-5.45ZM60.16,161.79c-.24-2.05-1.75-3.66-3.59-4.24.77,1.8,1.81,3.42,3.59,4.24Z"/>
    <path d="M38.99,197.95c-1.26-.83-1.8-6.11-1.22-6.87,1.68.23,2.48,5.87,1.22,6.87ZM38.96,196.27c.2-1.32.02-2.55-.64-3.57-.22,1.27-.13,2.48.64,3.57Z"/>
    <path d="M18.62,170.32l-.92.62c-1.32.88-.57-6.5.86-7.9.64,2.48.46,4.77.06,7.28ZM17.79,170.07c.72-1.74.85-3.41.39-5.08-.69,1.7-.92,3.39-.39,5.08Z"/>
    <path d="M25.25,151.6c-.84-2.15-1.34-6.61,1.67-6.68,1.59.78-.59,5.14-1.67,6.68ZM25.44,149.98c.83-1.37,1.34-2.77,1.54-4.28-1.86-.82-2.12,3.35-1.54,4.28Z"/>
    <path d="M11.74,146.99c-1.47.32-3.8-.2-5.26-.82-1.32-.56-2.14-2.3-1.44-2.8.74-.52,5.69,2.96,6.69,3.61ZM9.5,146.26c-1.33-1.02-2.63-1.86-4.21-2.48.45,1.9,2.46,2.58,4.21,2.48Z"/>
    <path d="M13.98,172.13c2.23,1.19,2.64,6.54,1.04,6.49-1.76-.06-1.65-5.11-1.04-6.49ZM15.1,177.98c.65-1.77.34-3.45-.9-4.66-.24,1.71-.2,3.44.9,4.66Z"/>
    <path d="M62.65,154.23c.32,1.52-5.51.76-6.63.09,1.36-1.79,6.24-1.96,6.63-.09ZM62.06,154.29c-1.27-1.14-3.1-1.08-4.59-.18,1.55.51,3.06.79,4.59.18Z"/>
    <path d="M4.58,177.13c.21.72-.48,7.04-1.48,6.17-1.18-1.03.21-5.28,1.48-6.17Z"/>
    <path d="M19.89,163.34c1.66-.54,4.7,4.04,3.63,4.76-1.21.81-3.63-3.18-3.63-4.76ZM22.93,167.45c-.11-1.46-1-2.54-2.25-3.19.46,1.21,1.12,2.31,2.25,3.19Z"/>
    <path d="M8.19,168.13c-.09,1.38.95,6.71-.61,6.94s-.53-5.73.61-6.94ZM7.51,173.69c.66-.83.53-1.71.19-2.51-.4.76-.52,1.58-.19,2.51Z"/>
    <path d="M13.62,184.36c.42,1.45.46,2.77,1.27,4.09.25-1.33-.05-2.89-.69-4.11-.34-.66-.94-1.38-.29-1.96,1.27,1.1,2.31,6.7,1.33,7.01-1.28.41-1.93-4.22-1.62-5.03Z"/>
    <path d="M12.6,171.16c.29,1.6-.54,5.81-1.66,6.34-1.21.57-1.23-4.87,1.66-6.34ZM10.89,176.58c.83-1.39,1.2-2.72,1.05-4.15-1.05,1.21-1.62,2.68-1.05,4.15Z"/>
    <path d="M45.42,146.03c-1.43-1.75-1.88-4.23-1.95-6.24,0-.29.42-1.12.62-.98l.89.63c.6,2.08.93,4.19.43,6.59ZM43.98,139.43c.05,1.91.16,3.62,1.27,5.3.15-.34-.37-6.14-1.27-5.3Z"/>
    <path d="M54.6,160.56c.55,1.49-.98,7.13-2.28,6.62-1.39-.55.61-5.57,2.28-6.62ZM52.55,166.52c1.05-1.47,1.59-3.19,1.49-4.86-1.18,1.5-1.83,3.13-1.49,4.86Z"/>
    <path d="M56.09,148.06l.47-2.52c.26-1.39,1.59-4.26,2.76-3.78.93.39-2.29,5.68-3.23,6.3ZM58.74,142.53c-.92.78-1.4,1.76-1.44,2.8.86-.78,1.42-1.69,1.44-2.8Z"/>
    <path d="M20.88,167.46c.7,1.02,1.08,6.16-.34,6.14-1.69-.02-.97-4.83.34-6.14ZM20.53,172.74c.57-1.3.58-2.55.09-3.66-.58,1.25-.63,2.46-.09,3.66Z"/>
    <path d="M43.43,194.92c1.44.07,3.89,4.75,2.56,5.55-1.2.72-2.99-4.09-2.56-5.55ZM45.67,199.98c.11-1.62-.52-3-1.7-3.91.24,1.5.61,2.87,1.7,3.91Z"/>
    <path d="M10,161.75c1.11,1.6.89,6.94-.22,6.34-1.53-.82-.48-5.06.22-6.34ZM10.07,166.84c.08-1.53.17-2.34-.19-3.59-.4-.18-.35,4.29.19,3.59Z"/>
    <path d="M5.79,172.17c.17,1.2-1.58,5.12-2.89,4.87s.9-4.55,2.89-4.87ZM4.57,173.56c-.5.52-1.45,1.52-1.18,2.46-.36,1.13,2.83-4.17,1.18-2.46Z"/>
    <path d="M57.09,140.33c-.98,1.77-2.46,2.85-4.13,3.86-.02-1.23,2.14-5.67,4.13-3.86ZM56.18,140.75c-1.14-.05-1.99.92-2.11,2.09.76-.65,1.39-1.27,2.11-2.09Z"/>
    <path d="M14.1,198.74l-.52-2.19c-.3-1.24-.3-2.48.12-3.74,1.51,1.06,2.42,6.02,1.1,6.49-.18.06-.64-.34-.69-.55ZM14.71,198.62c.55-1.73.07-3.31-.89-4.55-.12,1.65.17,3.13.89,4.55Z"/>
    <path d="M40.27,185.48c.81-.26.16,4.46-1.22,4.85-.85.24-.03-4.45,1.22-4.85Z"/>
    <path d="M50.57,150.86c-4.43,2.54-3.96,2.46-6.8,6.9-.16-2.25,3.95-7.23,6.8-6.9Z"/>
    <path d="M44.05,148.92c-1.41-1.06-3.35-6.08-1.87-6.97,1.05-.63,2.68,5.23,1.87,6.97ZM43.82,147.97c.47-.95-1.07-6.46-1.54-5.49-.65,1.36.6,4.68,1.54,5.49Z"/>
    <path d="M7.82,165.96c.25,1.23-2.22,5.69-2.99,4.8-1.02-1.17,1.66-4.64,2.99-4.8ZM5.14,170.2c.96-.93,1.56-1.93,1.91-3.15-1.14.7-1.94,1.76-1.91,3.15Z"/>
    <path d="M8.99,155.37c-.74.08-1.6-.05-2.31-.2-2.63-.55-4.76.65-6.68,2.38,1.68-3.02,5.89-3.69,8.99-2.18Z"/>
    <path d="M32.87,145.99c-1.43-2.85-.75-4.92-3.25-7.69,2.2.1,3.3,5.88,3.25,7.69Z"/>
    <path d="M51.54,151.08c-1.41-.93-2.15-2.23-2.61-3.81,1.77.26,2.88,1.93,2.61,3.81Z"/>
    <path d="M12.96,137.16c-1.46-2.13-3.31-3.8-6-4.33,2.62-.26,5.56,1.4,6,4.33Z"/>
    <path d="M28.46,137.44c-.63-.46-.61-1.68.24-2.05.36-.15,1.24.05,1.31.4.08.43.05,1.14-.1,1.47s-1.15.39-1.45.18Z"/>
    <path d="M5.72,134.08c-.35.13-.92-.54-1.04-.91-.11-.33.12-1.02.54-1.25.32-.18,1.03.34,1.2.65.24.46.07,1.21-.7,1.51Z"/>
    <path d="M13.37,158.28c.28-.04.75.9.53,1.86-.05.2-.67.29-.92.24-.32-.07-.81-.43-.91-.69-.11-.3.17-1.08.48-1.19.22-.08.65-.19.82-.22Z"/>
    <path d="M63.31,149.69c.47.74-.05,1.85-.8,1.71-.42-.08-.76-.91-.74-1.29.04-.59,1.15-1.02,1.54-.41Z"/>
    <path d="M59.09,137.87c-.15.27-.51.71-.71.76-.24.06-.73-.18-.89-.38s.09-.81.32-1.06c.16-.18.68-.34.92-.35s.51.76.36,1.02Z"/>
    <path d="M6.12,192.17c-.76-.58-.11-1.84.68-1.72.33.05.55.83.43,1.13s-.84.8-1.11.59Z"/>
    <path d="M53.11,182.76c.31-.11.96-.12,1.11.09.17.26.12.98-.11,1.19s-.94.08-1.16-.13-.13-1.05.16-1.15Z"/>
    <path d="M54.56,151.99c.21-.17.94-.06,1.06.16.14.26.13.88-.05,1.13s-.89.05-1.11-.17-.18-.9.11-1.12Z"/>
    <path d="M41.88,197.14c.19-.12.79.09.86.3.08.25-.04.9-.27,1.03s-.74-.16-.97-.41c-.18-.2.08-.73.38-.92Z"/>
  </g>
</svg>